M48
; DRILL file {KiCad (6.0.8)} date Mon Jun 26 15:45:30 2023
; FORMAT={-:-/ absolute / metric / decimal}
; #@! TF.CreationDate,2023-06-26T15:45:30-04:00
; #@! TF.GenerationSoftware,Kicad,Pcbnew,(6.0.8)
; #@! TF.FileFunction,Plated,1,2,PTH
FMAT,2
METRIC
; #@! TA.AperFunction,Plated,PTH,ComponentDrill
T1C0.800
; #@! TA.AperFunction,Plated,PTH,ComponentDrill
T2C1.000
%
G90
G05
T1
X142.3Y-69.81
X142.3Y-77.43
X145.364Y-69.81
X145.364Y-77.43
X148.429Y-69.81
X148.429Y-77.43
X151.493Y-69.81
X151.493Y-77.43
X154.557Y-69.81
X154.557Y-77.43
X157.621Y-69.81
X157.621Y-77.43
X160.686Y-69.81
X160.686Y-77.43
X163.75Y-69.81
X163.75Y-77.43
T2
X120.0Y-62.46
X120.0Y-65.0
X122.54Y-62.46
X122.54Y-65.0
X125.08Y-62.46
X125.08Y-65.0
X127.62Y-62.46
X127.62Y-65.0
X130.16Y-62.46
X130.16Y-65.0
X130.92Y-84.737
X130.92Y-99.977
X132.7Y-62.46
X132.7Y-65.0
X133.46Y-84.737
X133.46Y-99.977
X136.0Y-84.737
X136.0Y-99.977
X138.54Y-84.737
X138.54Y-99.977
X140.69Y-62.46
X140.69Y-65.0
X141.08Y-84.737
X141.08Y-99.977
X143.23Y-62.46
X143.23Y-65.0
X143.62Y-84.737
X143.62Y-99.977
X145.77Y-62.46
X145.77Y-65.0
X148.31Y-62.46
X148.31Y-65.0
X150.85Y-62.46
X150.85Y-65.0
X153.39Y-62.46
X153.39Y-65.0
T0
M30
