M48
; DRILL file {KiCad 7.0.5} date Wed Jul 12 21:59:40 2023
; FORMAT={-:-/ absolute / metric / decimal}
; #@! TF.CreationDate,2023-07-12T21:59:40-04:00
; #@! TF.GenerationSoftware,Kicad,Pcbnew,7.0.5
; #@! TF.FileFunction,Plated,1,2,PTH
FMAT,2
METRIC
; #@! TA.AperFunction,Plated,PTH,ViaDrill
T1C0.400
; #@! TA.AperFunction,Plated,PTH,ViaDrill
T2C0.800
; #@! TA.AperFunction,Plated,PTH,ComponentDrill
T3C0.800
; #@! TA.AperFunction,Plated,PTH,ComponentDrill
T4C1.000
; #@! TA.AperFunction,Plated,PTH,ComponentDrill
T5C1.100
%
G90
G05
T1
X132.47Y-87.43
T2
X53.435Y-53.8
X72.345Y-86.98
X76.335Y-62.08
X80.775Y-62.52
X80.909Y-67.767
X86.675Y-62.52
X86.675Y-71.549
X92.575Y-62.53
X92.605Y-68.99
X95.525Y-69.92
X101.675Y-62.49
X103.055Y-69.7
X106.925Y-59.42
X108.295Y-71.66
X111.335Y-71.65
X114.385Y-71.65
X114.965Y-61.22
X116.745Y-56.23
X117.425Y-71.65
X120.465Y-71.65
X121.595Y-62.03
X123.495Y-71.65
X128.735Y-69.7
T3
X142.305Y-57.36
X142.305Y-64.98
X144.845Y-57.36
X144.845Y-64.98
X147.385Y-57.36
X147.385Y-64.98
X149.925Y-57.36
X149.925Y-64.98
X152.465Y-57.36
X152.465Y-64.98
X155.005Y-57.36
X155.005Y-64.98
X157.545Y-57.36
X157.545Y-64.98
X160.085Y-57.36
X160.085Y-64.98
T4
X57.655Y-51.22
X57.655Y-53.76
X60.195Y-51.22
X60.195Y-53.76
X62.735Y-51.22
X62.735Y-53.76
X64.715Y-69.0
X64.715Y-84.24
X65.275Y-51.22
X65.275Y-53.76
X67.255Y-69.0
X67.255Y-84.24
X67.815Y-51.22
X67.815Y-53.76
X69.795Y-69.0
X69.795Y-84.24
X70.355Y-51.22
X70.355Y-53.76
X72.335Y-69.0
X72.335Y-84.24
X74.875Y-69.0
X74.875Y-84.24
X77.415Y-69.0
X77.415Y-84.24
X78.345Y-51.22
X78.345Y-53.76
X80.885Y-51.22
X80.885Y-53.76
X83.425Y-51.22
X83.425Y-53.76
X85.965Y-51.22
X85.965Y-53.76
X88.505Y-51.22
X88.505Y-53.76
X91.045Y-51.22
X91.045Y-53.76
X99.035Y-51.22
X99.035Y-53.76
X101.575Y-51.22
X101.575Y-53.76
X104.115Y-51.22
X104.115Y-53.76
X106.655Y-51.22
X106.655Y-53.76
X109.195Y-51.22
X109.195Y-53.76
X111.735Y-51.22
X111.735Y-53.76
X119.725Y-51.22
X119.725Y-53.76
X122.265Y-51.22
X122.265Y-53.76
X124.805Y-51.22
X124.805Y-53.76
X127.345Y-51.22
X127.345Y-53.76
X129.885Y-51.22
X129.885Y-53.76
X132.425Y-51.22
X132.425Y-53.76
T5
X103.005Y-76.51
X103.005Y-83.01
X107.505Y-76.51
X107.505Y-83.01
X110.582Y-76.51
X110.582Y-83.01
X115.082Y-76.51
X115.082Y-83.01
X118.158Y-76.51
X118.158Y-83.01
X122.658Y-76.51
X122.658Y-83.01
X125.735Y-76.51
X125.735Y-83.01
X130.235Y-76.51
X130.235Y-83.01
T0
M30
