M48
; DRILL file {KiCad (6.0.8)} date Fri Mar 17 15:37:11 2023
; FORMAT={-:-/ absolute / metric / decimal}
; #@! TF.CreationDate,2023-03-17T15:37:11-04:00
; #@! TF.GenerationSoftware,Kicad,Pcbnew,(6.0.8)
; #@! TF.FileFunction,Plated,1,2,PTH
FMAT,2
METRIC
; #@! TA.AperFunction,Plated,PTH,ComponentDrill
T1C0.700
; #@! TA.AperFunction,Plated,PTH,ComponentDrill
T2C0.762
; #@! TA.AperFunction,Plated,PTH,ComponentDrill
T3C0.800
; #@! TA.AperFunction,Plated,PTH,ComponentDrill
T4C0.900
; #@! TA.AperFunction,Plated,PTH,ComponentDrill
T5C0.950
; #@! TA.AperFunction,Plated,PTH,ComponentDrill
T6C1.000
; #@! TA.AperFunction,Plated,PTH,ComponentDrill
T7C1.100
; #@! TA.AperFunction,Plated,PTH,ComponentDrill
T8C1.300
; #@! TA.AperFunction,Plated,PTH,ComponentDrill
T9C1.520
%
G90
G05
T1
X48.1Y-144.73
X48.1Y-152.35
X55.72Y-144.73
X55.72Y-152.35
X60.8Y-144.73
X60.8Y-152.35
X65.88Y-144.73
X65.88Y-152.35
T2
X129.732Y-72.135
X129.732Y-74.675
X129.732Y-77.215
T3
X34.175Y-65.095
X34.175Y-75.255
X35.225Y-38.745
X35.225Y-48.905
X36.79Y-107.825
X36.79Y-110.925
X37.25Y-65.115
X37.25Y-75.275
X37.5Y-118.55
X37.5Y-123.55
X38.4Y-38.74
X38.4Y-48.9
X39.1Y-141.225
X39.1Y-151.385
X40.25Y-65.115
X40.25Y-75.275
X40.675Y-117.205
X40.675Y-124.825
X41.5Y-38.745
X41.5Y-48.905
X41.685Y-146.815
X43.215Y-117.205
X43.215Y-124.825
X43.25Y-65.115
X43.25Y-75.275
X43.4Y-94.995
X43.4Y-105.155
X44.225Y-144.275
X44.225Y-149.355
X44.67Y-141.65
X44.695Y-155.425
X45.755Y-117.205
X45.755Y-124.825
X46.25Y-65.12
X46.25Y-75.28
X46.5Y-95.02
X46.5Y-105.18
X46.6Y-33.1
X46.6Y-35.64
X46.6Y-38.18
X46.6Y-40.72
X46.6Y-43.26
X46.6Y-45.8
X46.6Y-48.34
X46.95Y-107.825
X46.95Y-110.925
X47.9Y-29.25
X48.295Y-117.205
X48.295Y-124.825
X49.25Y-65.12
X49.25Y-75.28
X49.55Y-95.525
X49.55Y-98.065
X49.55Y-100.605
X49.55Y-103.145
X49.55Y-105.685
X49.55Y-108.225
X49.55Y-110.765
X50.835Y-117.205
X50.835Y-124.825
X50.875Y-92.375
X52.25Y-65.12
X52.25Y-75.28
X52.9Y-29.25
X53.375Y-117.205
X53.375Y-124.825
X54.22Y-33.1
X54.22Y-35.64
X54.22Y-38.18
X54.22Y-40.72
X54.22Y-43.26
X54.22Y-45.8
X54.22Y-48.34
X54.83Y-141.65
X54.855Y-155.425
X55.25Y-65.115
X55.25Y-75.275
X55.875Y-92.375
X55.915Y-117.205
X55.915Y-124.825
X57.17Y-95.525
X57.17Y-98.065
X57.17Y-100.605
X57.17Y-103.145
X57.17Y-105.685
X57.17Y-108.225
X57.17Y-110.765
X58.25Y-65.115
X58.25Y-75.275
X58.455Y-117.205
X58.455Y-124.825
X59.25Y-38.77
X59.25Y-48.93
X59.77Y-98.375
X59.775Y-95.3
X60.225Y-100.995
X60.225Y-111.155
X61.25Y-65.115
X61.25Y-75.275
X61.6Y-115.07
X61.6Y-125.23
X62.375Y-38.77
X62.375Y-48.93
X63.325Y-100.995
X63.325Y-111.155
X64.25Y-65.115
X64.25Y-75.275
X64.725Y-115.07
X64.725Y-125.23
X65.55Y-38.765
X65.55Y-48.925
X67.275Y-69.9
X67.275Y-72.44
X67.275Y-74.98
X67.275Y-77.52
X67.275Y-80.06
X67.275Y-82.6
X67.275Y-85.14
X67.275Y-87.68
X67.825Y-115.07
X67.825Y-125.23
X69.93Y-98.375
X69.935Y-95.3
X69.95Y-39.145
X69.95Y-49.305
X70.6Y-65.6
X72.172Y-118.17
X72.172Y-120.71
X72.172Y-123.25
X73.025Y-39.145
X73.025Y-49.305
X74.615Y-158.45
X74.895Y-69.9
X74.895Y-72.44
X74.895Y-74.98
X74.895Y-77.52
X74.895Y-80.06
X74.895Y-82.6
X74.895Y-85.14
X74.895Y-87.68
X75.6Y-65.6
X75.9Y-95.225
X75.9Y-105.385
X76.175Y-39.14
X76.175Y-49.3
X77.995Y-85.727
X79.0Y-95.225
X79.0Y-105.385
X79.792Y-118.17
X79.792Y-120.71
X79.792Y-123.25
X80.725Y-71.958
X80.725Y-74.458
X81.075Y-33.495
X81.075Y-36.035
X81.075Y-38.575
X81.075Y-41.115
X81.075Y-43.655
X81.075Y-46.195
X81.075Y-48.735
X81.62Y-106.475
X82.025Y-95.725
X82.025Y-98.265
X82.025Y-100.805
X82.025Y-103.345
X82.325Y-29.595
X83.325Y-92.825
X84.625Y-72.052
X84.625Y-74.593
X84.625Y-77.132
X84.625Y-79.672
X84.775Y-158.45
X84.875Y-114.575
X84.875Y-119.575
X85.925Y-68.927
X87.275Y-82.703
X87.325Y-29.595
X88.155Y-85.727
X88.325Y-92.825
X88.695Y-33.495
X88.695Y-36.035
X88.695Y-38.575
X88.695Y-41.115
X88.695Y-43.655
X88.695Y-46.195
X88.695Y-48.735
X89.645Y-95.725
X89.645Y-98.265
X89.645Y-100.805
X89.645Y-103.345
X90.925Y-68.927
X91.78Y-106.475
X92.245Y-72.052
X92.245Y-74.593
X92.245Y-77.132
X92.245Y-79.672
X92.275Y-82.703
X92.75Y-93.665
X92.75Y-103.825
X93.625Y-39.115
X93.625Y-49.275
X94.825Y-71.552
X94.825Y-81.712
X96.75Y-39.115
X96.75Y-49.275
X97.825Y-71.552
X97.825Y-81.712
X98.8Y-114.625
X98.8Y-119.625
X99.875Y-39.14
X99.875Y-49.3
X104.0Y-90.595
X104.0Y-100.755
X104.4Y-39.395
X104.4Y-49.555
X106.96Y-103.52
X107.45Y-39.42
X107.45Y-49.58
X108.5Y-70.515
X108.5Y-80.675
X109.5Y-100.98
X110.5Y-39.42
X110.5Y-49.58
X111.625Y-67.41
X111.625Y-77.57
X112.04Y-103.52
X113.575Y-39.445
X113.575Y-49.605
X114.235Y-78.145
X116.775Y-80.685
X117.975Y-94.395
X117.975Y-104.555
X118.18Y-152.775
X118.18Y-157.775
X118.4Y-33.8
X118.4Y-36.34
X118.4Y-38.88
X118.4Y-41.42
X118.4Y-43.96
X118.4Y-46.5
X118.4Y-49.04
X119.315Y-78.145
X119.675Y-30.5
X121.075Y-83.095
X121.075Y-93.255
X124.675Y-30.5
X126.02Y-33.8
X126.02Y-36.34
X126.02Y-38.88
X126.02Y-41.42
X126.02Y-43.96
X126.02Y-46.5
X126.02Y-49.04
X126.55Y-68.845
X126.55Y-79.005
X130.95Y-39.395
X130.95Y-49.555
X132.355Y-152.775
X132.355Y-157.775
X132.9Y-68.845
X132.9Y-79.005
X134.0Y-39.395
X134.0Y-49.555
X135.975Y-68.87
X135.975Y-79.03
X137.0Y-91.945
X137.0Y-102.105
X137.025Y-39.395
X137.025Y-49.555
X143.35Y-93.295
X143.35Y-103.455
X143.375Y-67.47
X143.375Y-77.63
X144.15Y-106.175
X144.15Y-108.715
X144.15Y-111.255
X144.612Y-80.285
X144.612Y-82.825
X144.612Y-85.365
X151.77Y-106.175
X151.77Y-108.715
X151.77Y-111.255
X152.232Y-80.285
X152.232Y-82.825
X152.232Y-85.365
X157.35Y-106.9
X157.35Y-110.0
X157.702Y-85.39
X157.727Y-82.29
X167.51Y-106.9
X167.51Y-110.0
X167.862Y-85.39
X167.887Y-82.29
X169.655Y-108.95
X170.088Y-84.315
X172.195Y-106.41
X172.195Y-111.49
X172.627Y-81.775
X172.627Y-86.855
T4
X35.925Y-78.26
X35.925Y-80.8
X35.925Y-84.71
X35.925Y-87.25
X40.275Y-52.06
X40.275Y-54.6
X42.425Y-78.26
X42.425Y-80.8
X42.425Y-84.71
X42.425Y-87.25
X46.925Y-52.06
X46.925Y-54.6
X48.925Y-78.26
X48.925Y-80.8
X48.925Y-84.71
X48.925Y-87.25
X53.6Y-52.085
X53.6Y-54.625
X55.425Y-78.26
X55.425Y-80.8
X55.425Y-84.71
X55.425Y-87.25
X59.2Y-138.65
X59.2Y-141.19
X59.225Y-155.885
X59.225Y-158.425
X60.25Y-52.085
X60.25Y-54.625
X61.925Y-78.26
X61.925Y-80.8
X61.925Y-84.71
X61.925Y-87.25
X65.8Y-138.66
X65.8Y-141.2
X65.8Y-155.885
X65.8Y-158.425
X71.7Y-52.435
X71.7Y-54.975
X78.3Y-52.435
X78.3Y-54.975
X80.25Y-79.337
X80.25Y-81.877
X89.175Y-135.85
X89.175Y-138.39
X89.175Y-158.91
X89.175Y-161.45
X91.45Y-52.38
X91.45Y-54.92
X98.075Y-52.405
X98.075Y-54.945
X105.7Y-52.66
X105.7Y-55.2
X105.775Y-84.985
X105.775Y-87.525
X111.84Y-114.05
X111.84Y-116.59
X111.84Y-120.5
X111.84Y-123.04
X111.84Y-126.95
X111.84Y-129.49
X111.84Y-133.4
X111.84Y-135.94
X111.84Y-139.85
X111.84Y-142.39
X112.225Y-52.66
X112.225Y-55.2
X113.375Y-61.8
X113.375Y-64.34
X118.34Y-114.05
X118.34Y-116.59
X118.34Y-120.5
X118.34Y-123.04
X118.34Y-126.95
X118.34Y-129.49
X118.34Y-133.4
X118.34Y-135.94
X118.34Y-139.85
X118.34Y-142.39
X118.75Y-52.66
X118.75Y-55.2
X124.84Y-114.05
X124.84Y-116.59
X124.84Y-120.5
X124.84Y-123.04
X124.84Y-126.95
X124.84Y-129.49
X124.84Y-133.4
X124.84Y-135.94
X124.84Y-139.85
X124.84Y-142.39
X125.275Y-52.66
X125.275Y-55.2
X128.3Y-63.26
X128.3Y-65.8
X130.65Y-92.985
X130.65Y-95.525
X131.34Y-114.05
X131.34Y-116.59
X131.34Y-120.5
X131.34Y-123.04
X131.34Y-126.95
X131.34Y-129.49
X131.34Y-133.4
X131.34Y-135.94
X131.34Y-139.85
X131.34Y-142.39
X131.8Y-52.66
X131.8Y-55.2
X137.84Y-114.05
X137.84Y-116.59
X137.84Y-120.5
X137.84Y-123.04
X137.84Y-126.95
X137.84Y-129.49
X137.84Y-133.4
X137.84Y-135.94
X137.84Y-139.85
X137.84Y-142.39
X138.325Y-52.66
X138.325Y-55.2
X149.6Y-100.05
X149.6Y-102.59
X150.058Y-74.125
X150.058Y-76.665
X154.525Y-101.445
X154.525Y-111.605
X154.982Y-75.58
X154.982Y-85.74
T5
X47.25Y-129.4
X49.75Y-129.4
X52.25Y-129.4
X147.675Y-128.75
X147.675Y-131.25
X147.675Y-133.75
T6
X105.915Y-123.28
X105.915Y-125.82
X105.915Y-128.36
X105.915Y-130.9
X105.915Y-133.44
X107.635Y-98.225
X110.175Y-98.225
X112.715Y-98.225
X116.95Y-73.89
X119.49Y-73.89
X119.74Y-109.335
X122.03Y-73.89
X122.28Y-109.335
X124.82Y-109.335
X127.36Y-109.335
X129.9Y-109.335
X145.5Y-118.1
X145.5Y-120.64
X145.5Y-123.18
X146.8Y-91.425
X146.808Y-66.24
X149.34Y-91.425
X149.347Y-66.24
X151.88Y-91.425
X151.887Y-66.24
X154.42Y-91.425
X154.427Y-66.24
X172.95Y-30.06
X172.95Y-32.6
X172.95Y-35.14
X172.95Y-37.68
X172.95Y-40.22
X172.95Y-42.76
X172.95Y-45.3
X172.95Y-47.84
X172.95Y-50.38
X172.95Y-52.92
X172.95Y-55.46
X172.95Y-58.0
X172.95Y-60.54
X182.05Y-30.05
X182.05Y-32.59
X182.05Y-35.13
X182.05Y-37.67
X182.05Y-40.21
X182.05Y-42.75
X182.05Y-45.29
X182.05Y-47.83
X182.05Y-50.37
X182.05Y-52.91
X182.05Y-55.45
X182.05Y-57.99
X182.05Y-60.53
T7
X35.0Y-31.45
X35.0Y-35.95
X35.55Y-154.05
X35.55Y-158.55
X41.5Y-31.45
X41.5Y-35.95
X42.05Y-154.05
X42.05Y-158.55
X59.25Y-31.55
X59.25Y-36.05
X65.75Y-31.55
X65.75Y-36.05
X69.925Y-31.995
X69.925Y-36.495
X70.75Y-143.915
X70.75Y-154.075
X76.425Y-31.995
X76.425Y-36.495
X84.695Y-123.5
X89.35Y-116.975
X91.89Y-116.975
X93.375Y-31.97
X93.375Y-36.47
X94.43Y-116.975
X94.855Y-123.5
X99.875Y-31.97
X99.875Y-36.47
X104.0Y-61.34
X104.0Y-67.84
X108.5Y-61.34
X108.5Y-67.84
X108.635Y-91.23
X110.675Y-83.475
X110.675Y-87.975
X111.175Y-91.23
X113.715Y-91.23
X115.975Y-67.97
X117.175Y-83.475
X117.175Y-87.975
X118.515Y-67.97
X120.2Y-160.5
X121.055Y-67.97
X122.765Y-149.645
X122.765Y-155.12
X125.305Y-149.645
X125.305Y-155.12
X126.55Y-81.675
X126.55Y-86.175
X127.845Y-149.645
X127.845Y-155.12
X129.825Y-30.2
X129.825Y-34.7
X130.36Y-160.5
X133.05Y-81.675
X133.05Y-86.175
X133.175Y-61.675
X133.175Y-66.175
X136.325Y-30.2
X136.325Y-34.7
X139.675Y-61.675
X139.675Y-66.175
X144.03Y-29.76
X144.03Y-34.26
X144.04Y-38.55
X144.04Y-43.05
X144.04Y-47.29
X144.04Y-51.79
X144.04Y-56.07
X144.04Y-60.57
X150.53Y-29.76
X150.53Y-34.26
X150.54Y-38.55
X150.54Y-43.05
X150.54Y-47.29
X150.54Y-51.79
X150.54Y-56.07
X150.54Y-60.57
X153.53Y-29.76
X153.53Y-34.26
X153.54Y-38.55
X153.54Y-43.05
X153.54Y-47.29
X153.54Y-51.79
X153.54Y-56.07
X153.54Y-60.57
X160.03Y-29.76
X160.03Y-34.26
X160.04Y-38.55
X160.04Y-43.05
X160.04Y-47.29
X160.04Y-51.79
X160.04Y-56.07
X160.04Y-60.57
X163.03Y-29.76
X163.03Y-34.26
X163.04Y-38.55
X163.04Y-43.05
X163.04Y-47.29
X163.04Y-51.79
X163.04Y-56.07
X163.04Y-60.57
X169.53Y-29.76
X169.53Y-34.26
X169.54Y-38.55
X169.54Y-43.05
X169.54Y-47.29
X169.54Y-51.79
X169.54Y-56.07
X169.54Y-60.57
T8
X74.575Y-148.65
X76.575Y-142.65
X76.575Y-154.65
X88.775Y-142.65
X88.775Y-154.65
X159.95Y-91.475
X159.95Y-103.475
X160.433Y-66.815
X160.433Y-78.815
X172.15Y-91.475
X172.15Y-103.475
X172.632Y-66.815
X172.632Y-78.815
X174.15Y-97.475
X174.632Y-72.815
T9
X36.6Y-92.595
X36.6Y-97.675
X36.6Y-102.755
X180.625Y-67.695
X180.625Y-72.775
X180.625Y-77.855
X180.625Y-92.32
X180.625Y-97.4
X180.625Y-102.48
T6
G00X107.7Y-149.225
M15
G01X110.3Y-149.225
M16
G05
G00X107.9Y-155.525
M15
G01X110.1Y-155.525
M16
G05
G00X113.8Y-151.025
M15
G01X113.8Y-153.225
M16
G05
T0
M30
