M48
; DRILL file {KiCad (7.0.0)} date Mon May  1 15:30:41 2023
; FORMAT={-:-/ absolute / metric / decimal}
; #@! TF.CreationDate,2023-05-01T15:30:41-04:00
; #@! TF.GenerationSoftware,Kicad,Pcbnew,(7.0.0)
; #@! TF.FileFunction,Plated,1,2,PTH
FMAT,2
METRIC
; #@! TA.AperFunction,Plated,PTH,ViaDrill
T1C0.250
; #@! TA.AperFunction,Plated,PTH,ViaDrill
T2C2.500
%
G90
G05
T1
X159.436Y-24.994
X160.223Y-24.994
X160.909Y-24.943
X161.569Y-24.943
X162.168Y-24.917
X162.89Y-82.423
X162.9Y-28.804
X163.345Y-28.325
X163.546Y-82.398
X163.7Y-28.808
X164.186Y-82.931
X164.567Y-28.804
X164.567Y-82.372
X164.98Y-28.346
X165.285Y-83.006
X165.938Y-83.439
X165.963Y-73.59
X166.285Y-82.865
X166.35Y-70.75
X166.362Y-72.91
X166.682Y-82.415
X166.761Y-72.27
X166.84Y-70.27
X166.86Y-69.23
X167.081Y-83.363
X167.34Y-69.74
X167.38Y-68.79
X167.64Y-82.931
X167.7Y-67.26
X167.75Y-68.31
X168.123Y-84.226
X168.14Y-65.76
X168.15Y-67.8
X168.26Y-66.76
X168.444Y-37.474
X168.617Y-83.879
X168.64Y-66.29
X168.652Y-65.27
X168.933Y-83.369
X168.99Y-64.776
X169.233Y-37.981
X169.34Y-64.268
X169.342Y-82.931
X169.755Y-63.775
X170.047Y-38.512
X170.053Y-82.245
X170.798Y-63.298
X170.811Y-38.993
X171.625Y-39.525
X171.818Y-62.698
X172.16Y-72.21
X172.16Y-73.59
X172.17Y-72.9
X172.389Y-40.006
X172.771Y-83.693
X172.992Y-37.498
X173.178Y-40.512
X173.431Y-84.226
X173.5Y-38.006
X173.955Y-41.006
X174.008Y-38.514
X174.066Y-84.6
X174.503Y-39.01
X174.744Y-41.512
X175.011Y-39.518
X175.486Y-75.785
X175.514Y-40.005
X175.533Y-42.018
X176.001Y-40.508
X176.049Y-75.991
X176.294Y-42.497
X176.509Y-41.016
X176.614Y-76.191
X177.005Y-41.511
X177.19Y-76.391
X177.513Y-42.019
X177.648Y-85.192
X177.789Y-76.372
X177.97Y-42.477
X178.079Y-83.591
X178.079Y-84.633
X178.26Y-75.874
X178.68Y-75.33
X179.057Y-74.864
X179.554Y-74.374
X180.014Y-73.874
X180.047Y-24.67
X180.368Y-73.374
X180.387Y-24.8
X180.705Y-65.766
X180.709Y-63.78
X180.71Y-62.78
X180.73Y-66.78
X180.73Y-67.798
X180.73Y-68.814
X180.73Y-69.729
X180.73Y-70.77
X180.746Y-71.679
X180.755Y-64.776
X180.809Y-72.275
X180.833Y-72.874
X181.057Y-24.8
X181.213Y-67.265
X181.213Y-68.306
X181.238Y-63.302
X181.238Y-64.268
X181.238Y-69.271
X181.238Y-70.287
X181.25Y-62.27
X181.289Y-65.258
X181.289Y-66.3
X181.343Y-71.374
X181.397Y-24.67
X181.767Y-24.8
X183.23Y-28.08
X185.85Y-50.075
X186.05Y-25.024
X186.674Y-50.0
X186.725Y-24.8
X197.406Y-73.762
X197.409Y-71.78
X197.409Y-72.771
X197.409Y-75.743
X197.409Y-76.784
X197.409Y-77.749
X197.434Y-74.752
X197.815Y-71.247
X197.815Y-72.263
X197.815Y-73.279
X197.815Y-74.244
X197.815Y-75.235
X197.841Y-76.276
X197.841Y-77.267
X198.069Y-43.028
X198.086Y-41.998
X198.095Y-43.993
X198.78Y-43.51
X198.806Y-41.504
X198.882Y-42.52
X206.096Y-25.019
X207.109Y-25.014
X207.794Y-25.03
X208.452Y-25.02
X208.636Y-59.334
X209.067Y-24.994
X209.698Y-25.019
X209.947Y-82.677
X210.033Y-59.842
X210.553Y-82.677
X210.6Y-47.43
X210.998Y-60.528
X211.16Y-82.677
X211.34Y-47.47
X211.56Y-44.03
X211.766Y-82.677
X211.836Y-61.011
X212.141Y-47.549
X212.373Y-82.677
X212.852Y-47.549
X212.979Y-82.677
X213.131Y-61.57
X213.512Y-47.574
X213.585Y-82.677
X214.192Y-82.677
X214.325Y-61.57
X214.427Y-47.565
X214.798Y-82.677
X215.29Y-61.62
X215.325Y-43.966
X215.405Y-82.677
X216.011Y-82.677
X216.224Y-43.966
X216.618Y-82.677
X217.124Y-43.966
X217.224Y-82.677
X217.83Y-82.677
X218.023Y-43.966
X218.211Y-25.146
X218.897Y-25.146
X218.923Y-43.966
X219.517Y-25.121
X219.786Y-88.163
X219.862Y-43.966
X220.116Y-25.121
X220.142Y-39.141
X220.472Y-88.519
X220.765Y-25.159
X220.878Y-45.517
X221.132Y-88.163
X221.31Y-45.034
X221.727Y-44.516
T2
X159.004Y-30.455
X174.523Y-81.407
X174.727Y-30.886
X206.045Y-30.48
T0
M30
