G04 #@! TF.GenerationSoftware,KiCad,Pcbnew,7.0.5*
G04 #@! TF.CreationDate,2023-07-21T20:52:09-04:00*
G04 #@! TF.ProjectId,robotica,726f626f-7469-4636-912e-6b696361645f,rev?*
G04 #@! TF.SameCoordinates,Original*
G04 #@! TF.FileFunction,Copper,L1,Top*
G04 #@! TF.FilePolarity,Positive*
%FSLAX46Y46*%
G04 Gerber Fmt 4.6, Leading zero omitted, Abs format (unit mm)*
G04 Created by KiCad (PCBNEW 7.0.5) date 2023-07-21 20:52:09*
%MOMM*%
%LPD*%
G01*
G04 APERTURE LIST*
G04 #@! TA.AperFunction,ComponentPad*
%ADD10O,1.700000X1.700000*%
G04 #@! TD*
G04 #@! TA.AperFunction,ComponentPad*
%ADD11R,1.700000X1.700000*%
G04 #@! TD*
G04 #@! TA.AperFunction,ComponentPad*
%ADD12C,1.600000*%
G04 #@! TD*
G04 #@! TA.AperFunction,ComponentPad*
%ADD13O,4.200000X2.000000*%
G04 #@! TD*
G04 #@! TA.AperFunction,ComponentPad*
%ADD14O,2.000000X4.200000*%
G04 #@! TD*
G04 #@! TA.AperFunction,ComponentPad*
%ADD15R,2.000000X4.600000*%
G04 #@! TD*
G04 #@! TA.AperFunction,ComponentPad*
%ADD16O,1.800000X1.800000*%
G04 #@! TD*
G04 #@! TA.AperFunction,ComponentPad*
%ADD17R,1.800000X1.800000*%
G04 #@! TD*
G04 #@! TA.AperFunction,ComponentPad*
%ADD18C,1.500000*%
G04 #@! TD*
G04 #@! TA.AperFunction,ComponentPad*
%ADD19R,1.500000X1.500000*%
G04 #@! TD*
G04 #@! TA.AperFunction,ComponentPad*
%ADD20O,1.600000X1.600000*%
G04 #@! TD*
G04 #@! TA.AperFunction,ComponentPad*
%ADD21R,1.600000X1.600000*%
G04 #@! TD*
G04 #@! TA.AperFunction,ComponentPad*
%ADD22C,3.000000*%
G04 #@! TD*
G04 #@! TA.AperFunction,ComponentPad*
%ADD23C,1.800000*%
G04 #@! TD*
G04 #@! TA.AperFunction,ComponentPad*
%ADD24R,3.000000X3.000000*%
G04 #@! TD*
G04 #@! TA.AperFunction,ComponentPad*
%ADD25O,2.000000X1.905000*%
G04 #@! TD*
G04 #@! TA.AperFunction,ComponentPad*
%ADD26R,2.000000X1.905000*%
G04 #@! TD*
G04 #@! TA.AperFunction,ViaPad*
%ADD27C,0.700000*%
G04 #@! TD*
G04 #@! TA.AperFunction,Conductor*
%ADD28C,0.700000*%
G04 #@! TD*
G04 #@! TA.AperFunction,Conductor*
%ADD29C,2.000000*%
G04 #@! TD*
G04 #@! TA.AperFunction,Conductor*
%ADD30C,1.000000*%
G04 #@! TD*
G04 APERTURE END LIST*
D10*
X82525000Y-87772400D03*
X82525000Y-90312400D03*
X82525000Y-92852400D03*
D11*
X82525000Y-95392400D03*
D10*
X86258400Y-87772400D03*
X86258400Y-90312400D03*
X86258400Y-92852400D03*
D11*
X86258400Y-95392400D03*
D10*
X57195600Y-93776800D03*
X57195600Y-91236800D03*
X57195600Y-88696800D03*
D11*
X57195600Y-86156800D03*
D10*
X90000000Y-120800000D03*
X90000000Y-118260000D03*
X90000000Y-115720000D03*
X90000000Y-113180000D03*
X90000000Y-110640000D03*
X90000000Y-108100000D03*
X90000000Y-105560000D03*
X90000000Y-103020000D03*
X90000000Y-100480000D03*
X90000000Y-97940000D03*
X90000000Y-95400000D03*
X90000000Y-92860000D03*
X90000000Y-90320000D03*
X90000000Y-87780000D03*
X90000000Y-85240000D03*
X90000000Y-82700000D03*
X90000000Y-80160000D03*
X90000000Y-77620000D03*
X90000000Y-75080000D03*
X90000000Y-72540000D03*
D11*
X90000000Y-70000000D03*
D12*
X61819600Y-130060800D03*
X61819600Y-135060800D03*
D13*
X58872800Y-147456800D03*
D14*
X55472800Y-142656800D03*
D15*
X61772800Y-142656800D03*
D16*
X103022400Y-128676400D03*
D17*
X103022400Y-138836400D03*
D10*
X122940400Y-77622400D03*
X122940400Y-75082400D03*
D11*
X122940400Y-72542400D03*
D10*
X78333600Y-80162400D03*
X78333600Y-77622400D03*
D11*
X78333600Y-75082400D03*
D10*
X119024400Y-120760000D03*
X119024400Y-118220000D03*
X119024400Y-115680000D03*
X119024400Y-113140000D03*
X119024400Y-110600000D03*
X119024400Y-108060000D03*
X119024400Y-105520000D03*
X119024400Y-102980000D03*
X119024400Y-100440000D03*
X119024400Y-97900000D03*
X119024400Y-95360000D03*
X119024400Y-92820000D03*
X119024400Y-90280000D03*
X119024400Y-87740000D03*
D11*
X119024400Y-85200000D03*
D18*
X77774800Y-157530800D03*
X80314800Y-154990800D03*
D19*
X77774800Y-152450800D03*
D10*
X66395600Y-93776800D03*
X66395600Y-91236800D03*
X66395600Y-88696800D03*
D11*
X66395600Y-86156800D03*
D10*
X60994400Y-79908400D03*
X60994400Y-77368400D03*
D11*
X60994400Y-74828400D03*
D10*
X122732800Y-120810000D03*
X122732800Y-118270000D03*
X122732800Y-115730000D03*
X122732800Y-113190000D03*
X122732800Y-110650000D03*
X122732800Y-108110000D03*
X122732800Y-105570000D03*
X122732800Y-103030000D03*
X122732800Y-100490000D03*
X122732800Y-97950000D03*
X122732800Y-95410000D03*
X122732800Y-92870000D03*
X122732800Y-90330000D03*
X122732800Y-87790000D03*
D11*
X122732800Y-85250000D03*
D20*
X62085200Y-118262400D03*
X62085200Y-115722400D03*
X62085200Y-113182400D03*
X62085200Y-110642400D03*
X62085200Y-108102400D03*
X62085200Y-105562400D03*
X62085200Y-103022400D03*
X62085200Y-100482400D03*
X74785200Y-100482400D03*
X74785200Y-103022400D03*
X74785200Y-105562400D03*
X74785200Y-108102400D03*
X74785200Y-110642400D03*
X74785200Y-113182400D03*
X74785200Y-115722400D03*
D21*
X74785200Y-118262400D03*
D20*
X96824800Y-145694400D03*
X96824800Y-148234400D03*
X96824800Y-150774400D03*
X89204800Y-150774400D03*
X89204800Y-148234400D03*
D21*
X89204800Y-145694400D03*
D10*
X74676000Y-80165200D03*
X74676000Y-77625200D03*
D11*
X74676000Y-75085200D03*
D20*
X99669600Y-152095200D03*
D12*
X99669600Y-144475200D03*
D22*
X109012000Y-127858000D03*
X109012000Y-139858000D03*
X121212000Y-139858000D03*
X121212000Y-127858000D03*
X107012000Y-133858000D03*
D16*
X103073200Y-145908800D03*
D17*
X103073200Y-156068800D03*
D10*
X57302400Y-79908400D03*
X57302400Y-77368400D03*
D11*
X57302400Y-74828400D03*
D10*
X82550000Y-105562400D03*
X82550000Y-108102400D03*
X82550000Y-110642400D03*
X82550000Y-113182400D03*
D11*
X82550000Y-115722400D03*
D20*
X71678800Y-77636400D03*
D12*
X64058800Y-77636400D03*
D10*
X78333600Y-118002400D03*
X78333600Y-115462400D03*
X78333600Y-112922400D03*
D11*
X78333600Y-110382400D03*
D23*
X85699600Y-135026400D03*
D17*
X83159600Y-135026400D03*
D10*
X115400000Y-120800000D03*
X115400000Y-118260000D03*
X115400000Y-115720000D03*
X115400000Y-113180000D03*
X115400000Y-110640000D03*
X115400000Y-108100000D03*
X115400000Y-105560000D03*
X115400000Y-103020000D03*
X115400000Y-100480000D03*
X115400000Y-97940000D03*
X115400000Y-95400000D03*
X115400000Y-92860000D03*
X115400000Y-90320000D03*
X115400000Y-87780000D03*
X115400000Y-85240000D03*
X115400000Y-82700000D03*
X115400000Y-80160000D03*
X115400000Y-77620000D03*
X115400000Y-75080000D03*
X115400000Y-72540000D03*
D11*
X115400000Y-70000000D03*
D20*
X99466400Y-136194800D03*
D12*
X99466400Y-128574800D03*
D20*
X82550000Y-154279600D03*
D12*
X90170000Y-154279600D03*
D20*
X96779000Y-128473200D03*
D12*
X89159000Y-128473200D03*
D11*
X86258400Y-72542400D03*
D18*
X77368400Y-140258800D03*
X79908400Y-137718800D03*
D19*
X77368400Y-135178800D03*
D22*
X129692400Y-146010400D03*
X129692400Y-151090400D03*
D24*
X129692400Y-156170400D03*
D20*
X96738200Y-131688600D03*
X96738200Y-134228600D03*
X96738200Y-136768600D03*
X89118200Y-136768600D03*
X89118200Y-134228600D03*
D21*
X89118200Y-131688600D03*
D20*
X79298800Y-144475200D03*
D12*
X86918800Y-144475200D03*
D23*
X86004400Y-149352000D03*
D17*
X83464400Y-149352000D03*
D22*
X55676800Y-133451600D03*
D24*
X55676800Y-128371600D03*
D10*
X58318400Y-105562400D03*
X58318400Y-108102400D03*
X58318400Y-110642400D03*
D11*
X58318400Y-113182400D03*
D12*
X70404800Y-131657200D03*
X70404800Y-126657200D03*
D10*
X86285600Y-105562400D03*
X86285600Y-108102400D03*
X86285600Y-110642400D03*
X86285600Y-113182400D03*
D11*
X86285600Y-115722400D03*
D10*
X54406800Y-105562400D03*
X54406800Y-108102400D03*
X54406800Y-110642400D03*
D11*
X54406800Y-113182400D03*
D20*
X82245200Y-140106400D03*
D12*
X89865200Y-140106400D03*
D10*
X83058000Y-120750000D03*
D11*
X85598000Y-120750000D03*
D22*
X129692400Y-128778000D03*
X129692400Y-133858000D03*
D24*
X129692400Y-138938000D03*
D20*
X71678800Y-74523600D03*
D12*
X64058800Y-74523600D03*
D10*
X130454400Y-77632400D03*
X130454400Y-80172400D03*
X130454400Y-82712400D03*
D11*
X130454400Y-85252400D03*
D25*
X67255200Y-128320800D03*
X67255200Y-130860800D03*
D26*
X67255200Y-133400800D03*
D20*
X71678800Y-80721200D03*
D12*
X64058800Y-80721200D03*
D11*
X82600800Y-100482400D03*
D12*
X55727600Y-117239851D03*
D21*
X55727600Y-122239851D03*
D11*
X82550000Y-72542400D03*
D10*
X126746000Y-77622400D03*
X126746000Y-80162400D03*
X126746000Y-82702400D03*
D11*
X126746000Y-85242400D03*
D10*
X61795600Y-93776800D03*
X61795600Y-91236800D03*
X61795600Y-88696800D03*
D11*
X61795600Y-86156800D03*
D22*
X109012000Y-145084800D03*
X109012000Y-157084800D03*
X121212000Y-157084800D03*
X121212000Y-145084800D03*
X107012000Y-151084800D03*
D11*
X86258400Y-100482400D03*
D10*
X119176800Y-77629600D03*
X119176800Y-75089600D03*
D11*
X119176800Y-72549600D03*
D27*
X96774000Y-125745700D03*
D28*
X90000000Y-87780000D02*
X82532600Y-87780000D01*
X82525000Y-90312400D02*
X89992400Y-90312400D01*
X82532600Y-87780000D02*
X82525000Y-87772400D01*
X90000000Y-92860000D02*
X82532600Y-92860000D01*
X82532600Y-92860000D02*
X82525000Y-92852400D01*
X82525000Y-95392400D02*
X89992400Y-95392400D01*
D29*
X61819600Y-135060800D02*
X61819600Y-142610000D01*
X51358800Y-124663200D02*
X51358800Y-132181600D01*
X55727600Y-122239851D02*
X53782149Y-122239851D01*
X55727600Y-122239851D02*
X58107749Y-122239851D01*
D28*
X65595200Y-135060800D02*
X67255200Y-133400800D01*
D29*
X61819600Y-135060800D02*
X57286000Y-135060800D01*
D28*
X103022400Y-135940800D02*
X103022400Y-138836400D01*
X107990400Y-138836400D02*
X109012000Y-139858000D01*
X103073200Y-151638000D02*
X103073200Y-156068800D01*
D29*
X53782149Y-122239851D02*
X51358800Y-124663200D01*
X58107749Y-122239851D02*
X62085200Y-118262400D01*
D28*
X103022400Y-138836400D02*
X107990400Y-138836400D01*
D29*
X49580800Y-98958400D02*
X49580800Y-123139200D01*
D28*
X95808800Y-148234400D02*
X96824800Y-148234400D01*
X98653600Y-138836400D02*
X94818200Y-142671800D01*
X109012000Y-157084800D02*
X104089200Y-157084800D01*
X96824800Y-148234400D02*
X99669600Y-148234400D01*
X104089200Y-157084800D02*
X103073200Y-156068800D01*
D29*
X52628800Y-133451600D02*
X55676800Y-133451600D01*
D28*
X99669600Y-148234400D02*
X103073200Y-151638000D01*
D29*
X57195600Y-86156800D02*
X57195600Y-93776800D01*
X57195600Y-93776800D02*
X54762400Y-93776800D01*
D30*
X51104800Y-124663200D02*
X51358800Y-124663200D01*
D28*
X96738200Y-134228600D02*
X101310200Y-134228600D01*
D29*
X51358800Y-132181600D02*
X52628800Y-133451600D01*
X49580800Y-123139200D02*
X51104800Y-124663200D01*
D28*
X101310200Y-134228600D02*
X103022400Y-135940800D01*
X94488000Y-143002000D02*
X94488000Y-146913600D01*
D29*
X61819600Y-142610000D02*
X61772800Y-142656800D01*
X65978400Y-134677600D02*
X67255200Y-133400800D01*
D28*
X103022400Y-138836400D02*
X98653600Y-138836400D01*
X94488000Y-146913600D02*
X95808800Y-148234400D01*
D29*
X57286000Y-135060800D02*
X55676800Y-133451600D01*
X54762400Y-93776800D02*
X49580800Y-98958400D01*
D28*
X94818200Y-142671800D02*
X94488000Y-143002000D01*
D29*
X61819600Y-135060800D02*
X65595200Y-135060800D01*
X70404800Y-126657200D02*
X73313200Y-123748800D01*
D30*
X130444400Y-85242400D02*
X130454400Y-85252400D01*
D29*
X73313200Y-123748800D02*
X80059200Y-123748800D01*
X80059200Y-123748800D02*
X83058000Y-120750000D01*
X68918800Y-126657200D02*
X67255200Y-128320800D01*
X70404800Y-126657200D02*
X68918800Y-126657200D01*
X66395600Y-86156800D02*
X66395600Y-93776800D01*
D30*
X126746000Y-85242400D02*
X130444400Y-85242400D01*
D28*
X89204800Y-148234400D02*
X87122000Y-148234400D01*
X87122000Y-148234400D02*
X86004400Y-149352000D01*
X89118200Y-134228600D02*
X86497400Y-134228600D01*
X86497400Y-134228600D02*
X85699600Y-135026400D01*
X109012000Y-145084800D02*
X103897200Y-145084800D01*
X103897200Y-145084800D02*
X103073200Y-145908800D01*
X74422000Y-138836400D02*
X74422000Y-135382000D01*
X101041200Y-126695200D02*
X103022400Y-128676400D01*
X108193600Y-128676400D02*
X109012000Y-127858000D01*
X83108800Y-126695200D02*
X101041200Y-126695200D01*
X74422000Y-135382000D02*
X83108800Y-126695200D01*
X77368400Y-140258800D02*
X75844400Y-140258800D01*
X75844400Y-140258800D02*
X74422000Y-138836400D01*
X103022400Y-128676400D02*
X108193600Y-128676400D01*
X64058800Y-74523600D02*
X64058800Y-72085200D01*
X64058800Y-80721200D02*
X64058800Y-74523600D01*
X64058800Y-72085200D02*
X66144000Y-70000000D01*
X66144000Y-70000000D02*
X90000000Y-70000000D01*
X90000000Y-72540000D02*
X82552400Y-72540000D01*
X82552400Y-72540000D02*
X82550000Y-72542400D01*
X74681200Y-75080000D02*
X74676000Y-75085200D01*
X90000000Y-75080000D02*
X74681200Y-75080000D01*
X74114400Y-74523600D02*
X74676000Y-75085200D01*
X71678800Y-74523600D02*
X74114400Y-74523600D01*
X71695200Y-77620000D02*
X71678800Y-77636400D01*
X90000000Y-77620000D02*
X71695200Y-77620000D01*
X90000000Y-80160000D02*
X74681200Y-80160000D01*
X74120000Y-80721200D02*
X74676000Y-80165200D01*
X74681200Y-80160000D02*
X74676000Y-80165200D01*
X71678800Y-80721200D02*
X74120000Y-80721200D01*
X96774000Y-125745700D02*
X96774000Y-86410800D01*
X96774000Y-86410800D02*
X93063200Y-82700000D01*
X93063200Y-82700000D02*
X90000000Y-82700000D01*
X77165200Y-144475200D02*
X73050400Y-140360400D01*
X94183200Y-122631200D02*
X94183200Y-87680800D01*
X82143600Y-125120400D02*
X91694000Y-125120400D01*
X91742400Y-85240000D02*
X90000000Y-85240000D01*
X79298800Y-144475200D02*
X77165200Y-144475200D01*
X91694000Y-125120400D02*
X94183200Y-122631200D01*
X73050400Y-140360400D02*
X73050400Y-134213600D01*
X73050400Y-134213600D02*
X82143600Y-125120400D01*
X94183200Y-87680800D02*
X91742400Y-85240000D01*
X89992400Y-90312400D02*
X90000000Y-90320000D01*
X89992400Y-95392400D02*
X90000000Y-95400000D01*
X90000000Y-97940000D02*
X77327600Y-97940000D01*
X77327600Y-97940000D02*
X74785200Y-100482400D01*
X89997600Y-100482400D02*
X90000000Y-100480000D01*
X82600800Y-100482400D02*
X89997600Y-100482400D01*
X90000000Y-103020000D02*
X74787600Y-103020000D01*
X74787600Y-103020000D02*
X74785200Y-103022400D01*
X82550000Y-105562400D02*
X89997600Y-105562400D01*
X89997600Y-105562400D02*
X90000000Y-105560000D01*
X82552400Y-108100000D02*
X82550000Y-108102400D01*
X90000000Y-108100000D02*
X82552400Y-108100000D01*
X89997600Y-110642400D02*
X90000000Y-110640000D01*
X82550000Y-110642400D02*
X89997600Y-110642400D01*
X90000000Y-113180000D02*
X82552400Y-113180000D01*
X82552400Y-113180000D02*
X82550000Y-113182400D01*
X82550000Y-115722400D02*
X89997600Y-115722400D01*
X89997600Y-115722400D02*
X90000000Y-115720000D01*
X84429600Y-118922800D02*
X85598000Y-120091200D01*
X88088000Y-118260000D02*
X85598000Y-120750000D01*
X79756000Y-120243600D02*
X81076800Y-118922800D01*
X90000000Y-118260000D02*
X88088000Y-118260000D01*
X65328800Y-103022400D02*
X68427600Y-106121200D01*
X68427600Y-115722400D02*
X72948800Y-120243600D01*
X62085200Y-103022400D02*
X65328800Y-103022400D01*
X81076800Y-118922800D02*
X84429600Y-118922800D01*
X72948800Y-120243600D02*
X79756000Y-120243600D01*
X85598000Y-120091200D02*
X85598000Y-120750000D01*
X68427600Y-106121200D02*
X68427600Y-115722400D01*
X115402400Y-72542400D02*
X115400000Y-72540000D01*
X122940400Y-72542400D02*
X115402400Y-72542400D01*
X115400000Y-75080000D02*
X122938000Y-75080000D01*
X122938000Y-75080000D02*
X122940400Y-75082400D01*
X122940400Y-77622400D02*
X115402400Y-77622400D01*
X115402400Y-77622400D02*
X115400000Y-77620000D01*
D30*
X115400000Y-80160000D02*
X130442000Y-80160000D01*
X130442000Y-80160000D02*
X130454400Y-80172400D01*
X115412400Y-82712400D02*
X115400000Y-82700000D01*
X130454400Y-82712400D02*
X115412400Y-82712400D01*
D28*
X115400000Y-85240000D02*
X122722800Y-85240000D01*
X122722800Y-85240000D02*
X122732800Y-85250000D01*
X115400000Y-87780000D02*
X122722800Y-87780000D01*
X122722800Y-87780000D02*
X122732800Y-87790000D01*
X115410000Y-90330000D02*
X115400000Y-90320000D01*
X122732800Y-90330000D02*
X115410000Y-90330000D01*
X115400000Y-92860000D02*
X122722800Y-92860000D01*
X122722800Y-92860000D02*
X122732800Y-92870000D01*
X115410000Y-95410000D02*
X115400000Y-95400000D01*
X122732800Y-95410000D02*
X115410000Y-95410000D01*
X115400000Y-97940000D02*
X122722800Y-97940000D01*
X122722800Y-97940000D02*
X122732800Y-97950000D01*
X115410000Y-100490000D02*
X115400000Y-100480000D01*
X122732800Y-100490000D02*
X115410000Y-100490000D01*
X122722800Y-103020000D02*
X122732800Y-103030000D01*
X115400000Y-103020000D02*
X122722800Y-103020000D01*
X115410000Y-105570000D02*
X115400000Y-105560000D01*
X122732800Y-105570000D02*
X115410000Y-105570000D01*
X122722800Y-108100000D02*
X122732800Y-108110000D01*
X115400000Y-108100000D02*
X122722800Y-108100000D01*
X122732800Y-110650000D02*
X115410000Y-110650000D01*
X115410000Y-110650000D02*
X115400000Y-110640000D01*
X115400000Y-113180000D02*
X122722800Y-113180000D01*
X122722800Y-113180000D02*
X122732800Y-113190000D01*
X115410000Y-115730000D02*
X115400000Y-115720000D01*
X122732800Y-115730000D02*
X115410000Y-115730000D01*
X122722800Y-118260000D02*
X122732800Y-118270000D01*
X115400000Y-118260000D02*
X122722800Y-118260000D01*
X115410000Y-120810000D02*
X115400000Y-120800000D01*
X122732800Y-120810000D02*
X115410000Y-120810000D01*
D29*
X128772400Y-139858000D02*
X129692400Y-138938000D01*
X121212000Y-139858000D02*
X128772400Y-139858000D01*
X129692400Y-133858000D02*
X107012000Y-133858000D01*
X121212000Y-127858000D02*
X128772400Y-127858000D01*
X128772400Y-127858000D02*
X129692400Y-128778000D01*
X62085200Y-110642400D02*
X54406800Y-110642400D01*
X62085200Y-105562400D02*
X54406800Y-105562400D01*
D28*
X74785200Y-110642400D02*
X78073600Y-110642400D01*
X78073600Y-110642400D02*
X78333600Y-110382400D01*
X78073600Y-113182400D02*
X78333600Y-112922400D01*
X74785200Y-113182400D02*
X78073600Y-113182400D01*
X74785200Y-115722400D02*
X78073600Y-115722400D01*
X78073600Y-115722400D02*
X78333600Y-115462400D01*
X78073600Y-118262400D02*
X78333600Y-118002400D01*
X74785200Y-118262400D02*
X78073600Y-118262400D01*
D29*
X128778000Y-157084800D02*
X129692400Y-156170400D01*
X121212000Y-157084800D02*
X128778000Y-157084800D01*
X129692400Y-151090400D02*
X107017600Y-151090400D01*
X107017600Y-151090400D02*
X107012000Y-151084800D01*
X121212000Y-145084800D02*
X128766800Y-145084800D01*
X128766800Y-145084800D02*
X129692400Y-146010400D01*
D28*
X82550000Y-154279600D02*
X81026000Y-154279600D01*
X81026000Y-154279600D02*
X80314800Y-154990800D01*
X79908400Y-137718800D02*
X79908400Y-137769600D01*
X79908400Y-137769600D02*
X82245200Y-140106400D01*
X87985600Y-144475200D02*
X89204800Y-145694400D01*
X86918800Y-144475200D02*
X87985600Y-144475200D01*
X89159000Y-131647800D02*
X89118200Y-131688600D01*
X89159000Y-128473200D02*
X89159000Y-131647800D01*
X99669600Y-144475200D02*
X98044000Y-144475200D01*
X98044000Y-144475200D02*
X96824800Y-145694400D01*
X99669600Y-152095200D02*
X98145600Y-152095200D01*
X90170000Y-154279600D02*
X93319600Y-154279600D01*
X98145600Y-152095200D02*
X96824800Y-150774400D01*
X93319600Y-154279600D02*
X96824800Y-150774400D01*
X98130600Y-131688600D02*
X96738200Y-131688600D01*
X99466400Y-130352800D02*
X98130600Y-131688600D01*
X99466400Y-128574800D02*
X99466400Y-130352800D01*
X96738200Y-136768600D02*
X98892600Y-136768600D01*
X93400400Y-140106400D02*
X96738200Y-136768600D01*
X98892600Y-136768600D02*
X99466400Y-136194800D01*
X89865200Y-140106400D02*
X93400400Y-140106400D01*
X74785200Y-105562400D02*
X74785200Y-108102400D01*
M02*
