M48
; DRILL file {KiCad 7.0.5} date Fri Jul 21 20:52:28 2023
; FORMAT={-:-/ absolute / metric / decimal}
; #@! TF.CreationDate,2023-07-21T20:52:28-04:00
; #@! TF.GenerationSoftware,Kicad,Pcbnew,7.0.5
; #@! TF.FileFunction,Plated,1,2,PTH
FMAT,2
METRIC
; #@! TA.AperFunction,Plated,PTH,ViaDrill
T1C0.400
; #@! TA.AperFunction,Plated,PTH,ComponentDrill
T2C0.800
; #@! TA.AperFunction,Plated,PTH,ComponentDrill
T3C0.900
; #@! TA.AperFunction,Plated,PTH,ComponentDrill
T4C1.000
; #@! TA.AperFunction,Plated,PTH,ComponentDrill
T5C1.100
; #@! TA.AperFunction,Plated,PTH,ComponentDrill
T6C1.300
; #@! TA.AperFunction,Plated,PTH,ComponentDrill
T7C1.520
%
G90
G05
T1
X96.774Y-125.746
T2
X55.728Y-117.24
X55.728Y-122.24
X61.82Y-130.061
X61.82Y-135.061
X62.085Y-100.482
X62.085Y-103.022
X62.085Y-105.562
X62.085Y-108.102
X62.085Y-110.642
X62.085Y-113.182
X62.085Y-115.722
X62.085Y-118.262
X64.059Y-74.524
X64.059Y-77.636
X64.059Y-80.721
X70.405Y-126.657
X70.405Y-131.657
X71.679Y-74.524
X71.679Y-77.636
X71.679Y-80.721
X74.785Y-100.482
X74.785Y-103.022
X74.785Y-105.562
X74.785Y-108.102
X74.785Y-110.642
X74.785Y-113.182
X74.785Y-115.722
X74.785Y-118.262
X77.368Y-135.179
X77.368Y-140.259
X77.775Y-152.451
X77.775Y-157.531
X79.299Y-144.475
X79.908Y-137.719
X80.315Y-154.991
X82.245Y-140.106
X82.55Y-154.28
X86.919Y-144.475
X89.118Y-131.689
X89.118Y-134.229
X89.118Y-136.769
X89.159Y-128.473
X89.205Y-145.694
X89.205Y-148.234
X89.205Y-150.774
X89.865Y-140.106
X90.17Y-154.28
X96.738Y-131.689
X96.738Y-134.229
X96.738Y-136.769
X96.779Y-128.473
X96.825Y-145.694
X96.825Y-148.234
X96.825Y-150.774
X99.466Y-128.575
X99.466Y-136.195
X99.67Y-144.475
X99.67Y-152.095
T3
X83.16Y-135.026
X83.464Y-149.352
X85.7Y-135.026
X86.004Y-149.352
X103.022Y-128.676
X103.022Y-138.836
X103.073Y-145.909
X103.073Y-156.069
T4
X54.407Y-105.562
X54.407Y-108.102
X54.407Y-110.642
X54.407Y-113.182
X57.196Y-86.157
X57.196Y-88.697
X57.196Y-91.237
X57.196Y-93.777
X57.302Y-74.828
X57.302Y-77.368
X57.302Y-79.908
X58.318Y-105.562
X58.318Y-108.102
X58.318Y-110.642
X58.318Y-113.182
X60.994Y-74.828
X60.994Y-77.368
X60.994Y-79.908
X61.796Y-86.157
X61.796Y-88.697
X61.796Y-91.237
X61.796Y-93.777
X66.396Y-86.157
X66.396Y-88.697
X66.396Y-91.237
X66.396Y-93.777
X74.676Y-75.085
X74.676Y-77.625
X74.676Y-80.165
X78.334Y-75.082
X78.334Y-77.622
X78.334Y-80.162
X78.334Y-110.382
X78.334Y-112.922
X78.334Y-115.462
X78.334Y-118.002
X82.525Y-87.772
X82.525Y-90.312
X82.525Y-92.852
X82.525Y-95.392
X82.55Y-72.542
X82.55Y-105.562
X82.55Y-108.102
X82.55Y-110.642
X82.55Y-113.182
X82.55Y-115.722
X82.601Y-100.482
X83.058Y-120.75
X85.598Y-120.75
X86.258Y-72.542
X86.258Y-87.772
X86.258Y-90.312
X86.258Y-92.852
X86.258Y-95.392
X86.258Y-100.482
X86.286Y-105.562
X86.286Y-108.102
X86.286Y-110.642
X86.286Y-113.182
X86.286Y-115.722
X90.0Y-70.0
X90.0Y-72.54
X90.0Y-75.08
X90.0Y-77.62
X90.0Y-80.16
X90.0Y-82.7
X90.0Y-85.24
X90.0Y-87.78
X90.0Y-90.32
X90.0Y-92.86
X90.0Y-95.4
X90.0Y-97.94
X90.0Y-100.48
X90.0Y-103.02
X90.0Y-105.56
X90.0Y-108.1
X90.0Y-110.64
X90.0Y-113.18
X90.0Y-115.72
X90.0Y-118.26
X90.0Y-120.8
X115.4Y-70.0
X115.4Y-72.54
X115.4Y-75.08
X115.4Y-77.62
X115.4Y-80.16
X115.4Y-82.7
X115.4Y-85.24
X115.4Y-87.78
X115.4Y-90.32
X115.4Y-92.86
X115.4Y-95.4
X115.4Y-97.94
X115.4Y-100.48
X115.4Y-103.02
X115.4Y-105.56
X115.4Y-108.1
X115.4Y-110.64
X115.4Y-113.18
X115.4Y-115.72
X115.4Y-118.26
X115.4Y-120.8
X119.024Y-85.2
X119.024Y-87.74
X119.024Y-90.28
X119.024Y-92.82
X119.024Y-95.36
X119.024Y-97.9
X119.024Y-100.44
X119.024Y-102.98
X119.024Y-105.52
X119.024Y-108.06
X119.024Y-110.6
X119.024Y-113.14
X119.024Y-115.68
X119.024Y-118.22
X119.024Y-120.76
X119.177Y-72.55
X119.177Y-75.09
X119.177Y-77.63
X122.733Y-85.25
X122.733Y-87.79
X122.733Y-90.33
X122.733Y-92.87
X122.733Y-95.41
X122.733Y-97.95
X122.733Y-100.49
X122.733Y-103.03
X122.733Y-105.57
X122.733Y-108.11
X122.733Y-110.65
X122.733Y-113.19
X122.733Y-115.73
X122.733Y-118.27
X122.733Y-120.81
X122.94Y-72.542
X122.94Y-75.082
X122.94Y-77.622
X126.746Y-77.622
X126.746Y-80.162
X126.746Y-82.702
X126.746Y-85.242
X130.454Y-77.632
X130.454Y-80.172
X130.454Y-82.712
X130.454Y-85.252
T5
X67.255Y-128.321
X67.255Y-130.861
X67.255Y-133.401
T6
X107.012Y-133.858
X107.012Y-151.085
X109.012Y-127.858
X109.012Y-139.858
X109.012Y-145.085
X109.012Y-157.085
X121.212Y-127.858
X121.212Y-139.858
X121.212Y-145.085
X121.212Y-157.085
T7
X55.677Y-128.372
X55.677Y-133.452
X129.692Y-128.778
X129.692Y-133.858
X129.692Y-138.938
X129.692Y-146.01
X129.692Y-151.09
X129.692Y-156.17
T4
X55.473Y-141.557G85X55.473Y-143.757
G05
X59.973Y-147.457G85X57.773Y-147.457
G05
X61.773Y-141.357G85X61.773Y-143.957
G05
T0
M30
