%TF.GenerationSoftware,KiCad,Pcbnew,(6.0.8)*%
%TF.CreationDate,2023-03-21T03:17:26-04:00*%
%TF.ProjectId,pcb de prueba de dispositivos,70636220-6465-4207-9072-756562612064,rev?*%
%TF.SameCoordinates,Original*%
%TF.FileFunction,Drillmap*%
%TF.FilePolarity,Positive*%
%FSLAX45Y45*%
G04 Gerber Fmt 4.5, Leading zero omitted, Abs format (unit mm)*
G04 Created by KiCad (PCBNEW (6.0.8)) date 2023-03-21 03:17:26*
%MOMM*%
%LPD*%
G01*
G04 APERTURE LIST*
%ADD10C,0.200000*%
%ADD11C,0.100000*%
%ADD12C,0.070000*%
%ADD13C,0.076200*%
%ADD14C,0.080000*%
%ADD15C,0.090000*%
%ADD16C,0.095000*%
%ADD17C,0.110000*%
%ADD18C,0.130000*%
%ADD19C,0.152000*%
G04 APERTURE END LIST*
D10*
X10117513Y-8650000D02*
G75*
G03*
X10117513Y-8650000I-239174J0D01*
G01*
D11*
X18512500Y-16380000D02*
X18507500Y-2375000D01*
D10*
X3892501Y-2711661D02*
G75*
G03*
X3892501Y-2711661I-242502J0D01*
G01*
D11*
X18130000Y-11620000D02*
X18130000Y-16380000D01*
X3220000Y-16380000D02*
X15550000Y-16380000D01*
X15550000Y-16380000D02*
X15550000Y-11620000D01*
X3220000Y-2375000D02*
X3220000Y-16380000D01*
X15550000Y-11620000D02*
X18130000Y-11620000D01*
D10*
X14832552Y-15990000D02*
G75*
G03*
X14832552Y-15990000I-240891J0D01*
G01*
D11*
X18507500Y-2375000D02*
X3220000Y-2375000D01*
D10*
X18000116Y-2690000D02*
G75*
G03*
X18000116Y-2690000I-241777J0D01*
G01*
X4867513Y-16020000D02*
G75*
G03*
X4867513Y-16020000I-239174J0D01*
G01*
D11*
X18130000Y-16380000D02*
X18512500Y-16380000D01*
D10*
D12*
X4775000Y-14438000D02*
X4845000Y-14508000D01*
X4845000Y-14438000D02*
X4775000Y-14508000D01*
X4775000Y-15200000D02*
X4845000Y-15270000D01*
X4845000Y-15200000D02*
X4775000Y-15270000D01*
X5537000Y-14438000D02*
X5607000Y-14508000D01*
X5607000Y-14438000D02*
X5537000Y-14508000D01*
X5537000Y-15200000D02*
X5607000Y-15270000D01*
X5607000Y-15200000D02*
X5537000Y-15270000D01*
X6045000Y-14438000D02*
X6115000Y-14508000D01*
X6115000Y-14438000D02*
X6045000Y-14508000D01*
X6045000Y-15200000D02*
X6115000Y-15270000D01*
X6115000Y-15200000D02*
X6045000Y-15270000D01*
X6553000Y-14438000D02*
X6623000Y-14508000D01*
X6623000Y-14438000D02*
X6553000Y-14508000D01*
X6553000Y-15200000D02*
X6623000Y-15270000D01*
X6623000Y-15200000D02*
X6553000Y-15270000D01*
D13*
X13011300Y-7213500D02*
G75*
G03*
X13011300Y-7213500I-38100J0D01*
G01*
X13011300Y-7467500D02*
G75*
G03*
X13011300Y-7467500I-38100J0D01*
G01*
X13011300Y-7721500D02*
G75*
G03*
X13011300Y-7721500I-38100J0D01*
G01*
D14*
X3417500Y-6469500D02*
X3417500Y-6549500D01*
X3377500Y-6509500D02*
X3457500Y-6509500D01*
X3417500Y-7485500D02*
X3417500Y-7565500D01*
X3377500Y-7525500D02*
X3457500Y-7525500D01*
X3522500Y-3834500D02*
X3522500Y-3914500D01*
X3482500Y-3874500D02*
X3562500Y-3874500D01*
X3522500Y-4850500D02*
X3522500Y-4930500D01*
X3482500Y-4890500D02*
X3562500Y-4890500D01*
X3679000Y-10742500D02*
X3679000Y-10822500D01*
X3639000Y-10782500D02*
X3719000Y-10782500D01*
X3679000Y-11052500D02*
X3679000Y-11132500D01*
X3639000Y-11092500D02*
X3719000Y-11092500D01*
X3725000Y-6471500D02*
X3725000Y-6551500D01*
X3685000Y-6511500D02*
X3765000Y-6511500D01*
X3725000Y-7487500D02*
X3725000Y-7567500D01*
X3685000Y-7527500D02*
X3765000Y-7527500D01*
X3750000Y-11815000D02*
X3750000Y-11895000D01*
X3710000Y-11855000D02*
X3790000Y-11855000D01*
X3750000Y-12315000D02*
X3750000Y-12395000D01*
X3710000Y-12355000D02*
X3790000Y-12355000D01*
X3840000Y-3834000D02*
X3840000Y-3914000D01*
X3800000Y-3874000D02*
X3880000Y-3874000D01*
X3840000Y-4850000D02*
X3840000Y-4930000D01*
X3800000Y-4890000D02*
X3880000Y-4890000D01*
X3910000Y-14082500D02*
X3910000Y-14162500D01*
X3870000Y-14122500D02*
X3950000Y-14122500D01*
X3910000Y-15098500D02*
X3910000Y-15178500D01*
X3870000Y-15138500D02*
X3950000Y-15138500D01*
X4025000Y-6471500D02*
X4025000Y-6551500D01*
X3985000Y-6511500D02*
X4065000Y-6511500D01*
X4025000Y-7487500D02*
X4025000Y-7567500D01*
X3985000Y-7527500D02*
X4065000Y-7527500D01*
X4067500Y-11680500D02*
X4067500Y-11760500D01*
X4027500Y-11720500D02*
X4107500Y-11720500D01*
X4067500Y-12442500D02*
X4067500Y-12522500D01*
X4027500Y-12482500D02*
X4107500Y-12482500D01*
X4150000Y-3834500D02*
X4150000Y-3914500D01*
X4110000Y-3874500D02*
X4190000Y-3874500D01*
X4150000Y-4850500D02*
X4150000Y-4930500D01*
X4110000Y-4890500D02*
X4190000Y-4890500D01*
X4168500Y-14641500D02*
X4168500Y-14721500D01*
X4128500Y-14681500D02*
X4208500Y-14681500D01*
X4321500Y-11680500D02*
X4321500Y-11760500D01*
X4281500Y-11720500D02*
X4361500Y-11720500D01*
X4321500Y-12442500D02*
X4321500Y-12522500D01*
X4281500Y-12482500D02*
X4361500Y-12482500D01*
X4325000Y-6471500D02*
X4325000Y-6551500D01*
X4285000Y-6511500D02*
X4365000Y-6511500D01*
X4325000Y-7487500D02*
X4325000Y-7567500D01*
X4285000Y-7527500D02*
X4365000Y-7527500D01*
X4340000Y-9459500D02*
X4340000Y-9539500D01*
X4300000Y-9499500D02*
X4380000Y-9499500D01*
X4340000Y-10475500D02*
X4340000Y-10555500D01*
X4300000Y-10515500D02*
X4380000Y-10515500D01*
X4422500Y-14387500D02*
X4422500Y-14467500D01*
X4382500Y-14427500D02*
X4462500Y-14427500D01*
X4422500Y-14895500D02*
X4422500Y-14975500D01*
X4382500Y-14935500D02*
X4462500Y-14935500D01*
X4467000Y-14125000D02*
X4467000Y-14205000D01*
X4427000Y-14165000D02*
X4507000Y-14165000D01*
X4469500Y-15502500D02*
X4469500Y-15582500D01*
X4429500Y-15542500D02*
X4509500Y-15542500D01*
X4575500Y-11680500D02*
X4575500Y-11760500D01*
X4535500Y-11720500D02*
X4615500Y-11720500D01*
X4575500Y-12442500D02*
X4575500Y-12522500D01*
X4535500Y-12482500D02*
X4615500Y-12482500D01*
X4625000Y-6472000D02*
X4625000Y-6552000D01*
X4585000Y-6512000D02*
X4665000Y-6512000D01*
X4625000Y-7488000D02*
X4625000Y-7568000D01*
X4585000Y-7528000D02*
X4665000Y-7528000D01*
X4650000Y-9462000D02*
X4650000Y-9542000D01*
X4610000Y-9502000D02*
X4690000Y-9502000D01*
X4650000Y-10478000D02*
X4650000Y-10558000D01*
X4610000Y-10518000D02*
X4690000Y-10518000D01*
X4660000Y-3270000D02*
X4660000Y-3350000D01*
X4620000Y-3310000D02*
X4700000Y-3310000D01*
X4660000Y-3524000D02*
X4660000Y-3604000D01*
X4620000Y-3564000D02*
X4700000Y-3564000D01*
X4660000Y-3778000D02*
X4660000Y-3858000D01*
X4620000Y-3818000D02*
X4700000Y-3818000D01*
X4660000Y-4032000D02*
X4660000Y-4112000D01*
X4620000Y-4072000D02*
X4700000Y-4072000D01*
X4660000Y-4286000D02*
X4660000Y-4366000D01*
X4620000Y-4326000D02*
X4700000Y-4326000D01*
X4660000Y-4540000D02*
X4660000Y-4620000D01*
X4620000Y-4580000D02*
X4700000Y-4580000D01*
X4660000Y-4794000D02*
X4660000Y-4874000D01*
X4620000Y-4834000D02*
X4700000Y-4834000D01*
X4695000Y-10742500D02*
X4695000Y-10822500D01*
X4655000Y-10782500D02*
X4735000Y-10782500D01*
X4695000Y-11052500D02*
X4695000Y-11132500D01*
X4655000Y-11092500D02*
X4735000Y-11092500D01*
X4790000Y-2885000D02*
X4790000Y-2965000D01*
X4750000Y-2925000D02*
X4830000Y-2925000D01*
X4829500Y-11680500D02*
X4829500Y-11760500D01*
X4789500Y-11720500D02*
X4869500Y-11720500D01*
X4829500Y-12442500D02*
X4829500Y-12522500D01*
X4789500Y-12482500D02*
X4869500Y-12482500D01*
X4925000Y-6472000D02*
X4925000Y-6552000D01*
X4885000Y-6512000D02*
X4965000Y-6512000D01*
X4925000Y-7488000D02*
X4925000Y-7568000D01*
X4885000Y-7528000D02*
X4965000Y-7528000D01*
X4955000Y-9512500D02*
X4955000Y-9592500D01*
X4915000Y-9552500D02*
X4995000Y-9552500D01*
X4955000Y-9766500D02*
X4955000Y-9846500D01*
X4915000Y-9806500D02*
X4995000Y-9806500D01*
X4955000Y-10020500D02*
X4955000Y-10100500D01*
X4915000Y-10060500D02*
X4995000Y-10060500D01*
X4955000Y-10274500D02*
X4955000Y-10354500D01*
X4915000Y-10314500D02*
X4995000Y-10314500D01*
X4955000Y-10528500D02*
X4955000Y-10608500D01*
X4915000Y-10568500D02*
X4995000Y-10568500D01*
X4955000Y-10782500D02*
X4955000Y-10862500D01*
X4915000Y-10822500D02*
X4995000Y-10822500D01*
X4955000Y-11036500D02*
X4955000Y-11116500D01*
X4915000Y-11076500D02*
X4995000Y-11076500D01*
X5083500Y-11680500D02*
X5083500Y-11760500D01*
X5043500Y-11720500D02*
X5123500Y-11720500D01*
X5083500Y-12442500D02*
X5083500Y-12522500D01*
X5043500Y-12482500D02*
X5123500Y-12482500D01*
X5087500Y-9197500D02*
X5087500Y-9277500D01*
X5047500Y-9237500D02*
X5127500Y-9237500D01*
X5225000Y-6472000D02*
X5225000Y-6552000D01*
X5185000Y-6512000D02*
X5265000Y-6512000D01*
X5225000Y-7488000D02*
X5225000Y-7568000D01*
X5185000Y-7528000D02*
X5265000Y-7528000D01*
X5290000Y-2885000D02*
X5290000Y-2965000D01*
X5250000Y-2925000D02*
X5330000Y-2925000D01*
X5337500Y-11680500D02*
X5337500Y-11760500D01*
X5297500Y-11720500D02*
X5377500Y-11720500D01*
X5337500Y-12442500D02*
X5337500Y-12522500D01*
X5297500Y-12482500D02*
X5377500Y-12482500D01*
X5422000Y-3270000D02*
X5422000Y-3350000D01*
X5382000Y-3310000D02*
X5462000Y-3310000D01*
X5422000Y-3524000D02*
X5422000Y-3604000D01*
X5382000Y-3564000D02*
X5462000Y-3564000D01*
X5422000Y-3778000D02*
X5422000Y-3858000D01*
X5382000Y-3818000D02*
X5462000Y-3818000D01*
X5422000Y-4032000D02*
X5422000Y-4112000D01*
X5382000Y-4072000D02*
X5462000Y-4072000D01*
X5422000Y-4286000D02*
X5422000Y-4366000D01*
X5382000Y-4326000D02*
X5462000Y-4326000D01*
X5422000Y-4540000D02*
X5422000Y-4620000D01*
X5382000Y-4580000D02*
X5462000Y-4580000D01*
X5422000Y-4794000D02*
X5422000Y-4874000D01*
X5382000Y-4834000D02*
X5462000Y-4834000D01*
X5483000Y-14125000D02*
X5483000Y-14205000D01*
X5443000Y-14165000D02*
X5523000Y-14165000D01*
X5485500Y-15502500D02*
X5485500Y-15582500D01*
X5445500Y-15542500D02*
X5525500Y-15542500D01*
X5525000Y-6471500D02*
X5525000Y-6551500D01*
X5485000Y-6511500D02*
X5565000Y-6511500D01*
X5525000Y-7487500D02*
X5525000Y-7567500D01*
X5485000Y-7527500D02*
X5565000Y-7527500D01*
X5587500Y-9197500D02*
X5587500Y-9277500D01*
X5547500Y-9237500D02*
X5627500Y-9237500D01*
X5591500Y-11680500D02*
X5591500Y-11760500D01*
X5551500Y-11720500D02*
X5631500Y-11720500D01*
X5591500Y-12442500D02*
X5591500Y-12522500D01*
X5551500Y-12482500D02*
X5631500Y-12482500D01*
X5717000Y-9512500D02*
X5717000Y-9592500D01*
X5677000Y-9552500D02*
X5757000Y-9552500D01*
X5717000Y-9766500D02*
X5717000Y-9846500D01*
X5677000Y-9806500D02*
X5757000Y-9806500D01*
X5717000Y-10020500D02*
X5717000Y-10100500D01*
X5677000Y-10060500D02*
X5757000Y-10060500D01*
X5717000Y-10274500D02*
X5717000Y-10354500D01*
X5677000Y-10314500D02*
X5757000Y-10314500D01*
X5717000Y-10528500D02*
X5717000Y-10608500D01*
X5677000Y-10568500D02*
X5757000Y-10568500D01*
X5717000Y-10782500D02*
X5717000Y-10862500D01*
X5677000Y-10822500D02*
X5757000Y-10822500D01*
X5717000Y-11036500D02*
X5717000Y-11116500D01*
X5677000Y-11076500D02*
X5757000Y-11076500D01*
X5825000Y-6471500D02*
X5825000Y-6551500D01*
X5785000Y-6511500D02*
X5865000Y-6511500D01*
X5825000Y-7487500D02*
X5825000Y-7567500D01*
X5785000Y-7527500D02*
X5865000Y-7527500D01*
X5845500Y-11680500D02*
X5845500Y-11760500D01*
X5805500Y-11720500D02*
X5885500Y-11720500D01*
X5845500Y-12442500D02*
X5845500Y-12522500D01*
X5805500Y-12482500D02*
X5885500Y-12482500D01*
X5925000Y-3837000D02*
X5925000Y-3917000D01*
X5885000Y-3877000D02*
X5965000Y-3877000D01*
X5925000Y-4853000D02*
X5925000Y-4933000D01*
X5885000Y-4893000D02*
X5965000Y-4893000D01*
X5977000Y-9797500D02*
X5977000Y-9877500D01*
X5937000Y-9837500D02*
X6017000Y-9837500D01*
X5977500Y-9490000D02*
X5977500Y-9570000D01*
X5937500Y-9530000D02*
X6017500Y-9530000D01*
X6022500Y-10059500D02*
X6022500Y-10139500D01*
X5982500Y-10099500D02*
X6062500Y-10099500D01*
X6022500Y-11075500D02*
X6022500Y-11155500D01*
X5982500Y-11115500D02*
X6062500Y-11115500D01*
X6125000Y-6471500D02*
X6125000Y-6551500D01*
X6085000Y-6511500D02*
X6165000Y-6511500D01*
X6125000Y-7487500D02*
X6125000Y-7567500D01*
X6085000Y-7527500D02*
X6165000Y-7527500D01*
X6160000Y-11467000D02*
X6160000Y-11547000D01*
X6120000Y-11507000D02*
X6200000Y-11507000D01*
X6160000Y-12483000D02*
X6160000Y-12563000D01*
X6120000Y-12523000D02*
X6200000Y-12523000D01*
X6237500Y-3837000D02*
X6237500Y-3917000D01*
X6197500Y-3877000D02*
X6277500Y-3877000D01*
X6237500Y-4853000D02*
X6237500Y-4933000D01*
X6197500Y-4893000D02*
X6277500Y-4893000D01*
X6332500Y-10059500D02*
X6332500Y-10139500D01*
X6292500Y-10099500D02*
X6372500Y-10099500D01*
X6332500Y-11075500D02*
X6332500Y-11155500D01*
X6292500Y-11115500D02*
X6372500Y-11115500D01*
X6425000Y-6471500D02*
X6425000Y-6551500D01*
X6385000Y-6511500D02*
X6465000Y-6511500D01*
X6425000Y-7487500D02*
X6425000Y-7567500D01*
X6385000Y-7527500D02*
X6465000Y-7527500D01*
X6472500Y-11467000D02*
X6472500Y-11547000D01*
X6432500Y-11507000D02*
X6512500Y-11507000D01*
X6472500Y-12483000D02*
X6472500Y-12563000D01*
X6432500Y-12523000D02*
X6512500Y-12523000D01*
X6555000Y-3836500D02*
X6555000Y-3916500D01*
X6515000Y-3876500D02*
X6595000Y-3876500D01*
X6555000Y-4852500D02*
X6555000Y-4932500D01*
X6515000Y-4892500D02*
X6595000Y-4892500D01*
X6727500Y-6950000D02*
X6727500Y-7030000D01*
X6687500Y-6990000D02*
X6767500Y-6990000D01*
X6727500Y-7204000D02*
X6727500Y-7284000D01*
X6687500Y-7244000D02*
X6767500Y-7244000D01*
X6727500Y-7458000D02*
X6727500Y-7538000D01*
X6687500Y-7498000D02*
X6767500Y-7498000D01*
X6727500Y-7712000D02*
X6727500Y-7792000D01*
X6687500Y-7752000D02*
X6767500Y-7752000D01*
X6727500Y-7966000D02*
X6727500Y-8046000D01*
X6687500Y-8006000D02*
X6767500Y-8006000D01*
X6727500Y-8220000D02*
X6727500Y-8300000D01*
X6687500Y-8260000D02*
X6767500Y-8260000D01*
X6727500Y-8474000D02*
X6727500Y-8554000D01*
X6687500Y-8514000D02*
X6767500Y-8514000D01*
X6727500Y-8728000D02*
X6727500Y-8808000D01*
X6687500Y-8768000D02*
X6767500Y-8768000D01*
X6782500Y-11467000D02*
X6782500Y-11547000D01*
X6742500Y-11507000D02*
X6822500Y-11507000D01*
X6782500Y-12483000D02*
X6782500Y-12563000D01*
X6742500Y-12523000D02*
X6822500Y-12523000D01*
X6993000Y-9797500D02*
X6993000Y-9877500D01*
X6953000Y-9837500D02*
X7033000Y-9837500D01*
X6993500Y-9490000D02*
X6993500Y-9570000D01*
X6953500Y-9530000D02*
X7033500Y-9530000D01*
X6995000Y-3874500D02*
X6995000Y-3954500D01*
X6955000Y-3914500D02*
X7035000Y-3914500D01*
X6995000Y-4890500D02*
X6995000Y-4970500D01*
X6955000Y-4930500D02*
X7035000Y-4930500D01*
X7060000Y-6520000D02*
X7060000Y-6600000D01*
X7020000Y-6560000D02*
X7100000Y-6560000D01*
X7217250Y-11777000D02*
X7217250Y-11857000D01*
X7177250Y-11817000D02*
X7257250Y-11817000D01*
X7217250Y-12031000D02*
X7217250Y-12111000D01*
X7177250Y-12071000D02*
X7257250Y-12071000D01*
X7217250Y-12285000D02*
X7217250Y-12365000D01*
X7177250Y-12325000D02*
X7257250Y-12325000D01*
X7302500Y-3874500D02*
X7302500Y-3954500D01*
X7262500Y-3914500D02*
X7342500Y-3914500D01*
X7302500Y-4890500D02*
X7302500Y-4970500D01*
X7262500Y-4930500D02*
X7342500Y-4930500D01*
X7461500Y-15805000D02*
X7461500Y-15885000D01*
X7421500Y-15845000D02*
X7501500Y-15845000D01*
X7489500Y-6950000D02*
X7489500Y-7030000D01*
X7449500Y-6990000D02*
X7529500Y-6990000D01*
X7489500Y-7204000D02*
X7489500Y-7284000D01*
X7449500Y-7244000D02*
X7529500Y-7244000D01*
X7489500Y-7458000D02*
X7489500Y-7538000D01*
X7449500Y-7498000D02*
X7529500Y-7498000D01*
X7489500Y-7712000D02*
X7489500Y-7792000D01*
X7449500Y-7752000D02*
X7529500Y-7752000D01*
X7489500Y-7966000D02*
X7489500Y-8046000D01*
X7449500Y-8006000D02*
X7529500Y-8006000D01*
X7489500Y-8220000D02*
X7489500Y-8300000D01*
X7449500Y-8260000D02*
X7529500Y-8260000D01*
X7489500Y-8474000D02*
X7489500Y-8554000D01*
X7449500Y-8514000D02*
X7529500Y-8514000D01*
X7489500Y-8728000D02*
X7489500Y-8808000D01*
X7449500Y-8768000D02*
X7529500Y-8768000D01*
X7560000Y-6520000D02*
X7560000Y-6600000D01*
X7520000Y-6560000D02*
X7600000Y-6560000D01*
X7590000Y-9482500D02*
X7590000Y-9562500D01*
X7550000Y-9522500D02*
X7630000Y-9522500D01*
X7590000Y-10498500D02*
X7590000Y-10578500D01*
X7550000Y-10538500D02*
X7630000Y-10538500D01*
X7617500Y-3874000D02*
X7617500Y-3954000D01*
X7577500Y-3914000D02*
X7657500Y-3914000D01*
X7617500Y-4890000D02*
X7617500Y-4970000D01*
X7577500Y-4930000D02*
X7657500Y-4930000D01*
X7799500Y-8532750D02*
X7799500Y-8612750D01*
X7759500Y-8572750D02*
X7839500Y-8572750D01*
X7900000Y-9482500D02*
X7900000Y-9562500D01*
X7860000Y-9522500D02*
X7940000Y-9522500D01*
X7900000Y-10498500D02*
X7900000Y-10578500D01*
X7860000Y-10538500D02*
X7940000Y-10538500D01*
X7979250Y-11777000D02*
X7979250Y-11857000D01*
X7939250Y-11817000D02*
X8019250Y-11817000D01*
X7979250Y-12031000D02*
X7979250Y-12111000D01*
X7939250Y-12071000D02*
X8019250Y-12071000D01*
X7979250Y-12285000D02*
X7979250Y-12365000D01*
X7939250Y-12325000D02*
X8019250Y-12325000D01*
X8072500Y-7155761D02*
X8072500Y-7235761D01*
X8032500Y-7195761D02*
X8112500Y-7195761D01*
X8072500Y-7405761D02*
X8072500Y-7485761D01*
X8032500Y-7445761D02*
X8112500Y-7445761D01*
X8107500Y-3309500D02*
X8107500Y-3389500D01*
X8067500Y-3349500D02*
X8147500Y-3349500D01*
X8107500Y-3563500D02*
X8107500Y-3643500D01*
X8067500Y-3603500D02*
X8147500Y-3603500D01*
X8107500Y-3817500D02*
X8107500Y-3897500D01*
X8067500Y-3857500D02*
X8147500Y-3857500D01*
X8107500Y-4071500D02*
X8107500Y-4151500D01*
X8067500Y-4111500D02*
X8147500Y-4111500D01*
X8107500Y-4325500D02*
X8107500Y-4405500D01*
X8067500Y-4365500D02*
X8147500Y-4365500D01*
X8107500Y-4579500D02*
X8107500Y-4659500D01*
X8067500Y-4619500D02*
X8147500Y-4619500D01*
X8107500Y-4833500D02*
X8107500Y-4913500D01*
X8067500Y-4873500D02*
X8147500Y-4873500D01*
X8162000Y-10607500D02*
X8162000Y-10687500D01*
X8122000Y-10647500D02*
X8202000Y-10647500D01*
X8202500Y-9532500D02*
X8202500Y-9612500D01*
X8162500Y-9572500D02*
X8242500Y-9572500D01*
X8202500Y-9786500D02*
X8202500Y-9866500D01*
X8162500Y-9826500D02*
X8242500Y-9826500D01*
X8202500Y-10040500D02*
X8202500Y-10120500D01*
X8162500Y-10080500D02*
X8242500Y-10080500D01*
X8202500Y-10294500D02*
X8202500Y-10374500D01*
X8162500Y-10334500D02*
X8242500Y-10334500D01*
X8232500Y-2919500D02*
X8232500Y-2999500D01*
X8192500Y-2959500D02*
X8272500Y-2959500D01*
X8332500Y-9242500D02*
X8332500Y-9322500D01*
X8292500Y-9282500D02*
X8372500Y-9282500D01*
X8462500Y-7165250D02*
X8462500Y-7245250D01*
X8422500Y-7205250D02*
X8502500Y-7205250D01*
X8462500Y-7419250D02*
X8462500Y-7499250D01*
X8422500Y-7459250D02*
X8502500Y-7459250D01*
X8462500Y-7673250D02*
X8462500Y-7753250D01*
X8422500Y-7713250D02*
X8502500Y-7713250D01*
X8462500Y-7927250D02*
X8462500Y-8007250D01*
X8422500Y-7967250D02*
X8502500Y-7967250D01*
X8477500Y-15805000D02*
X8477500Y-15885000D01*
X8437500Y-15845000D02*
X8517500Y-15845000D01*
X8487500Y-11417500D02*
X8487500Y-11497500D01*
X8447500Y-11457500D02*
X8527500Y-11457500D01*
X8487500Y-11917500D02*
X8487500Y-11997500D01*
X8447500Y-11957500D02*
X8527500Y-11957500D01*
X8592500Y-6852750D02*
X8592500Y-6932750D01*
X8552500Y-6892750D02*
X8632500Y-6892750D01*
X8727500Y-8230250D02*
X8727500Y-8310250D01*
X8687500Y-8270250D02*
X8767500Y-8270250D01*
X8732500Y-2919500D02*
X8732500Y-2999500D01*
X8692500Y-2959500D02*
X8772500Y-2959500D01*
X8815500Y-8532750D02*
X8815500Y-8612750D01*
X8775500Y-8572750D02*
X8855500Y-8572750D01*
X8832500Y-9242500D02*
X8832500Y-9322500D01*
X8792500Y-9282500D02*
X8872500Y-9282500D01*
X8869500Y-3309500D02*
X8869500Y-3389500D01*
X8829500Y-3349500D02*
X8909500Y-3349500D01*
X8869500Y-3563500D02*
X8869500Y-3643500D01*
X8829500Y-3603500D02*
X8909500Y-3603500D01*
X8869500Y-3817500D02*
X8869500Y-3897500D01*
X8829500Y-3857500D02*
X8909500Y-3857500D01*
X8869500Y-4071500D02*
X8869500Y-4151500D01*
X8829500Y-4111500D02*
X8909500Y-4111500D01*
X8869500Y-4325500D02*
X8869500Y-4405500D01*
X8829500Y-4365500D02*
X8909500Y-4365500D01*
X8869500Y-4579500D02*
X8869500Y-4659500D01*
X8829500Y-4619500D02*
X8909500Y-4619500D01*
X8869500Y-4833500D02*
X8869500Y-4913500D01*
X8829500Y-4873500D02*
X8909500Y-4873500D01*
X8964500Y-9532500D02*
X8964500Y-9612500D01*
X8924500Y-9572500D02*
X9004500Y-9572500D01*
X8964500Y-9786500D02*
X8964500Y-9866500D01*
X8924500Y-9826500D02*
X9004500Y-9826500D01*
X8964500Y-10040500D02*
X8964500Y-10120500D01*
X8924500Y-10080500D02*
X9004500Y-10080500D01*
X8964500Y-10294500D02*
X8964500Y-10374500D01*
X8924500Y-10334500D02*
X9004500Y-10334500D01*
X9092500Y-6852750D02*
X9092500Y-6932750D01*
X9052500Y-6892750D02*
X9132500Y-6892750D01*
X9178000Y-10607500D02*
X9178000Y-10687500D01*
X9138000Y-10647500D02*
X9218000Y-10647500D01*
X9224500Y-7165250D02*
X9224500Y-7245250D01*
X9184500Y-7205250D02*
X9264500Y-7205250D01*
X9224500Y-7419250D02*
X9224500Y-7499250D01*
X9184500Y-7459250D02*
X9264500Y-7459250D01*
X9224500Y-7673250D02*
X9224500Y-7753250D01*
X9184500Y-7713250D02*
X9264500Y-7713250D01*
X9224500Y-7927250D02*
X9224500Y-8007250D01*
X9184500Y-7967250D02*
X9264500Y-7967250D01*
X9227500Y-8230250D02*
X9227500Y-8310250D01*
X9187500Y-8270250D02*
X9267500Y-8270250D01*
X9275000Y-9326500D02*
X9275000Y-9406500D01*
X9235000Y-9366500D02*
X9315000Y-9366500D01*
X9275000Y-10342500D02*
X9275000Y-10422500D01*
X9235000Y-10382500D02*
X9315000Y-10382500D01*
X9362500Y-3871500D02*
X9362500Y-3951500D01*
X9322500Y-3911500D02*
X9402500Y-3911500D01*
X9362500Y-4887500D02*
X9362500Y-4967500D01*
X9322500Y-4927500D02*
X9402500Y-4927500D01*
X9482500Y-7115250D02*
X9482500Y-7195250D01*
X9442500Y-7155250D02*
X9522500Y-7155250D01*
X9482500Y-8131250D02*
X9482500Y-8211250D01*
X9442500Y-8171250D02*
X9522500Y-8171250D01*
X9675000Y-3871500D02*
X9675000Y-3951500D01*
X9635000Y-3911500D02*
X9715000Y-3911500D01*
X9675000Y-4887500D02*
X9675000Y-4967500D01*
X9635000Y-4927500D02*
X9715000Y-4927500D01*
X9782500Y-7115250D02*
X9782500Y-7195250D01*
X9742500Y-7155250D02*
X9822500Y-7155250D01*
X9782500Y-8131250D02*
X9782500Y-8211250D01*
X9742500Y-8171250D02*
X9822500Y-8171250D01*
X9880000Y-11422500D02*
X9880000Y-11502500D01*
X9840000Y-11462500D02*
X9920000Y-11462500D01*
X9880000Y-11922500D02*
X9880000Y-12002500D01*
X9840000Y-11962500D02*
X9920000Y-11962500D01*
X9987500Y-3874000D02*
X9987500Y-3954000D01*
X9947500Y-3914000D02*
X10027500Y-3914000D01*
X9987500Y-4890000D02*
X9987500Y-4970000D01*
X9947500Y-4930000D02*
X10027500Y-4930000D01*
X10400000Y-9019500D02*
X10400000Y-9099500D01*
X10360000Y-9059500D02*
X10440000Y-9059500D01*
X10400000Y-10035500D02*
X10400000Y-10115500D01*
X10360000Y-10075500D02*
X10440000Y-10075500D01*
X10440000Y-3899500D02*
X10440000Y-3979500D01*
X10400000Y-3939500D02*
X10480000Y-3939500D01*
X10440000Y-4915500D02*
X10440000Y-4995500D01*
X10400000Y-4955500D02*
X10480000Y-4955500D01*
X10696000Y-10312000D02*
X10696000Y-10392000D01*
X10656000Y-10352000D02*
X10736000Y-10352000D01*
X10745000Y-3902000D02*
X10745000Y-3982000D01*
X10705000Y-3942000D02*
X10785000Y-3942000D01*
X10745000Y-4918000D02*
X10745000Y-4998000D01*
X10705000Y-4958000D02*
X10785000Y-4958000D01*
X10850000Y-7011500D02*
X10850000Y-7091500D01*
X10810000Y-7051500D02*
X10890000Y-7051500D01*
X10850000Y-8027500D02*
X10850000Y-8107500D01*
X10810000Y-8067500D02*
X10890000Y-8067500D01*
X10950000Y-10058000D02*
X10950000Y-10138000D01*
X10910000Y-10098000D02*
X10990000Y-10098000D01*
X11050000Y-3902000D02*
X11050000Y-3982000D01*
X11010000Y-3942000D02*
X11090000Y-3942000D01*
X11050000Y-4918000D02*
X11050000Y-4998000D01*
X11010000Y-4958000D02*
X11090000Y-4958000D01*
X11162500Y-6701000D02*
X11162500Y-6781000D01*
X11122500Y-6741000D02*
X11202500Y-6741000D01*
X11162500Y-7717000D02*
X11162500Y-7797000D01*
X11122500Y-7757000D02*
X11202500Y-7757000D01*
X11204000Y-10312000D02*
X11204000Y-10392000D01*
X11164000Y-10352000D02*
X11244000Y-10352000D01*
X11357500Y-3904500D02*
X11357500Y-3984500D01*
X11317500Y-3944500D02*
X11397500Y-3944500D01*
X11357500Y-4920500D02*
X11357500Y-5000500D01*
X11317500Y-4960500D02*
X11397500Y-4960500D01*
X11423500Y-7774500D02*
X11423500Y-7854500D01*
X11383500Y-7814500D02*
X11463500Y-7814500D01*
X11677500Y-8028500D02*
X11677500Y-8108500D01*
X11637500Y-8068500D02*
X11717500Y-8068500D01*
X11797500Y-9399500D02*
X11797500Y-9479500D01*
X11757500Y-9439500D02*
X11837500Y-9439500D01*
X11797500Y-10415500D02*
X11797500Y-10495500D01*
X11757500Y-10455500D02*
X11837500Y-10455500D01*
X11818000Y-15237500D02*
X11818000Y-15317500D01*
X11778000Y-15277500D02*
X11858000Y-15277500D01*
X11818000Y-15737500D02*
X11818000Y-15817500D01*
X11778000Y-15777500D02*
X11858000Y-15777500D01*
X11840000Y-3340000D02*
X11840000Y-3420000D01*
X11800000Y-3380000D02*
X11880000Y-3380000D01*
X11840000Y-3594000D02*
X11840000Y-3674000D01*
X11800000Y-3634000D02*
X11880000Y-3634000D01*
X11840000Y-3848000D02*
X11840000Y-3928000D01*
X11800000Y-3888000D02*
X11880000Y-3888000D01*
X11840000Y-4102000D02*
X11840000Y-4182000D01*
X11800000Y-4142000D02*
X11880000Y-4142000D01*
X11840000Y-4356000D02*
X11840000Y-4436000D01*
X11800000Y-4396000D02*
X11880000Y-4396000D01*
X11840000Y-4610000D02*
X11840000Y-4690000D01*
X11800000Y-4650000D02*
X11880000Y-4650000D01*
X11840000Y-4864000D02*
X11840000Y-4944000D01*
X11800000Y-4904000D02*
X11880000Y-4904000D01*
X11931500Y-7774500D02*
X11931500Y-7854500D01*
X11891500Y-7814500D02*
X11971500Y-7814500D01*
X11967500Y-3010000D02*
X11967500Y-3090000D01*
X11927500Y-3050000D02*
X12007500Y-3050000D01*
X12107500Y-8269500D02*
X12107500Y-8349500D01*
X12067500Y-8309500D02*
X12147500Y-8309500D01*
X12107500Y-9285500D02*
X12107500Y-9365500D01*
X12067500Y-9325500D02*
X12147500Y-9325500D01*
X12467500Y-3010000D02*
X12467500Y-3090000D01*
X12427500Y-3050000D02*
X12507500Y-3050000D01*
X12602000Y-3340000D02*
X12602000Y-3420000D01*
X12562000Y-3380000D02*
X12642000Y-3380000D01*
X12602000Y-3594000D02*
X12602000Y-3674000D01*
X12562000Y-3634000D02*
X12642000Y-3634000D01*
X12602000Y-3848000D02*
X12602000Y-3928000D01*
X12562000Y-3888000D02*
X12642000Y-3888000D01*
X12602000Y-4102000D02*
X12602000Y-4182000D01*
X12562000Y-4142000D02*
X12642000Y-4142000D01*
X12602000Y-4356000D02*
X12602000Y-4436000D01*
X12562000Y-4396000D02*
X12642000Y-4396000D01*
X12602000Y-4610000D02*
X12602000Y-4690000D01*
X12562000Y-4650000D02*
X12642000Y-4650000D01*
X12602000Y-4864000D02*
X12602000Y-4944000D01*
X12562000Y-4904000D02*
X12642000Y-4904000D01*
X12655000Y-6844500D02*
X12655000Y-6924500D01*
X12615000Y-6884500D02*
X12695000Y-6884500D01*
X12655000Y-7860500D02*
X12655000Y-7940500D01*
X12615000Y-7900500D02*
X12695000Y-7900500D01*
X13095000Y-3899500D02*
X13095000Y-3979500D01*
X13055000Y-3939500D02*
X13135000Y-3939500D01*
X13095000Y-4915500D02*
X13095000Y-4995500D01*
X13055000Y-4955500D02*
X13135000Y-4955500D01*
X13235500Y-15237500D02*
X13235500Y-15317500D01*
X13195500Y-15277500D02*
X13275500Y-15277500D01*
X13235500Y-15737500D02*
X13235500Y-15817500D01*
X13195500Y-15777500D02*
X13275500Y-15777500D01*
X13290000Y-6844500D02*
X13290000Y-6924500D01*
X13250000Y-6884500D02*
X13330000Y-6884500D01*
X13290000Y-7860500D02*
X13290000Y-7940500D01*
X13250000Y-7900500D02*
X13330000Y-7900500D01*
X13400000Y-3899500D02*
X13400000Y-3979500D01*
X13360000Y-3939500D02*
X13440000Y-3939500D01*
X13400000Y-4915500D02*
X13400000Y-4995500D01*
X13360000Y-4955500D02*
X13440000Y-4955500D01*
X13597500Y-6847000D02*
X13597500Y-6927000D01*
X13557500Y-6887000D02*
X13637500Y-6887000D01*
X13597500Y-7863000D02*
X13597500Y-7943000D01*
X13557500Y-7903000D02*
X13637500Y-7903000D01*
X13700000Y-9154500D02*
X13700000Y-9234500D01*
X13660000Y-9194500D02*
X13740000Y-9194500D01*
X13700000Y-10170500D02*
X13700000Y-10250500D01*
X13660000Y-10210500D02*
X13740000Y-10210500D01*
X13702500Y-3899500D02*
X13702500Y-3979500D01*
X13662500Y-3939500D02*
X13742500Y-3939500D01*
X13702500Y-4915500D02*
X13702500Y-4995500D01*
X13662500Y-4955500D02*
X13742500Y-4955500D01*
X14335000Y-9289500D02*
X14335000Y-9369500D01*
X14295000Y-9329500D02*
X14375000Y-9329500D01*
X14335000Y-10305500D02*
X14335000Y-10385500D01*
X14295000Y-10345500D02*
X14375000Y-10345500D01*
X14337500Y-6707000D02*
X14337500Y-6787000D01*
X14297500Y-6747000D02*
X14377500Y-6747000D01*
X14337500Y-7723000D02*
X14337500Y-7803000D01*
X14297500Y-7763000D02*
X14377500Y-7763000D01*
X14415000Y-10577500D02*
X14415000Y-10657500D01*
X14375000Y-10617500D02*
X14455000Y-10617500D01*
X14415000Y-10831500D02*
X14415000Y-10911500D01*
X14375000Y-10871500D02*
X14455000Y-10871500D01*
X14415000Y-11085500D02*
X14415000Y-11165500D01*
X14375000Y-11125500D02*
X14455000Y-11125500D01*
X14461250Y-7988500D02*
X14461250Y-8068500D01*
X14421250Y-8028500D02*
X14501250Y-8028500D01*
X14461250Y-8242500D02*
X14461250Y-8322500D01*
X14421250Y-8282500D02*
X14501250Y-8282500D01*
X14461250Y-8496500D02*
X14461250Y-8576500D01*
X14421250Y-8536500D02*
X14501250Y-8536500D01*
X15177000Y-10577500D02*
X15177000Y-10657500D01*
X15137000Y-10617500D02*
X15217000Y-10617500D01*
X15177000Y-10831500D02*
X15177000Y-10911500D01*
X15137000Y-10871500D02*
X15217000Y-10871500D01*
X15177000Y-11085500D02*
X15177000Y-11165500D01*
X15137000Y-11125500D02*
X15217000Y-11125500D01*
X15223250Y-7988500D02*
X15223250Y-8068500D01*
X15183250Y-8028500D02*
X15263250Y-8028500D01*
X15223250Y-8242500D02*
X15223250Y-8322500D01*
X15183250Y-8282500D02*
X15263250Y-8282500D01*
X15223250Y-8496500D02*
X15223250Y-8576500D01*
X15183250Y-8536500D02*
X15263250Y-8536500D01*
X15735000Y-10650000D02*
X15735000Y-10730000D01*
X15695000Y-10690000D02*
X15775000Y-10690000D01*
X15735000Y-10960000D02*
X15735000Y-11040000D01*
X15695000Y-11000000D02*
X15775000Y-11000000D01*
X15770250Y-8499000D02*
X15770250Y-8579000D01*
X15730250Y-8539000D02*
X15810250Y-8539000D01*
X15772750Y-8189000D02*
X15772750Y-8269000D01*
X15732750Y-8229000D02*
X15812750Y-8229000D01*
X16751000Y-10650000D02*
X16751000Y-10730000D01*
X16711000Y-10690000D02*
X16791000Y-10690000D01*
X16751000Y-10960000D02*
X16751000Y-11040000D01*
X16711000Y-11000000D02*
X16791000Y-11000000D01*
X16786250Y-8499000D02*
X16786250Y-8579000D01*
X16746250Y-8539000D02*
X16826250Y-8539000D01*
X16788750Y-8189000D02*
X16788750Y-8269000D01*
X16748750Y-8229000D02*
X16828750Y-8229000D01*
X16965500Y-10855000D02*
X16965500Y-10935000D01*
X16925500Y-10895000D02*
X17005500Y-10895000D01*
X17008750Y-8391500D02*
X17008750Y-8471500D01*
X16968750Y-8431500D02*
X17048750Y-8431500D01*
X17219500Y-10601000D02*
X17219500Y-10681000D01*
X17179500Y-10641000D02*
X17259500Y-10641000D01*
X17219500Y-11109000D02*
X17219500Y-11189000D01*
X17179500Y-11149000D02*
X17259500Y-11149000D01*
X17262750Y-8137500D02*
X17262750Y-8217500D01*
X17222750Y-8177500D02*
X17302750Y-8177500D01*
X17262750Y-8645500D02*
X17262750Y-8725500D01*
X17222750Y-8685500D02*
X17302750Y-8685500D01*
D15*
X3624320Y-7857820D02*
X3624320Y-7794180D01*
X3560680Y-7794180D01*
X3560680Y-7857820D01*
X3624320Y-7857820D01*
X3624320Y-8111820D02*
X3624320Y-8048180D01*
X3560680Y-8048180D01*
X3560680Y-8111820D01*
X3624320Y-8111820D01*
X3624320Y-8502820D02*
X3624320Y-8439180D01*
X3560680Y-8439180D01*
X3560680Y-8502820D01*
X3624320Y-8502820D01*
X3624320Y-8756820D02*
X3624320Y-8693180D01*
X3560680Y-8693180D01*
X3560680Y-8756820D01*
X3624320Y-8756820D01*
X4059320Y-5237820D02*
X4059320Y-5174180D01*
X3995680Y-5174180D01*
X3995680Y-5237820D01*
X4059320Y-5237820D01*
X4059320Y-5491820D02*
X4059320Y-5428180D01*
X3995680Y-5428180D01*
X3995680Y-5491820D01*
X4059320Y-5491820D01*
X4274320Y-7857820D02*
X4274320Y-7794180D01*
X4210680Y-7794180D01*
X4210680Y-7857820D01*
X4274320Y-7857820D01*
X4274320Y-8111820D02*
X4274320Y-8048180D01*
X4210680Y-8048180D01*
X4210680Y-8111820D01*
X4274320Y-8111820D01*
X4274320Y-8502820D02*
X4274320Y-8439180D01*
X4210680Y-8439180D01*
X4210680Y-8502820D01*
X4274320Y-8502820D01*
X4274320Y-8756820D02*
X4274320Y-8693180D01*
X4210680Y-8693180D01*
X4210680Y-8756820D01*
X4274320Y-8756820D01*
X4724320Y-5237820D02*
X4724320Y-5174180D01*
X4660680Y-5174180D01*
X4660680Y-5237820D01*
X4724320Y-5237820D01*
X4724320Y-5491820D02*
X4724320Y-5428180D01*
X4660680Y-5428180D01*
X4660680Y-5491820D01*
X4724320Y-5491820D01*
X4924320Y-7857820D02*
X4924320Y-7794180D01*
X4860680Y-7794180D01*
X4860680Y-7857820D01*
X4924320Y-7857820D01*
X4924320Y-8111820D02*
X4924320Y-8048180D01*
X4860680Y-8048180D01*
X4860680Y-8111820D01*
X4924320Y-8111820D01*
X4924320Y-8502820D02*
X4924320Y-8439180D01*
X4860680Y-8439180D01*
X4860680Y-8502820D01*
X4924320Y-8502820D01*
X4924320Y-8756820D02*
X4924320Y-8693180D01*
X4860680Y-8693180D01*
X4860680Y-8756820D01*
X4924320Y-8756820D01*
X5391820Y-5240320D02*
X5391820Y-5176680D01*
X5328180Y-5176680D01*
X5328180Y-5240320D01*
X5391820Y-5240320D01*
X5391820Y-5494320D02*
X5391820Y-5430680D01*
X5328180Y-5430680D01*
X5328180Y-5494320D01*
X5391820Y-5494320D01*
X5574320Y-7857820D02*
X5574320Y-7794180D01*
X5510680Y-7794180D01*
X5510680Y-7857820D01*
X5574320Y-7857820D01*
X5574320Y-8111820D02*
X5574320Y-8048180D01*
X5510680Y-8048180D01*
X5510680Y-8111820D01*
X5574320Y-8111820D01*
X5574320Y-8502820D02*
X5574320Y-8439180D01*
X5510680Y-8439180D01*
X5510680Y-8502820D01*
X5574320Y-8502820D01*
X5574320Y-8756820D02*
X5574320Y-8693180D01*
X5510680Y-8693180D01*
X5510680Y-8756820D01*
X5574320Y-8756820D01*
X5951820Y-13896820D02*
X5951820Y-13833180D01*
X5888180Y-13833180D01*
X5888180Y-13896820D01*
X5951820Y-13896820D01*
X5951820Y-14150820D02*
X5951820Y-14087180D01*
X5888180Y-14087180D01*
X5888180Y-14150820D01*
X5951820Y-14150820D01*
X5954320Y-15620320D02*
X5954320Y-15556680D01*
X5890680Y-15556680D01*
X5890680Y-15620320D01*
X5954320Y-15620320D01*
X5954320Y-15874320D02*
X5954320Y-15810680D01*
X5890680Y-15810680D01*
X5890680Y-15874320D01*
X5954320Y-15874320D01*
X6056820Y-5240320D02*
X6056820Y-5176680D01*
X5993180Y-5176680D01*
X5993180Y-5240320D01*
X6056820Y-5240320D01*
X6056820Y-5494320D02*
X6056820Y-5430680D01*
X5993180Y-5430680D01*
X5993180Y-5494320D01*
X6056820Y-5494320D01*
X6224320Y-7857820D02*
X6224320Y-7794180D01*
X6160680Y-7794180D01*
X6160680Y-7857820D01*
X6224320Y-7857820D01*
X6224320Y-8111820D02*
X6224320Y-8048180D01*
X6160680Y-8048180D01*
X6160680Y-8111820D01*
X6224320Y-8111820D01*
X6224320Y-8502820D02*
X6224320Y-8439180D01*
X6160680Y-8439180D01*
X6160680Y-8502820D01*
X6224320Y-8502820D01*
X6224320Y-8756820D02*
X6224320Y-8693180D01*
X6160680Y-8693180D01*
X6160680Y-8756820D01*
X6224320Y-8756820D01*
X6611820Y-13897820D02*
X6611820Y-13834180D01*
X6548180Y-13834180D01*
X6548180Y-13897820D01*
X6611820Y-13897820D01*
X6611820Y-14151820D02*
X6611820Y-14088180D01*
X6548180Y-14088180D01*
X6548180Y-14151820D01*
X6611820Y-14151820D01*
X6611820Y-15620320D02*
X6611820Y-15556680D01*
X6548180Y-15556680D01*
X6548180Y-15620320D01*
X6611820Y-15620320D01*
X6611820Y-15874320D02*
X6611820Y-15810680D01*
X6548180Y-15810680D01*
X6548180Y-15874320D01*
X6611820Y-15874320D01*
X7201820Y-5275320D02*
X7201820Y-5211680D01*
X7138180Y-5211680D01*
X7138180Y-5275320D01*
X7201820Y-5275320D01*
X7201820Y-5529320D02*
X7201820Y-5465680D01*
X7138180Y-5465680D01*
X7138180Y-5529320D01*
X7201820Y-5529320D01*
X7861820Y-5275320D02*
X7861820Y-5211680D01*
X7798180Y-5211680D01*
X7798180Y-5275320D01*
X7861820Y-5275320D01*
X7861820Y-5529320D02*
X7861820Y-5465680D01*
X7798180Y-5465680D01*
X7798180Y-5529320D01*
X7861820Y-5529320D01*
X8056820Y-7965570D02*
X8056820Y-7901930D01*
X7993180Y-7901930D01*
X7993180Y-7965570D01*
X8056820Y-7965570D01*
X8056820Y-8219570D02*
X8056820Y-8155930D01*
X7993180Y-8155930D01*
X7993180Y-8219570D01*
X8056820Y-8219570D01*
X8949320Y-13616820D02*
X8949320Y-13553180D01*
X8885680Y-13553180D01*
X8885680Y-13616820D01*
X8949320Y-13616820D01*
X8949320Y-13870820D02*
X8949320Y-13807180D01*
X8885680Y-13807180D01*
X8885680Y-13870820D01*
X8949320Y-13870820D01*
X8949320Y-15922820D02*
X8949320Y-15859180D01*
X8885680Y-15859180D01*
X8885680Y-15922820D01*
X8949320Y-15922820D01*
X8949320Y-16176820D02*
X8949320Y-16113180D01*
X8885680Y-16113180D01*
X8885680Y-16176820D01*
X8949320Y-16176820D01*
X9176820Y-5269820D02*
X9176820Y-5206180D01*
X9113180Y-5206180D01*
X9113180Y-5269820D01*
X9176820Y-5269820D01*
X9176820Y-5523820D02*
X9176820Y-5460180D01*
X9113180Y-5460180D01*
X9113180Y-5523820D01*
X9176820Y-5523820D01*
X9839320Y-5272320D02*
X9839320Y-5208680D01*
X9775680Y-5208680D01*
X9775680Y-5272320D01*
X9839320Y-5272320D01*
X9839320Y-5526320D02*
X9839320Y-5462680D01*
X9775680Y-5462680D01*
X9775680Y-5526320D01*
X9839320Y-5526320D01*
X10601820Y-5297820D02*
X10601820Y-5234180D01*
X10538180Y-5234180D01*
X10538180Y-5297820D01*
X10601820Y-5297820D01*
X10601820Y-5551820D02*
X10601820Y-5488180D01*
X10538180Y-5488180D01*
X10538180Y-5551820D01*
X10601820Y-5551820D01*
X10609320Y-8530320D02*
X10609320Y-8466680D01*
X10545680Y-8466680D01*
X10545680Y-8530320D01*
X10609320Y-8530320D01*
X10609320Y-8784320D02*
X10609320Y-8720680D01*
X10545680Y-8720680D01*
X10545680Y-8784320D01*
X10609320Y-8784320D01*
X11215820Y-11436820D02*
X11215820Y-11373180D01*
X11152180Y-11373180D01*
X11152180Y-11436820D01*
X11215820Y-11436820D01*
X11215820Y-11690820D02*
X11215820Y-11627180D01*
X11152180Y-11627180D01*
X11152180Y-11690820D01*
X11215820Y-11690820D01*
X11215820Y-12081820D02*
X11215820Y-12018180D01*
X11152180Y-12018180D01*
X11152180Y-12081820D01*
X11215820Y-12081820D01*
X11215820Y-12335820D02*
X11215820Y-12272180D01*
X11152180Y-12272180D01*
X11152180Y-12335820D01*
X11215820Y-12335820D01*
X11215820Y-12726820D02*
X11215820Y-12663180D01*
X11152180Y-12663180D01*
X11152180Y-12726820D01*
X11215820Y-12726820D01*
X11215820Y-12980820D02*
X11215820Y-12917180D01*
X11152180Y-12917180D01*
X11152180Y-12980820D01*
X11215820Y-12980820D01*
X11215820Y-13371820D02*
X11215820Y-13308180D01*
X11152180Y-13308180D01*
X11152180Y-13371820D01*
X11215820Y-13371820D01*
X11215820Y-13625820D02*
X11215820Y-13562180D01*
X11152180Y-13562180D01*
X11152180Y-13625820D01*
X11215820Y-13625820D01*
X11215820Y-14016820D02*
X11215820Y-13953180D01*
X11152180Y-13953180D01*
X11152180Y-14016820D01*
X11215820Y-14016820D01*
X11215820Y-14270820D02*
X11215820Y-14207180D01*
X11152180Y-14207180D01*
X11152180Y-14270820D01*
X11215820Y-14270820D01*
X11254320Y-5297820D02*
X11254320Y-5234180D01*
X11190680Y-5234180D01*
X11190680Y-5297820D01*
X11254320Y-5297820D01*
X11254320Y-5551820D02*
X11254320Y-5488180D01*
X11190680Y-5488180D01*
X11190680Y-5551820D01*
X11254320Y-5551820D01*
X11369320Y-6211820D02*
X11369320Y-6148180D01*
X11305680Y-6148180D01*
X11305680Y-6211820D01*
X11369320Y-6211820D01*
X11369320Y-6465820D02*
X11369320Y-6402180D01*
X11305680Y-6402180D01*
X11305680Y-6465820D01*
X11369320Y-6465820D01*
X11865820Y-11436820D02*
X11865820Y-11373180D01*
X11802180Y-11373180D01*
X11802180Y-11436820D01*
X11865820Y-11436820D01*
X11865820Y-11690820D02*
X11865820Y-11627180D01*
X11802180Y-11627180D01*
X11802180Y-11690820D01*
X11865820Y-11690820D01*
X11865820Y-12081820D02*
X11865820Y-12018180D01*
X11802180Y-12018180D01*
X11802180Y-12081820D01*
X11865820Y-12081820D01*
X11865820Y-12335820D02*
X11865820Y-12272180D01*
X11802180Y-12272180D01*
X11802180Y-12335820D01*
X11865820Y-12335820D01*
X11865820Y-12726820D02*
X11865820Y-12663180D01*
X11802180Y-12663180D01*
X11802180Y-12726820D01*
X11865820Y-12726820D01*
X11865820Y-12980820D02*
X11865820Y-12917180D01*
X11802180Y-12917180D01*
X11802180Y-12980820D01*
X11865820Y-12980820D01*
X11865820Y-13371820D02*
X11865820Y-13308180D01*
X11802180Y-13308180D01*
X11802180Y-13371820D01*
X11865820Y-13371820D01*
X11865820Y-13625820D02*
X11865820Y-13562180D01*
X11802180Y-13562180D01*
X11802180Y-13625820D01*
X11865820Y-13625820D01*
X11865820Y-14016820D02*
X11865820Y-13953180D01*
X11802180Y-13953180D01*
X11802180Y-14016820D01*
X11865820Y-14016820D01*
X11865820Y-14270820D02*
X11865820Y-14207180D01*
X11802180Y-14207180D01*
X11802180Y-14270820D01*
X11865820Y-14270820D01*
X11906820Y-5297820D02*
X11906820Y-5234180D01*
X11843180Y-5234180D01*
X11843180Y-5297820D01*
X11906820Y-5297820D01*
X11906820Y-5551820D02*
X11906820Y-5488180D01*
X11843180Y-5488180D01*
X11843180Y-5551820D01*
X11906820Y-5551820D01*
X12515820Y-11436820D02*
X12515820Y-11373180D01*
X12452180Y-11373180D01*
X12452180Y-11436820D01*
X12515820Y-11436820D01*
X12515820Y-11690820D02*
X12515820Y-11627180D01*
X12452180Y-11627180D01*
X12452180Y-11690820D01*
X12515820Y-11690820D01*
X12515820Y-12081820D02*
X12515820Y-12018180D01*
X12452180Y-12018180D01*
X12452180Y-12081820D01*
X12515820Y-12081820D01*
X12515820Y-12335820D02*
X12515820Y-12272180D01*
X12452180Y-12272180D01*
X12452180Y-12335820D01*
X12515820Y-12335820D01*
X12515820Y-12726820D02*
X12515820Y-12663180D01*
X12452180Y-12663180D01*
X12452180Y-12726820D01*
X12515820Y-12726820D01*
X12515820Y-12980820D02*
X12515820Y-12917180D01*
X12452180Y-12917180D01*
X12452180Y-12980820D01*
X12515820Y-12980820D01*
X12515820Y-13371820D02*
X12515820Y-13308180D01*
X12452180Y-13308180D01*
X12452180Y-13371820D01*
X12515820Y-13371820D01*
X12515820Y-13625820D02*
X12515820Y-13562180D01*
X12452180Y-13562180D01*
X12452180Y-13625820D01*
X12515820Y-13625820D01*
X12515820Y-14016820D02*
X12515820Y-13953180D01*
X12452180Y-13953180D01*
X12452180Y-14016820D01*
X12515820Y-14016820D01*
X12515820Y-14270820D02*
X12515820Y-14207180D01*
X12452180Y-14207180D01*
X12452180Y-14270820D01*
X12515820Y-14270820D01*
X12559320Y-5297820D02*
X12559320Y-5234180D01*
X12495680Y-5234180D01*
X12495680Y-5297820D01*
X12559320Y-5297820D01*
X12559320Y-5551820D02*
X12559320Y-5488180D01*
X12495680Y-5488180D01*
X12495680Y-5551820D01*
X12559320Y-5551820D01*
X12861820Y-6357820D02*
X12861820Y-6294180D01*
X12798180Y-6294180D01*
X12798180Y-6357820D01*
X12861820Y-6357820D01*
X12861820Y-6611820D02*
X12861820Y-6548180D01*
X12798180Y-6548180D01*
X12798180Y-6611820D01*
X12861820Y-6611820D01*
X13096820Y-9330320D02*
X13096820Y-9266680D01*
X13033180Y-9266680D01*
X13033180Y-9330320D01*
X13096820Y-9330320D01*
X13096820Y-9584320D02*
X13096820Y-9520680D01*
X13033180Y-9520680D01*
X13033180Y-9584320D01*
X13096820Y-9584320D01*
X13165820Y-11436820D02*
X13165820Y-11373180D01*
X13102180Y-11373180D01*
X13102180Y-11436820D01*
X13165820Y-11436820D01*
X13165820Y-11690820D02*
X13165820Y-11627180D01*
X13102180Y-11627180D01*
X13102180Y-11690820D01*
X13165820Y-11690820D01*
X13165820Y-12081820D02*
X13165820Y-12018180D01*
X13102180Y-12018180D01*
X13102180Y-12081820D01*
X13165820Y-12081820D01*
X13165820Y-12335820D02*
X13165820Y-12272180D01*
X13102180Y-12272180D01*
X13102180Y-12335820D01*
X13165820Y-12335820D01*
X13165820Y-12726820D02*
X13165820Y-12663180D01*
X13102180Y-12663180D01*
X13102180Y-12726820D01*
X13165820Y-12726820D01*
X13165820Y-12980820D02*
X13165820Y-12917180D01*
X13102180Y-12917180D01*
X13102180Y-12980820D01*
X13165820Y-12980820D01*
X13165820Y-13371820D02*
X13165820Y-13308180D01*
X13102180Y-13308180D01*
X13102180Y-13371820D01*
X13165820Y-13371820D01*
X13165820Y-13625820D02*
X13165820Y-13562180D01*
X13102180Y-13562180D01*
X13102180Y-13625820D01*
X13165820Y-13625820D01*
X13165820Y-14016820D02*
X13165820Y-13953180D01*
X13102180Y-13953180D01*
X13102180Y-14016820D01*
X13165820Y-14016820D01*
X13165820Y-14270820D02*
X13165820Y-14207180D01*
X13102180Y-14207180D01*
X13102180Y-14270820D01*
X13165820Y-14270820D01*
X13211820Y-5297820D02*
X13211820Y-5234180D01*
X13148180Y-5234180D01*
X13148180Y-5297820D01*
X13211820Y-5297820D01*
X13211820Y-5551820D02*
X13211820Y-5488180D01*
X13148180Y-5488180D01*
X13148180Y-5551820D01*
X13211820Y-5551820D01*
X13815820Y-11436820D02*
X13815820Y-11373180D01*
X13752180Y-11373180D01*
X13752180Y-11436820D01*
X13815820Y-11436820D01*
X13815820Y-11690820D02*
X13815820Y-11627180D01*
X13752180Y-11627180D01*
X13752180Y-11690820D01*
X13815820Y-11690820D01*
X13815820Y-12081820D02*
X13815820Y-12018180D01*
X13752180Y-12018180D01*
X13752180Y-12081820D01*
X13815820Y-12081820D01*
X13815820Y-12335820D02*
X13815820Y-12272180D01*
X13752180Y-12272180D01*
X13752180Y-12335820D01*
X13815820Y-12335820D01*
X13815820Y-12726820D02*
X13815820Y-12663180D01*
X13752180Y-12663180D01*
X13752180Y-12726820D01*
X13815820Y-12726820D01*
X13815820Y-12980820D02*
X13815820Y-12917180D01*
X13752180Y-12917180D01*
X13752180Y-12980820D01*
X13815820Y-12980820D01*
X13815820Y-13371820D02*
X13815820Y-13308180D01*
X13752180Y-13308180D01*
X13752180Y-13371820D01*
X13815820Y-13371820D01*
X13815820Y-13625820D02*
X13815820Y-13562180D01*
X13752180Y-13562180D01*
X13752180Y-13625820D01*
X13815820Y-13625820D01*
X13815820Y-14016820D02*
X13815820Y-13953180D01*
X13752180Y-13953180D01*
X13752180Y-14016820D01*
X13815820Y-14016820D01*
X13815820Y-14270820D02*
X13815820Y-14207180D01*
X13752180Y-14207180D01*
X13752180Y-14270820D01*
X13815820Y-14270820D01*
X13864320Y-5297820D02*
X13864320Y-5234180D01*
X13800680Y-5234180D01*
X13800680Y-5297820D01*
X13864320Y-5297820D01*
X13864320Y-5551820D02*
X13864320Y-5488180D01*
X13800680Y-5488180D01*
X13800680Y-5551820D01*
X13864320Y-5551820D01*
X14991820Y-10036820D02*
X14991820Y-9973180D01*
X14928180Y-9973180D01*
X14928180Y-10036820D01*
X14991820Y-10036820D01*
X14991820Y-10290820D02*
X14991820Y-10227180D01*
X14928180Y-10227180D01*
X14928180Y-10290820D01*
X14991820Y-10290820D01*
X15037570Y-7444320D02*
X15037570Y-7380680D01*
X14973930Y-7380680D01*
X14973930Y-7444320D01*
X15037570Y-7444320D01*
X15037570Y-7698320D02*
X15037570Y-7634680D01*
X14973930Y-7634680D01*
X14973930Y-7698320D01*
X15037570Y-7698320D01*
X15484320Y-10176320D02*
X15484320Y-10112680D01*
X15420680Y-10112680D01*
X15420680Y-10176320D01*
X15484320Y-10176320D01*
X15484320Y-11192320D02*
X15484320Y-11128680D01*
X15420680Y-11128680D01*
X15420680Y-11192320D01*
X15484320Y-11192320D01*
X15530070Y-7589820D02*
X15530070Y-7526180D01*
X15466430Y-7526180D01*
X15466430Y-7589820D01*
X15530070Y-7589820D01*
X15530070Y-8605820D02*
X15530070Y-8542180D01*
X15466430Y-8542180D01*
X15466430Y-8605820D01*
X15530070Y-8605820D01*
D16*
X4725000Y-12987500D02*
X4772500Y-12940000D01*
X4725000Y-12892500D01*
X4677500Y-12940000D01*
X4725000Y-12987500D01*
X4975000Y-12987500D02*
X5022500Y-12940000D01*
X4975000Y-12892500D01*
X4927500Y-12940000D01*
X4975000Y-12987500D01*
X5225000Y-12987500D02*
X5272500Y-12940000D01*
X5225000Y-12892500D01*
X5177500Y-12940000D01*
X5225000Y-12987500D01*
X14767500Y-12922500D02*
X14815000Y-12875000D01*
X14767500Y-12827500D01*
X14720000Y-12875000D01*
X14767500Y-12922500D01*
X14767500Y-13172500D02*
X14815000Y-13125000D01*
X14767500Y-13077500D01*
X14720000Y-13125000D01*
X14767500Y-13172500D01*
X14767500Y-13422500D02*
X14815000Y-13375000D01*
X14767500Y-13327500D01*
X14720000Y-13375000D01*
X14767500Y-13422500D01*
D11*
X10541500Y-12278000D02*
X10641500Y-12378000D01*
X10641500Y-12278000D02*
X10541500Y-12378000D01*
X10641500Y-12328000D02*
G75*
G03*
X10641500Y-12328000I-50000J0D01*
G01*
X10541500Y-12532000D02*
X10641500Y-12632000D01*
X10641500Y-12532000D02*
X10541500Y-12632000D01*
X10641500Y-12582000D02*
G75*
G03*
X10641500Y-12582000I-50000J0D01*
G01*
X10541500Y-12786000D02*
X10641500Y-12886000D01*
X10641500Y-12786000D02*
X10541500Y-12886000D01*
X10641500Y-12836000D02*
G75*
G03*
X10641500Y-12836000I-50000J0D01*
G01*
X10541500Y-13040000D02*
X10641500Y-13140000D01*
X10641500Y-13040000D02*
X10541500Y-13140000D01*
X10641500Y-13090000D02*
G75*
G03*
X10641500Y-13090000I-50000J0D01*
G01*
X10541500Y-13294000D02*
X10641500Y-13394000D01*
X10641500Y-13294000D02*
X10541500Y-13394000D01*
X10641500Y-13344000D02*
G75*
G03*
X10641500Y-13344000I-50000J0D01*
G01*
X10713500Y-9772500D02*
X10813500Y-9872500D01*
X10813500Y-9772500D02*
X10713500Y-9872500D01*
X10813500Y-9822500D02*
G75*
G03*
X10813500Y-9822500I-50000J0D01*
G01*
X10850000Y-14872500D02*
X10950000Y-14972500D01*
X10950000Y-14872500D02*
X10850000Y-14972500D01*
X10950000Y-14922500D02*
G75*
G03*
X10950000Y-14922500I-50000J0D01*
G01*
D10*
X10770000Y-14972500D02*
X11030000Y-14972500D01*
X10770000Y-14872500D02*
X11030000Y-14872500D01*
X11030000Y-14972500D02*
G75*
G03*
X11030000Y-14872500I0J50000D01*
G01*
X10770000Y-14872500D02*
G75*
G03*
X10770000Y-14972500I0J-50000D01*
G01*
D11*
X10850000Y-15502500D02*
X10950000Y-15602500D01*
X10950000Y-15502500D02*
X10850000Y-15602500D01*
X10950000Y-15552500D02*
G75*
G03*
X10950000Y-15552500I-50000J0D01*
G01*
D10*
X10790000Y-15602500D02*
X11010000Y-15602500D01*
X10790000Y-15502500D02*
X11010000Y-15502500D01*
X11010000Y-15602500D02*
G75*
G03*
X11010000Y-15502500I0J50000D01*
G01*
X10790000Y-15502500D02*
G75*
G03*
X10790000Y-15602500I0J-50000D01*
G01*
D11*
X10967500Y-9772500D02*
X11067500Y-9872500D01*
X11067500Y-9772500D02*
X10967500Y-9872500D01*
X11067500Y-9822500D02*
G75*
G03*
X11067500Y-9822500I-50000J0D01*
G01*
X11221500Y-9772500D02*
X11321500Y-9872500D01*
X11321500Y-9772500D02*
X11221500Y-9872500D01*
X11321500Y-9822500D02*
G75*
G03*
X11321500Y-9822500I-50000J0D01*
G01*
X11330000Y-15162500D02*
X11430000Y-15262500D01*
X11430000Y-15162500D02*
X11330000Y-15262500D01*
X11430000Y-15212500D02*
G75*
G03*
X11430000Y-15212500I-50000J0D01*
G01*
D10*
X11330000Y-15102500D02*
X11330000Y-15322500D01*
X11430000Y-15102500D02*
X11430000Y-15322500D01*
X11330000Y-15322500D02*
G75*
G03*
X11430000Y-15322500I50000J0D01*
G01*
X11430000Y-15102500D02*
G75*
G03*
X11330000Y-15102500I-50000J0D01*
G01*
D11*
X11645000Y-7339000D02*
X11745000Y-7439000D01*
X11745000Y-7339000D02*
X11645000Y-7439000D01*
X11745000Y-7389000D02*
G75*
G03*
X11745000Y-7389000I-50000J0D01*
G01*
X11899000Y-7339000D02*
X11999000Y-7439000D01*
X11999000Y-7339000D02*
X11899000Y-7439000D01*
X11999000Y-7389000D02*
G75*
G03*
X11999000Y-7389000I-50000J0D01*
G01*
X11924000Y-10883500D02*
X12024000Y-10983500D01*
X12024000Y-10883500D02*
X11924000Y-10983500D01*
X12024000Y-10933500D02*
G75*
G03*
X12024000Y-10933500I-50000J0D01*
G01*
X12153000Y-7339000D02*
X12253000Y-7439000D01*
X12253000Y-7339000D02*
X12153000Y-7439000D01*
X12253000Y-7389000D02*
G75*
G03*
X12253000Y-7389000I-50000J0D01*
G01*
X12178000Y-10883500D02*
X12278000Y-10983500D01*
X12278000Y-10883500D02*
X12178000Y-10983500D01*
X12278000Y-10933500D02*
G75*
G03*
X12278000Y-10933500I-50000J0D01*
G01*
X12432000Y-10883500D02*
X12532000Y-10983500D01*
X12532000Y-10883500D02*
X12432000Y-10983500D01*
X12532000Y-10933500D02*
G75*
G03*
X12532000Y-10933500I-50000J0D01*
G01*
X12686000Y-10883500D02*
X12786000Y-10983500D01*
X12786000Y-10883500D02*
X12686000Y-10983500D01*
X12786000Y-10933500D02*
G75*
G03*
X12786000Y-10933500I-50000J0D01*
G01*
X12940000Y-10883500D02*
X13040000Y-10983500D01*
X13040000Y-10883500D02*
X12940000Y-10983500D01*
X13040000Y-10933500D02*
G75*
G03*
X13040000Y-10933500I-50000J0D01*
G01*
X14500000Y-11760000D02*
X14600000Y-11860000D01*
X14600000Y-11760000D02*
X14500000Y-11860000D01*
X14600000Y-11810000D02*
G75*
G03*
X14600000Y-11810000I-50000J0D01*
G01*
X14500000Y-12014000D02*
X14600000Y-12114000D01*
X14600000Y-12014000D02*
X14500000Y-12114000D01*
X14600000Y-12064000D02*
G75*
G03*
X14600000Y-12064000I-50000J0D01*
G01*
X14500000Y-12268000D02*
X14600000Y-12368000D01*
X14600000Y-12268000D02*
X14500000Y-12368000D01*
X14600000Y-12318000D02*
G75*
G03*
X14600000Y-12318000I-50000J0D01*
G01*
X14630000Y-9092500D02*
X14730000Y-9192500D01*
X14730000Y-9092500D02*
X14630000Y-9192500D01*
X14730000Y-9142500D02*
G75*
G03*
X14730000Y-9142500I-50000J0D01*
G01*
X14630750Y-6574000D02*
X14730750Y-6674000D01*
X14730750Y-6574000D02*
X14630750Y-6674000D01*
X14730750Y-6624000D02*
G75*
G03*
X14730750Y-6624000I-50000J0D01*
G01*
X14884000Y-9092500D02*
X14984000Y-9192500D01*
X14984000Y-9092500D02*
X14884000Y-9192500D01*
X14984000Y-9142500D02*
G75*
G03*
X14984000Y-9142500I-50000J0D01*
G01*
X14884750Y-6574000D02*
X14984750Y-6674000D01*
X14984750Y-6574000D02*
X14884750Y-6674000D01*
X14984750Y-6624000D02*
G75*
G03*
X14984750Y-6624000I-50000J0D01*
G01*
X15138000Y-9092500D02*
X15238000Y-9192500D01*
X15238000Y-9092500D02*
X15138000Y-9192500D01*
X15238000Y-9142500D02*
G75*
G03*
X15238000Y-9142500I-50000J0D01*
G01*
X15138750Y-6574000D02*
X15238750Y-6674000D01*
X15238750Y-6574000D02*
X15138750Y-6674000D01*
X15238750Y-6624000D02*
G75*
G03*
X15238750Y-6624000I-50000J0D01*
G01*
X15392000Y-9092500D02*
X15492000Y-9192500D01*
X15492000Y-9092500D02*
X15392000Y-9192500D01*
X15492000Y-9142500D02*
G75*
G03*
X15492000Y-9142500I-50000J0D01*
G01*
X15392750Y-6574000D02*
X15492750Y-6674000D01*
X15492750Y-6574000D02*
X15392750Y-6674000D01*
X15492750Y-6624000D02*
G75*
G03*
X15492750Y-6624000I-50000J0D01*
G01*
X17245000Y-2956000D02*
X17345000Y-3056000D01*
X17345000Y-2956000D02*
X17245000Y-3056000D01*
X17345000Y-3006000D02*
G75*
G03*
X17345000Y-3006000I-50000J0D01*
G01*
X17245000Y-3210000D02*
X17345000Y-3310000D01*
X17345000Y-3210000D02*
X17245000Y-3310000D01*
X17345000Y-3260000D02*
G75*
G03*
X17345000Y-3260000I-50000J0D01*
G01*
X17245000Y-3464000D02*
X17345000Y-3564000D01*
X17345000Y-3464000D02*
X17245000Y-3564000D01*
X17345000Y-3514000D02*
G75*
G03*
X17345000Y-3514000I-50000J0D01*
G01*
X17245000Y-3718000D02*
X17345000Y-3818000D01*
X17345000Y-3718000D02*
X17245000Y-3818000D01*
X17345000Y-3768000D02*
G75*
G03*
X17345000Y-3768000I-50000J0D01*
G01*
X17245000Y-3972000D02*
X17345000Y-4072000D01*
X17345000Y-3972000D02*
X17245000Y-4072000D01*
X17345000Y-4022000D02*
G75*
G03*
X17345000Y-4022000I-50000J0D01*
G01*
X17245000Y-4226000D02*
X17345000Y-4326000D01*
X17345000Y-4226000D02*
X17245000Y-4326000D01*
X17345000Y-4276000D02*
G75*
G03*
X17345000Y-4276000I-50000J0D01*
G01*
X17245000Y-4480000D02*
X17345000Y-4580000D01*
X17345000Y-4480000D02*
X17245000Y-4580000D01*
X17345000Y-4530000D02*
G75*
G03*
X17345000Y-4530000I-50000J0D01*
G01*
X17245000Y-4734000D02*
X17345000Y-4834000D01*
X17345000Y-4734000D02*
X17245000Y-4834000D01*
X17345000Y-4784000D02*
G75*
G03*
X17345000Y-4784000I-50000J0D01*
G01*
X17245000Y-4988000D02*
X17345000Y-5088000D01*
X17345000Y-4988000D02*
X17245000Y-5088000D01*
X17345000Y-5038000D02*
G75*
G03*
X17345000Y-5038000I-50000J0D01*
G01*
X17245000Y-5242000D02*
X17345000Y-5342000D01*
X17345000Y-5242000D02*
X17245000Y-5342000D01*
X17345000Y-5292000D02*
G75*
G03*
X17345000Y-5292000I-50000J0D01*
G01*
X17245000Y-5496000D02*
X17345000Y-5596000D01*
X17345000Y-5496000D02*
X17245000Y-5596000D01*
X17345000Y-5546000D02*
G75*
G03*
X17345000Y-5546000I-50000J0D01*
G01*
X17245000Y-5750000D02*
X17345000Y-5850000D01*
X17345000Y-5750000D02*
X17245000Y-5850000D01*
X17345000Y-5800000D02*
G75*
G03*
X17345000Y-5800000I-50000J0D01*
G01*
X17245000Y-6004000D02*
X17345000Y-6104000D01*
X17345000Y-6004000D02*
X17245000Y-6104000D01*
X17345000Y-6054000D02*
G75*
G03*
X17345000Y-6054000I-50000J0D01*
G01*
X18155000Y-2955000D02*
X18255000Y-3055000D01*
X18255000Y-2955000D02*
X18155000Y-3055000D01*
X18255000Y-3005000D02*
G75*
G03*
X18255000Y-3005000I-50000J0D01*
G01*
X18155000Y-3209000D02*
X18255000Y-3309000D01*
X18255000Y-3209000D02*
X18155000Y-3309000D01*
X18255000Y-3259000D02*
G75*
G03*
X18255000Y-3259000I-50000J0D01*
G01*
X18155000Y-3463000D02*
X18255000Y-3563000D01*
X18255000Y-3463000D02*
X18155000Y-3563000D01*
X18255000Y-3513000D02*
G75*
G03*
X18255000Y-3513000I-50000J0D01*
G01*
X18155000Y-3717000D02*
X18255000Y-3817000D01*
X18255000Y-3717000D02*
X18155000Y-3817000D01*
X18255000Y-3767000D02*
G75*
G03*
X18255000Y-3767000I-50000J0D01*
G01*
X18155000Y-3971000D02*
X18255000Y-4071000D01*
X18255000Y-3971000D02*
X18155000Y-4071000D01*
X18255000Y-4021000D02*
G75*
G03*
X18255000Y-4021000I-50000J0D01*
G01*
X18155000Y-4225000D02*
X18255000Y-4325000D01*
X18255000Y-4225000D02*
X18155000Y-4325000D01*
X18255000Y-4275000D02*
G75*
G03*
X18255000Y-4275000I-50000J0D01*
G01*
X18155000Y-4479000D02*
X18255000Y-4579000D01*
X18255000Y-4479000D02*
X18155000Y-4579000D01*
X18255000Y-4529000D02*
G75*
G03*
X18255000Y-4529000I-50000J0D01*
G01*
X18155000Y-4733000D02*
X18255000Y-4833000D01*
X18255000Y-4733000D02*
X18155000Y-4833000D01*
X18255000Y-4783000D02*
G75*
G03*
X18255000Y-4783000I-50000J0D01*
G01*
X18155000Y-4987000D02*
X18255000Y-5087000D01*
X18255000Y-4987000D02*
X18155000Y-5087000D01*
X18255000Y-5037000D02*
G75*
G03*
X18255000Y-5037000I-50000J0D01*
G01*
X18155000Y-5241000D02*
X18255000Y-5341000D01*
X18255000Y-5241000D02*
X18155000Y-5341000D01*
X18255000Y-5291000D02*
G75*
G03*
X18255000Y-5291000I-50000J0D01*
G01*
X18155000Y-5495000D02*
X18255000Y-5595000D01*
X18255000Y-5495000D02*
X18155000Y-5595000D01*
X18255000Y-5545000D02*
G75*
G03*
X18255000Y-5545000I-50000J0D01*
G01*
X18155000Y-5749000D02*
X18255000Y-5849000D01*
X18255000Y-5749000D02*
X18155000Y-5849000D01*
X18255000Y-5799000D02*
G75*
G03*
X18255000Y-5799000I-50000J0D01*
G01*
X18155000Y-6003000D02*
X18255000Y-6103000D01*
X18255000Y-6003000D02*
X18155000Y-6103000D01*
X18255000Y-6053000D02*
G75*
G03*
X18255000Y-6053000I-50000J0D01*
G01*
D17*
X3445000Y-3090000D02*
X3555000Y-3200000D01*
X3555000Y-3090000D02*
X3445000Y-3200000D01*
X3500000Y-3090000D02*
X3500000Y-3200000D01*
X3445000Y-3145000D02*
X3555000Y-3145000D01*
X3445000Y-3540000D02*
X3555000Y-3650000D01*
X3555000Y-3540000D02*
X3445000Y-3650000D01*
X3500000Y-3540000D02*
X3500000Y-3650000D01*
X3445000Y-3595000D02*
X3555000Y-3595000D01*
X3500000Y-15350000D02*
X3610000Y-15460000D01*
X3610000Y-15350000D02*
X3500000Y-15460000D01*
X3555000Y-15350000D02*
X3555000Y-15460000D01*
X3500000Y-15405000D02*
X3610000Y-15405000D01*
X3500000Y-15800000D02*
X3610000Y-15910000D01*
X3610000Y-15800000D02*
X3500000Y-15910000D01*
X3555000Y-15800000D02*
X3555000Y-15910000D01*
X3500000Y-15855000D02*
X3610000Y-15855000D01*
X4095000Y-3090000D02*
X4205000Y-3200000D01*
X4205000Y-3090000D02*
X4095000Y-3200000D01*
X4150000Y-3090000D02*
X4150000Y-3200000D01*
X4095000Y-3145000D02*
X4205000Y-3145000D01*
X4095000Y-3540000D02*
X4205000Y-3650000D01*
X4205000Y-3540000D02*
X4095000Y-3650000D01*
X4150000Y-3540000D02*
X4150000Y-3650000D01*
X4095000Y-3595000D02*
X4205000Y-3595000D01*
X4150000Y-15350000D02*
X4260000Y-15460000D01*
X4260000Y-15350000D02*
X4150000Y-15460000D01*
X4205000Y-15350000D02*
X4205000Y-15460000D01*
X4150000Y-15405000D02*
X4260000Y-15405000D01*
X4150000Y-15800000D02*
X4260000Y-15910000D01*
X4260000Y-15800000D02*
X4150000Y-15910000D01*
X4205000Y-15800000D02*
X4205000Y-15910000D01*
X4150000Y-15855000D02*
X4260000Y-15855000D01*
X5870000Y-3100000D02*
X5980000Y-3210000D01*
X5980000Y-3100000D02*
X5870000Y-3210000D01*
X5925000Y-3100000D02*
X5925000Y-3210000D01*
X5870000Y-3155000D02*
X5980000Y-3155000D01*
X5870000Y-3550000D02*
X5980000Y-3660000D01*
X5980000Y-3550000D02*
X5870000Y-3660000D01*
X5925000Y-3550000D02*
X5925000Y-3660000D01*
X5870000Y-3605000D02*
X5980000Y-3605000D01*
X6520000Y-3100000D02*
X6630000Y-3210000D01*
X6630000Y-3100000D02*
X6520000Y-3210000D01*
X6575000Y-3100000D02*
X6575000Y-3210000D01*
X6520000Y-3155000D02*
X6630000Y-3155000D01*
X6520000Y-3550000D02*
X6630000Y-3660000D01*
X6630000Y-3550000D02*
X6520000Y-3660000D01*
X6575000Y-3550000D02*
X6575000Y-3660000D01*
X6520000Y-3605000D02*
X6630000Y-3605000D01*
X6937500Y-3144500D02*
X7047500Y-3254500D01*
X7047500Y-3144500D02*
X6937500Y-3254500D01*
X6992500Y-3144500D02*
X6992500Y-3254500D01*
X6937500Y-3199500D02*
X7047500Y-3199500D01*
X6937500Y-3594500D02*
X7047500Y-3704500D01*
X7047500Y-3594500D02*
X6937500Y-3704500D01*
X6992500Y-3594500D02*
X6992500Y-3704500D01*
X6937500Y-3649500D02*
X7047500Y-3649500D01*
X7020000Y-14336500D02*
X7130000Y-14446500D01*
X7130000Y-14336500D02*
X7020000Y-14446500D01*
X7075000Y-14336500D02*
X7075000Y-14446500D01*
X7020000Y-14391500D02*
X7130000Y-14391500D01*
X7020000Y-15352500D02*
X7130000Y-15462500D01*
X7130000Y-15352500D02*
X7020000Y-15462500D01*
X7075000Y-15352500D02*
X7075000Y-15462500D01*
X7020000Y-15407500D02*
X7130000Y-15407500D01*
X7587500Y-3144500D02*
X7697500Y-3254500D01*
X7697500Y-3144500D02*
X7587500Y-3254500D01*
X7642500Y-3144500D02*
X7642500Y-3254500D01*
X7587500Y-3199500D02*
X7697500Y-3199500D01*
X7587500Y-3594500D02*
X7697500Y-3704500D01*
X7697500Y-3594500D02*
X7587500Y-3704500D01*
X7642500Y-3594500D02*
X7642500Y-3704500D01*
X7587500Y-3649500D02*
X7697500Y-3649500D01*
X8414500Y-12295000D02*
X8524500Y-12405000D01*
X8524500Y-12295000D02*
X8414500Y-12405000D01*
X8469500Y-12295000D02*
X8469500Y-12405000D01*
X8414500Y-12350000D02*
X8524500Y-12350000D01*
X8880000Y-11642500D02*
X8990000Y-11752500D01*
X8990000Y-11642500D02*
X8880000Y-11752500D01*
X8935000Y-11642500D02*
X8935000Y-11752500D01*
X8880000Y-11697500D02*
X8990000Y-11697500D01*
X9134000Y-11642500D02*
X9244000Y-11752500D01*
X9244000Y-11642500D02*
X9134000Y-11752500D01*
X9189000Y-11642500D02*
X9189000Y-11752500D01*
X9134000Y-11697500D02*
X9244000Y-11697500D01*
X9282500Y-3142000D02*
X9392500Y-3252000D01*
X9392500Y-3142000D02*
X9282500Y-3252000D01*
X9337500Y-3142000D02*
X9337500Y-3252000D01*
X9282500Y-3197000D02*
X9392500Y-3197000D01*
X9282500Y-3592000D02*
X9392500Y-3702000D01*
X9392500Y-3592000D02*
X9282500Y-3702000D01*
X9337500Y-3592000D02*
X9337500Y-3702000D01*
X9282500Y-3647000D02*
X9392500Y-3647000D01*
X9388000Y-11642500D02*
X9498000Y-11752500D01*
X9498000Y-11642500D02*
X9388000Y-11752500D01*
X9443000Y-11642500D02*
X9443000Y-11752500D01*
X9388000Y-11697500D02*
X9498000Y-11697500D01*
X9430500Y-12295000D02*
X9540500Y-12405000D01*
X9540500Y-12295000D02*
X9430500Y-12405000D01*
X9485500Y-12295000D02*
X9485500Y-12405000D01*
X9430500Y-12350000D02*
X9540500Y-12350000D01*
X9932500Y-3142000D02*
X10042500Y-3252000D01*
X10042500Y-3142000D02*
X9932500Y-3252000D01*
X9987500Y-3142000D02*
X9987500Y-3252000D01*
X9932500Y-3197000D02*
X10042500Y-3197000D01*
X9932500Y-3592000D02*
X10042500Y-3702000D01*
X10042500Y-3592000D02*
X9932500Y-3702000D01*
X9987500Y-3592000D02*
X9987500Y-3702000D01*
X9932500Y-3647000D02*
X10042500Y-3647000D01*
X10345000Y-6079000D02*
X10455000Y-6189000D01*
X10455000Y-6079000D02*
X10345000Y-6189000D01*
X10400000Y-6079000D02*
X10400000Y-6189000D01*
X10345000Y-6134000D02*
X10455000Y-6134000D01*
X10345000Y-6729000D02*
X10455000Y-6839000D01*
X10455000Y-6729000D02*
X10345000Y-6839000D01*
X10400000Y-6729000D02*
X10400000Y-6839000D01*
X10345000Y-6784000D02*
X10455000Y-6784000D01*
X10795000Y-6079000D02*
X10905000Y-6189000D01*
X10905000Y-6079000D02*
X10795000Y-6189000D01*
X10850000Y-6079000D02*
X10850000Y-6189000D01*
X10795000Y-6134000D02*
X10905000Y-6134000D01*
X10795000Y-6729000D02*
X10905000Y-6839000D01*
X10905000Y-6729000D02*
X10795000Y-6839000D01*
X10850000Y-6729000D02*
X10850000Y-6839000D01*
X10795000Y-6784000D02*
X10905000Y-6784000D01*
X10808500Y-9068000D02*
X10918500Y-9178000D01*
X10918500Y-9068000D02*
X10808500Y-9178000D01*
X10863500Y-9068000D02*
X10863500Y-9178000D01*
X10808500Y-9123000D02*
X10918500Y-9123000D01*
X11012500Y-8292500D02*
X11122500Y-8402500D01*
X11122500Y-8292500D02*
X11012500Y-8402500D01*
X11067500Y-8292500D02*
X11067500Y-8402500D01*
X11012500Y-8347500D02*
X11122500Y-8347500D01*
X11012500Y-8742500D02*
X11122500Y-8852500D01*
X11122500Y-8742500D02*
X11012500Y-8852500D01*
X11067500Y-8742500D02*
X11067500Y-8852500D01*
X11012500Y-8797500D02*
X11122500Y-8797500D01*
X11062500Y-9068000D02*
X11172500Y-9178000D01*
X11172500Y-9068000D02*
X11062500Y-9178000D01*
X11117500Y-9068000D02*
X11117500Y-9178000D01*
X11062500Y-9123000D02*
X11172500Y-9123000D01*
X11316500Y-9068000D02*
X11426500Y-9178000D01*
X11426500Y-9068000D02*
X11316500Y-9178000D01*
X11371500Y-9068000D02*
X11371500Y-9178000D01*
X11316500Y-9123000D02*
X11426500Y-9123000D01*
X11542500Y-6742000D02*
X11652500Y-6852000D01*
X11652500Y-6742000D02*
X11542500Y-6852000D01*
X11597500Y-6742000D02*
X11597500Y-6852000D01*
X11542500Y-6797000D02*
X11652500Y-6797000D01*
X11662500Y-8292500D02*
X11772500Y-8402500D01*
X11772500Y-8292500D02*
X11662500Y-8402500D01*
X11717500Y-8292500D02*
X11717500Y-8402500D01*
X11662500Y-8347500D02*
X11772500Y-8347500D01*
X11662500Y-8742500D02*
X11772500Y-8852500D01*
X11772500Y-8742500D02*
X11662500Y-8852500D01*
X11717500Y-8742500D02*
X11717500Y-8852500D01*
X11662500Y-8797500D02*
X11772500Y-8797500D01*
X11796500Y-6742000D02*
X11906500Y-6852000D01*
X11906500Y-6742000D02*
X11796500Y-6852000D01*
X11851500Y-6742000D02*
X11851500Y-6852000D01*
X11796500Y-6797000D02*
X11906500Y-6797000D01*
X11965000Y-15995000D02*
X12075000Y-16105000D01*
X12075000Y-15995000D02*
X11965000Y-16105000D01*
X12020000Y-15995000D02*
X12020000Y-16105000D01*
X11965000Y-16050000D02*
X12075000Y-16050000D01*
X12050500Y-6742000D02*
X12160500Y-6852000D01*
X12160500Y-6742000D02*
X12050500Y-6852000D01*
X12105500Y-6742000D02*
X12105500Y-6852000D01*
X12050500Y-6797000D02*
X12160500Y-6797000D01*
X12221500Y-14909500D02*
X12331500Y-15019500D01*
X12331500Y-14909500D02*
X12221500Y-15019500D01*
X12276500Y-14909500D02*
X12276500Y-15019500D01*
X12221500Y-14964500D02*
X12331500Y-14964500D01*
X12221500Y-15457000D02*
X12331500Y-15567000D01*
X12331500Y-15457000D02*
X12221500Y-15567000D01*
X12276500Y-15457000D02*
X12276500Y-15567000D01*
X12221500Y-15512000D02*
X12331500Y-15512000D01*
X12475500Y-14909500D02*
X12585500Y-15019500D01*
X12585500Y-14909500D02*
X12475500Y-15019500D01*
X12530500Y-14909500D02*
X12530500Y-15019500D01*
X12475500Y-14964500D02*
X12585500Y-14964500D01*
X12475500Y-15457000D02*
X12585500Y-15567000D01*
X12585500Y-15457000D02*
X12475500Y-15567000D01*
X12530500Y-15457000D02*
X12530500Y-15567000D01*
X12475500Y-15512000D02*
X12585500Y-15512000D01*
X12600000Y-8112500D02*
X12710000Y-8222500D01*
X12710000Y-8112500D02*
X12600000Y-8222500D01*
X12655000Y-8112500D02*
X12655000Y-8222500D01*
X12600000Y-8167500D02*
X12710000Y-8167500D01*
X12600000Y-8562500D02*
X12710000Y-8672500D01*
X12710000Y-8562500D02*
X12600000Y-8672500D01*
X12655000Y-8562500D02*
X12655000Y-8672500D01*
X12600000Y-8617500D02*
X12710000Y-8617500D01*
X12729500Y-14909500D02*
X12839500Y-15019500D01*
X12839500Y-14909500D02*
X12729500Y-15019500D01*
X12784500Y-14909500D02*
X12784500Y-15019500D01*
X12729500Y-14964500D02*
X12839500Y-14964500D01*
X12729500Y-15457000D02*
X12839500Y-15567000D01*
X12839500Y-15457000D02*
X12729500Y-15567000D01*
X12784500Y-15457000D02*
X12784500Y-15567000D01*
X12729500Y-15512000D02*
X12839500Y-15512000D01*
X12927500Y-2965000D02*
X13037500Y-3075000D01*
X13037500Y-2965000D02*
X12927500Y-3075000D01*
X12982500Y-2965000D02*
X12982500Y-3075000D01*
X12927500Y-3020000D02*
X13037500Y-3020000D01*
X12927500Y-3415000D02*
X13037500Y-3525000D01*
X13037500Y-3415000D02*
X12927500Y-3525000D01*
X12982500Y-3415000D02*
X12982500Y-3525000D01*
X12927500Y-3470000D02*
X13037500Y-3470000D01*
X12981000Y-15995000D02*
X13091000Y-16105000D01*
X13091000Y-15995000D02*
X12981000Y-16105000D01*
X13036000Y-15995000D02*
X13036000Y-16105000D01*
X12981000Y-16050000D02*
X13091000Y-16050000D01*
X13250000Y-8112500D02*
X13360000Y-8222500D01*
X13360000Y-8112500D02*
X13250000Y-8222500D01*
X13305000Y-8112500D02*
X13305000Y-8222500D01*
X13250000Y-8167500D02*
X13360000Y-8167500D01*
X13250000Y-8562500D02*
X13360000Y-8672500D01*
X13360000Y-8562500D02*
X13250000Y-8672500D01*
X13305000Y-8562500D02*
X13305000Y-8672500D01*
X13250000Y-8617500D02*
X13360000Y-8617500D01*
X13262500Y-6112500D02*
X13372500Y-6222500D01*
X13372500Y-6112500D02*
X13262500Y-6222500D01*
X13317500Y-6112500D02*
X13317500Y-6222500D01*
X13262500Y-6167500D02*
X13372500Y-6167500D01*
X13262500Y-6562500D02*
X13372500Y-6672500D01*
X13372500Y-6562500D02*
X13262500Y-6672500D01*
X13317500Y-6562500D02*
X13317500Y-6672500D01*
X13262500Y-6617500D02*
X13372500Y-6617500D01*
X13577500Y-2965000D02*
X13687500Y-3075000D01*
X13687500Y-2965000D02*
X13577500Y-3075000D01*
X13632500Y-2965000D02*
X13632500Y-3075000D01*
X13577500Y-3020000D02*
X13687500Y-3020000D01*
X13577500Y-3415000D02*
X13687500Y-3525000D01*
X13687500Y-3415000D02*
X13577500Y-3525000D01*
X13632500Y-3415000D02*
X13632500Y-3525000D01*
X13577500Y-3470000D02*
X13687500Y-3470000D01*
X13912500Y-6112500D02*
X14022500Y-6222500D01*
X14022500Y-6112500D02*
X13912500Y-6222500D01*
X13967500Y-6112500D02*
X13967500Y-6222500D01*
X13912500Y-6167500D02*
X14022500Y-6167500D01*
X13912500Y-6562500D02*
X14022500Y-6672500D01*
X14022500Y-6562500D02*
X13912500Y-6672500D01*
X13967500Y-6562500D02*
X13967500Y-6672500D01*
X13912500Y-6617500D02*
X14022500Y-6617500D01*
X14348000Y-2921000D02*
X14458000Y-3031000D01*
X14458000Y-2921000D02*
X14348000Y-3031000D01*
X14403000Y-2921000D02*
X14403000Y-3031000D01*
X14348000Y-2976000D02*
X14458000Y-2976000D01*
X14348000Y-3371000D02*
X14458000Y-3481000D01*
X14458000Y-3371000D02*
X14348000Y-3481000D01*
X14403000Y-3371000D02*
X14403000Y-3481000D01*
X14348000Y-3426000D02*
X14458000Y-3426000D01*
X14349000Y-3800000D02*
X14459000Y-3910000D01*
X14459000Y-3800000D02*
X14349000Y-3910000D01*
X14404000Y-3800000D02*
X14404000Y-3910000D01*
X14349000Y-3855000D02*
X14459000Y-3855000D01*
X14349000Y-4250000D02*
X14459000Y-4360000D01*
X14459000Y-4250000D02*
X14349000Y-4360000D01*
X14404000Y-4250000D02*
X14404000Y-4360000D01*
X14349000Y-4305000D02*
X14459000Y-4305000D01*
X14349000Y-4674000D02*
X14459000Y-4784000D01*
X14459000Y-4674000D02*
X14349000Y-4784000D01*
X14404000Y-4674000D02*
X14404000Y-4784000D01*
X14349000Y-4729000D02*
X14459000Y-4729000D01*
X14349000Y-5124000D02*
X14459000Y-5234000D01*
X14459000Y-5124000D02*
X14349000Y-5234000D01*
X14404000Y-5124000D02*
X14404000Y-5234000D01*
X14349000Y-5179000D02*
X14459000Y-5179000D01*
X14349000Y-5552000D02*
X14459000Y-5662000D01*
X14459000Y-5552000D02*
X14349000Y-5662000D01*
X14404000Y-5552000D02*
X14404000Y-5662000D01*
X14349000Y-5607000D02*
X14459000Y-5607000D01*
X14349000Y-6002000D02*
X14459000Y-6112000D01*
X14459000Y-6002000D02*
X14349000Y-6112000D01*
X14404000Y-6002000D02*
X14404000Y-6112000D01*
X14349000Y-6057000D02*
X14459000Y-6057000D01*
X14998000Y-2921000D02*
X15108000Y-3031000D01*
X15108000Y-2921000D02*
X14998000Y-3031000D01*
X15053000Y-2921000D02*
X15053000Y-3031000D01*
X14998000Y-2976000D02*
X15108000Y-2976000D01*
X14998000Y-3371000D02*
X15108000Y-3481000D01*
X15108000Y-3371000D02*
X14998000Y-3481000D01*
X15053000Y-3371000D02*
X15053000Y-3481000D01*
X14998000Y-3426000D02*
X15108000Y-3426000D01*
X14999000Y-3800000D02*
X15109000Y-3910000D01*
X15109000Y-3800000D02*
X14999000Y-3910000D01*
X15054000Y-3800000D02*
X15054000Y-3910000D01*
X14999000Y-3855000D02*
X15109000Y-3855000D01*
X14999000Y-4250000D02*
X15109000Y-4360000D01*
X15109000Y-4250000D02*
X14999000Y-4360000D01*
X15054000Y-4250000D02*
X15054000Y-4360000D01*
X14999000Y-4305000D02*
X15109000Y-4305000D01*
X14999000Y-4674000D02*
X15109000Y-4784000D01*
X15109000Y-4674000D02*
X14999000Y-4784000D01*
X15054000Y-4674000D02*
X15054000Y-4784000D01*
X14999000Y-4729000D02*
X15109000Y-4729000D01*
X14999000Y-5124000D02*
X15109000Y-5234000D01*
X15109000Y-5124000D02*
X14999000Y-5234000D01*
X15054000Y-5124000D02*
X15054000Y-5234000D01*
X14999000Y-5179000D02*
X15109000Y-5179000D01*
X14999000Y-5552000D02*
X15109000Y-5662000D01*
X15109000Y-5552000D02*
X14999000Y-5662000D01*
X15054000Y-5552000D02*
X15054000Y-5662000D01*
X14999000Y-5607000D02*
X15109000Y-5607000D01*
X14999000Y-6002000D02*
X15109000Y-6112000D01*
X15109000Y-6002000D02*
X14999000Y-6112000D01*
X15054000Y-6002000D02*
X15054000Y-6112000D01*
X14999000Y-6057000D02*
X15109000Y-6057000D01*
X15298000Y-2921000D02*
X15408000Y-3031000D01*
X15408000Y-2921000D02*
X15298000Y-3031000D01*
X15353000Y-2921000D02*
X15353000Y-3031000D01*
X15298000Y-2976000D02*
X15408000Y-2976000D01*
X15298000Y-3371000D02*
X15408000Y-3481000D01*
X15408000Y-3371000D02*
X15298000Y-3481000D01*
X15353000Y-3371000D02*
X15353000Y-3481000D01*
X15298000Y-3426000D02*
X15408000Y-3426000D01*
X15299000Y-3800000D02*
X15409000Y-3910000D01*
X15409000Y-3800000D02*
X15299000Y-3910000D01*
X15354000Y-3800000D02*
X15354000Y-3910000D01*
X15299000Y-3855000D02*
X15409000Y-3855000D01*
X15299000Y-4250000D02*
X15409000Y-4360000D01*
X15409000Y-4250000D02*
X15299000Y-4360000D01*
X15354000Y-4250000D02*
X15354000Y-4360000D01*
X15299000Y-4305000D02*
X15409000Y-4305000D01*
X15299000Y-4674000D02*
X15409000Y-4784000D01*
X15409000Y-4674000D02*
X15299000Y-4784000D01*
X15354000Y-4674000D02*
X15354000Y-4784000D01*
X15299000Y-4729000D02*
X15409000Y-4729000D01*
X15299000Y-5124000D02*
X15409000Y-5234000D01*
X15409000Y-5124000D02*
X15299000Y-5234000D01*
X15354000Y-5124000D02*
X15354000Y-5234000D01*
X15299000Y-5179000D02*
X15409000Y-5179000D01*
X15299000Y-5552000D02*
X15409000Y-5662000D01*
X15409000Y-5552000D02*
X15299000Y-5662000D01*
X15354000Y-5552000D02*
X15354000Y-5662000D01*
X15299000Y-5607000D02*
X15409000Y-5607000D01*
X15299000Y-6002000D02*
X15409000Y-6112000D01*
X15409000Y-6002000D02*
X15299000Y-6112000D01*
X15354000Y-6002000D02*
X15354000Y-6112000D01*
X15299000Y-6057000D02*
X15409000Y-6057000D01*
X15948000Y-2921000D02*
X16058000Y-3031000D01*
X16058000Y-2921000D02*
X15948000Y-3031000D01*
X16003000Y-2921000D02*
X16003000Y-3031000D01*
X15948000Y-2976000D02*
X16058000Y-2976000D01*
X15948000Y-3371000D02*
X16058000Y-3481000D01*
X16058000Y-3371000D02*
X15948000Y-3481000D01*
X16003000Y-3371000D02*
X16003000Y-3481000D01*
X15948000Y-3426000D02*
X16058000Y-3426000D01*
X15949000Y-3800000D02*
X16059000Y-3910000D01*
X16059000Y-3800000D02*
X15949000Y-3910000D01*
X16004000Y-3800000D02*
X16004000Y-3910000D01*
X15949000Y-3855000D02*
X16059000Y-3855000D01*
X15949000Y-4250000D02*
X16059000Y-4360000D01*
X16059000Y-4250000D02*
X15949000Y-4360000D01*
X16004000Y-4250000D02*
X16004000Y-4360000D01*
X15949000Y-4305000D02*
X16059000Y-4305000D01*
X15949000Y-4674000D02*
X16059000Y-4784000D01*
X16059000Y-4674000D02*
X15949000Y-4784000D01*
X16004000Y-4674000D02*
X16004000Y-4784000D01*
X15949000Y-4729000D02*
X16059000Y-4729000D01*
X15949000Y-5124000D02*
X16059000Y-5234000D01*
X16059000Y-5124000D02*
X15949000Y-5234000D01*
X16004000Y-5124000D02*
X16004000Y-5234000D01*
X15949000Y-5179000D02*
X16059000Y-5179000D01*
X15949000Y-5552000D02*
X16059000Y-5662000D01*
X16059000Y-5552000D02*
X15949000Y-5662000D01*
X16004000Y-5552000D02*
X16004000Y-5662000D01*
X15949000Y-5607000D02*
X16059000Y-5607000D01*
X15949000Y-6002000D02*
X16059000Y-6112000D01*
X16059000Y-6002000D02*
X15949000Y-6112000D01*
X16004000Y-6002000D02*
X16004000Y-6112000D01*
X15949000Y-6057000D02*
X16059000Y-6057000D01*
X16248000Y-2921000D02*
X16358000Y-3031000D01*
X16358000Y-2921000D02*
X16248000Y-3031000D01*
X16303000Y-2921000D02*
X16303000Y-3031000D01*
X16248000Y-2976000D02*
X16358000Y-2976000D01*
X16248000Y-3371000D02*
X16358000Y-3481000D01*
X16358000Y-3371000D02*
X16248000Y-3481000D01*
X16303000Y-3371000D02*
X16303000Y-3481000D01*
X16248000Y-3426000D02*
X16358000Y-3426000D01*
X16249000Y-3800000D02*
X16359000Y-3910000D01*
X16359000Y-3800000D02*
X16249000Y-3910000D01*
X16304000Y-3800000D02*
X16304000Y-3910000D01*
X16249000Y-3855000D02*
X16359000Y-3855000D01*
X16249000Y-4250000D02*
X16359000Y-4360000D01*
X16359000Y-4250000D02*
X16249000Y-4360000D01*
X16304000Y-4250000D02*
X16304000Y-4360000D01*
X16249000Y-4305000D02*
X16359000Y-4305000D01*
X16249000Y-4674000D02*
X16359000Y-4784000D01*
X16359000Y-4674000D02*
X16249000Y-4784000D01*
X16304000Y-4674000D02*
X16304000Y-4784000D01*
X16249000Y-4729000D02*
X16359000Y-4729000D01*
X16249000Y-5124000D02*
X16359000Y-5234000D01*
X16359000Y-5124000D02*
X16249000Y-5234000D01*
X16304000Y-5124000D02*
X16304000Y-5234000D01*
X16249000Y-5179000D02*
X16359000Y-5179000D01*
X16249000Y-5552000D02*
X16359000Y-5662000D01*
X16359000Y-5552000D02*
X16249000Y-5662000D01*
X16304000Y-5552000D02*
X16304000Y-5662000D01*
X16249000Y-5607000D02*
X16359000Y-5607000D01*
X16249000Y-6002000D02*
X16359000Y-6112000D01*
X16359000Y-6002000D02*
X16249000Y-6112000D01*
X16304000Y-6002000D02*
X16304000Y-6112000D01*
X16249000Y-6057000D02*
X16359000Y-6057000D01*
X16898000Y-2921000D02*
X17008000Y-3031000D01*
X17008000Y-2921000D02*
X16898000Y-3031000D01*
X16953000Y-2921000D02*
X16953000Y-3031000D01*
X16898000Y-2976000D02*
X17008000Y-2976000D01*
X16898000Y-3371000D02*
X17008000Y-3481000D01*
X17008000Y-3371000D02*
X16898000Y-3481000D01*
X16953000Y-3371000D02*
X16953000Y-3481000D01*
X16898000Y-3426000D02*
X17008000Y-3426000D01*
X16899000Y-3800000D02*
X17009000Y-3910000D01*
X17009000Y-3800000D02*
X16899000Y-3910000D01*
X16954000Y-3800000D02*
X16954000Y-3910000D01*
X16899000Y-3855000D02*
X17009000Y-3855000D01*
X16899000Y-4250000D02*
X17009000Y-4360000D01*
X17009000Y-4250000D02*
X16899000Y-4360000D01*
X16954000Y-4250000D02*
X16954000Y-4360000D01*
X16899000Y-4305000D02*
X17009000Y-4305000D01*
X16899000Y-4674000D02*
X17009000Y-4784000D01*
X17009000Y-4674000D02*
X16899000Y-4784000D01*
X16954000Y-4674000D02*
X16954000Y-4784000D01*
X16899000Y-4729000D02*
X17009000Y-4729000D01*
X16899000Y-5124000D02*
X17009000Y-5234000D01*
X17009000Y-5124000D02*
X16899000Y-5234000D01*
X16954000Y-5124000D02*
X16954000Y-5234000D01*
X16899000Y-5179000D02*
X17009000Y-5179000D01*
X16899000Y-5552000D02*
X17009000Y-5662000D01*
X17009000Y-5552000D02*
X16899000Y-5662000D01*
X16954000Y-5552000D02*
X16954000Y-5662000D01*
X16899000Y-5607000D02*
X17009000Y-5607000D01*
X16899000Y-6002000D02*
X17009000Y-6112000D01*
X17009000Y-6002000D02*
X16899000Y-6112000D01*
X16954000Y-6002000D02*
X16954000Y-6112000D01*
X16899000Y-6057000D02*
X17009000Y-6057000D01*
D18*
X7392500Y-14800000D02*
X7522500Y-14930000D01*
X7522500Y-14800000D02*
X7392500Y-14930000D01*
X7503462Y-14910962D02*
X7503462Y-14819038D01*
X7411538Y-14819038D01*
X7411538Y-14910962D01*
X7503462Y-14910962D01*
X7592500Y-14200000D02*
X7722500Y-14330000D01*
X7722500Y-14200000D02*
X7592500Y-14330000D01*
X7703462Y-14310962D02*
X7703462Y-14219038D01*
X7611538Y-14219038D01*
X7611538Y-14310962D01*
X7703462Y-14310962D01*
X7592500Y-15400000D02*
X7722500Y-15530000D01*
X7722500Y-15400000D02*
X7592500Y-15530000D01*
X7703462Y-15510962D02*
X7703462Y-15419038D01*
X7611538Y-15419038D01*
X7611538Y-15510962D01*
X7703462Y-15510962D01*
X8812500Y-14200000D02*
X8942500Y-14330000D01*
X8942500Y-14200000D02*
X8812500Y-14330000D01*
X8923462Y-14310962D02*
X8923462Y-14219038D01*
X8831538Y-14219038D01*
X8831538Y-14310962D01*
X8923462Y-14310962D01*
X8812500Y-15400000D02*
X8942500Y-15530000D01*
X8942500Y-15400000D02*
X8812500Y-15530000D01*
X8923462Y-15510962D02*
X8923462Y-15419038D01*
X8831538Y-15419038D01*
X8831538Y-15510962D01*
X8923462Y-15510962D01*
X15930000Y-9082500D02*
X16060000Y-9212500D01*
X16060000Y-9082500D02*
X15930000Y-9212500D01*
X16040962Y-9193462D02*
X16040962Y-9101538D01*
X15949038Y-9101538D01*
X15949038Y-9193462D01*
X16040962Y-9193462D01*
X15930000Y-10282500D02*
X16060000Y-10412500D01*
X16060000Y-10282500D02*
X15930000Y-10412500D01*
X16040962Y-10393462D02*
X16040962Y-10301538D01*
X15949038Y-10301538D01*
X15949038Y-10393462D01*
X16040962Y-10393462D01*
X15978250Y-6616500D02*
X16108250Y-6746500D01*
X16108250Y-6616500D02*
X15978250Y-6746500D01*
X16089212Y-6727462D02*
X16089212Y-6635538D01*
X15997288Y-6635538D01*
X15997288Y-6727462D01*
X16089212Y-6727462D01*
X15978250Y-7816500D02*
X16108250Y-7946500D01*
X16108250Y-7816500D02*
X15978250Y-7946500D01*
X16089212Y-7927462D02*
X16089212Y-7835538D01*
X15997288Y-7835538D01*
X15997288Y-7927462D01*
X16089212Y-7927462D01*
X17150000Y-9082500D02*
X17280000Y-9212500D01*
X17280000Y-9082500D02*
X17150000Y-9212500D01*
X17260962Y-9193462D02*
X17260962Y-9101538D01*
X17169038Y-9101538D01*
X17169038Y-9193462D01*
X17260962Y-9193462D01*
X17150000Y-10282500D02*
X17280000Y-10412500D01*
X17280000Y-10282500D02*
X17150000Y-10412500D01*
X17260962Y-10393462D02*
X17260962Y-10301538D01*
X17169038Y-10301538D01*
X17169038Y-10393462D01*
X17260962Y-10393462D01*
X17198250Y-6616500D02*
X17328250Y-6746500D01*
X17328250Y-6616500D02*
X17198250Y-6746500D01*
X17309212Y-6727462D02*
X17309212Y-6635538D01*
X17217288Y-6635538D01*
X17217288Y-6727462D01*
X17309212Y-6727462D01*
X17198250Y-7816500D02*
X17328250Y-7946500D01*
X17328250Y-7816500D02*
X17198250Y-7946500D01*
X17309212Y-7927462D02*
X17309212Y-7835538D01*
X17217288Y-7835538D01*
X17217288Y-7927462D01*
X17309212Y-7927462D01*
X17350000Y-9682500D02*
X17480000Y-9812500D01*
X17480000Y-9682500D02*
X17350000Y-9812500D01*
X17460962Y-9793462D02*
X17460962Y-9701538D01*
X17369038Y-9701538D01*
X17369038Y-9793462D01*
X17460962Y-9793462D01*
X17398250Y-7216500D02*
X17528250Y-7346500D01*
X17528250Y-7216500D02*
X17398250Y-7346500D01*
X17509212Y-7327462D02*
X17509212Y-7235538D01*
X17417288Y-7235538D01*
X17417288Y-7327462D01*
X17509212Y-7327462D01*
D19*
X3584000Y-9183500D02*
X3736000Y-9335500D01*
X3736000Y-9183500D02*
X3584000Y-9335500D01*
X3660000Y-9335500D02*
X3736000Y-9259500D01*
X3660000Y-9183500D01*
X3584000Y-9259500D01*
X3660000Y-9335500D01*
X3584000Y-9691500D02*
X3736000Y-9843500D01*
X3736000Y-9691500D02*
X3584000Y-9843500D01*
X3660000Y-9843500D02*
X3736000Y-9767500D01*
X3660000Y-9691500D01*
X3584000Y-9767500D01*
X3660000Y-9843500D01*
X3584000Y-10199500D02*
X3736000Y-10351500D01*
X3736000Y-10199500D02*
X3584000Y-10351500D01*
X3660000Y-10351500D02*
X3736000Y-10275500D01*
X3660000Y-10199500D01*
X3584000Y-10275500D01*
X3660000Y-10351500D01*
X17986500Y-6693500D02*
X18138500Y-6845500D01*
X18138500Y-6693500D02*
X17986500Y-6845500D01*
X18062500Y-6845500D02*
X18138500Y-6769500D01*
X18062500Y-6693500D01*
X17986500Y-6769500D01*
X18062500Y-6845500D01*
X17986500Y-7201500D02*
X18138500Y-7353500D01*
X18138500Y-7201500D02*
X17986500Y-7353500D01*
X18062500Y-7353500D02*
X18138500Y-7277500D01*
X18062500Y-7201500D01*
X17986500Y-7277500D01*
X18062500Y-7353500D01*
X17986500Y-7709500D02*
X18138500Y-7861500D01*
X18138500Y-7709500D02*
X17986500Y-7861500D01*
X18062500Y-7861500D02*
X18138500Y-7785500D01*
X18062500Y-7709500D01*
X17986500Y-7785500D01*
X18062500Y-7861500D01*
X17986500Y-9156000D02*
X18138500Y-9308000D01*
X18138500Y-9156000D02*
X17986500Y-9308000D01*
X18062500Y-9308000D02*
X18138500Y-9232000D01*
X18062500Y-9156000D01*
X17986500Y-9232000D01*
X18062500Y-9308000D01*
X17986500Y-9664000D02*
X18138500Y-9816000D01*
X18138500Y-9664000D02*
X17986500Y-9816000D01*
X18062500Y-9816000D02*
X18138500Y-9740000D01*
X18062500Y-9664000D01*
X17986500Y-9740000D01*
X18062500Y-9816000D01*
X17986500Y-10172000D02*
X18138500Y-10324000D01*
X18138500Y-10172000D02*
X17986500Y-10324000D01*
X18062500Y-10324000D02*
X18138500Y-10248000D01*
X18062500Y-10172000D01*
X17986500Y-10248000D01*
X18062500Y-10324000D01*
D10*
X3472619Y-16695476D02*
X3472619Y-16495476D01*
X3520238Y-16495476D01*
X3548809Y-16505000D01*
X3567857Y-16524048D01*
X3577381Y-16543095D01*
X3586905Y-16581190D01*
X3586905Y-16609762D01*
X3577381Y-16647857D01*
X3567857Y-16666905D01*
X3548809Y-16685952D01*
X3520238Y-16695476D01*
X3472619Y-16695476D01*
X3672619Y-16695476D02*
X3672619Y-16562143D01*
X3672619Y-16600238D02*
X3682143Y-16581190D01*
X3691667Y-16571667D01*
X3710714Y-16562143D01*
X3729762Y-16562143D01*
X3796428Y-16695476D02*
X3796428Y-16562143D01*
X3796428Y-16495476D02*
X3786905Y-16505000D01*
X3796428Y-16514524D01*
X3805952Y-16505000D01*
X3796428Y-16495476D01*
X3796428Y-16514524D01*
X3920238Y-16695476D02*
X3901190Y-16685952D01*
X3891667Y-16666905D01*
X3891667Y-16495476D01*
X4025000Y-16695476D02*
X4005952Y-16685952D01*
X3996428Y-16666905D01*
X3996428Y-16495476D01*
X4253571Y-16695476D02*
X4253571Y-16495476D01*
X4320238Y-16638333D01*
X4386905Y-16495476D01*
X4386905Y-16695476D01*
X4567857Y-16695476D02*
X4567857Y-16590714D01*
X4558333Y-16571667D01*
X4539286Y-16562143D01*
X4501190Y-16562143D01*
X4482143Y-16571667D01*
X4567857Y-16685952D02*
X4548810Y-16695476D01*
X4501190Y-16695476D01*
X4482143Y-16685952D01*
X4472619Y-16666905D01*
X4472619Y-16647857D01*
X4482143Y-16628809D01*
X4501190Y-16619286D01*
X4548810Y-16619286D01*
X4567857Y-16609762D01*
X4663095Y-16562143D02*
X4663095Y-16762143D01*
X4663095Y-16571667D02*
X4682143Y-16562143D01*
X4720238Y-16562143D01*
X4739286Y-16571667D01*
X4748810Y-16581190D01*
X4758333Y-16600238D01*
X4758333Y-16657381D01*
X4748810Y-16676428D01*
X4739286Y-16685952D01*
X4720238Y-16695476D01*
X4682143Y-16695476D01*
X4663095Y-16685952D01*
X4844048Y-16676428D02*
X4853571Y-16685952D01*
X4844048Y-16695476D01*
X4834524Y-16685952D01*
X4844048Y-16676428D01*
X4844048Y-16695476D01*
X4844048Y-16571667D02*
X4853571Y-16581190D01*
X4844048Y-16590714D01*
X4834524Y-16581190D01*
X4844048Y-16571667D01*
X4844048Y-16590714D01*
D12*
X3145000Y-16990000D02*
X3215000Y-17060000D01*
X3215000Y-16990000D02*
X3145000Y-17060000D01*
D10*
X3510714Y-16915476D02*
X3529762Y-16915476D01*
X3548809Y-16925000D01*
X3558333Y-16934524D01*
X3567857Y-16953571D01*
X3577381Y-16991667D01*
X3577381Y-17039286D01*
X3567857Y-17077381D01*
X3558333Y-17096429D01*
X3548809Y-17105952D01*
X3529762Y-17115476D01*
X3510714Y-17115476D01*
X3491667Y-17105952D01*
X3482143Y-17096429D01*
X3472619Y-17077381D01*
X3463095Y-17039286D01*
X3463095Y-16991667D01*
X3472619Y-16953571D01*
X3482143Y-16934524D01*
X3491667Y-16925000D01*
X3510714Y-16915476D01*
X3663095Y-17096429D02*
X3672619Y-17105952D01*
X3663095Y-17115476D01*
X3653571Y-17105952D01*
X3663095Y-17096429D01*
X3663095Y-17115476D01*
X3739286Y-16915476D02*
X3872619Y-16915476D01*
X3786905Y-17115476D01*
X3986905Y-16915476D02*
X4005952Y-16915476D01*
X4025000Y-16925000D01*
X4034524Y-16934524D01*
X4044048Y-16953571D01*
X4053571Y-16991667D01*
X4053571Y-17039286D01*
X4044048Y-17077381D01*
X4034524Y-17096429D01*
X4025000Y-17105952D01*
X4005952Y-17115476D01*
X3986905Y-17115476D01*
X3967857Y-17105952D01*
X3958333Y-17096429D01*
X3948809Y-17077381D01*
X3939286Y-17039286D01*
X3939286Y-16991667D01*
X3948809Y-16953571D01*
X3958333Y-16934524D01*
X3967857Y-16925000D01*
X3986905Y-16915476D01*
X4177381Y-16915476D02*
X4196429Y-16915476D01*
X4215476Y-16925000D01*
X4225000Y-16934524D01*
X4234524Y-16953571D01*
X4244048Y-16991667D01*
X4244048Y-17039286D01*
X4234524Y-17077381D01*
X4225000Y-17096429D01*
X4215476Y-17105952D01*
X4196429Y-17115476D01*
X4177381Y-17115476D01*
X4158333Y-17105952D01*
X4148809Y-17096429D01*
X4139286Y-17077381D01*
X4129762Y-17039286D01*
X4129762Y-16991667D01*
X4139286Y-16953571D01*
X4148809Y-16934524D01*
X4158333Y-16925000D01*
X4177381Y-16915476D01*
X4329762Y-17115476D02*
X4329762Y-16982143D01*
X4329762Y-17001190D02*
X4339286Y-16991667D01*
X4358333Y-16982143D01*
X4386905Y-16982143D01*
X4405952Y-16991667D01*
X4415476Y-17010714D01*
X4415476Y-17115476D01*
X4415476Y-17010714D02*
X4425000Y-16991667D01*
X4444048Y-16982143D01*
X4472619Y-16982143D01*
X4491667Y-16991667D01*
X4501190Y-17010714D01*
X4501190Y-17115476D01*
X4596429Y-17115476D02*
X4596429Y-16982143D01*
X4596429Y-17001190D02*
X4605952Y-16991667D01*
X4625000Y-16982143D01*
X4653571Y-16982143D01*
X4672619Y-16991667D01*
X4682143Y-17010714D01*
X4682143Y-17115476D01*
X4682143Y-17010714D02*
X4691667Y-16991667D01*
X4710714Y-16982143D01*
X4739286Y-16982143D01*
X4758333Y-16991667D01*
X4767857Y-17010714D01*
X4767857Y-17115476D01*
X5158333Y-16905952D02*
X4986905Y-17163095D01*
X5415476Y-16915476D02*
X5434524Y-16915476D01*
X5453571Y-16925000D01*
X5463095Y-16934524D01*
X5472619Y-16953571D01*
X5482143Y-16991667D01*
X5482143Y-17039286D01*
X5472619Y-17077381D01*
X5463095Y-17096429D01*
X5453571Y-17105952D01*
X5434524Y-17115476D01*
X5415476Y-17115476D01*
X5396429Y-17105952D01*
X5386905Y-17096429D01*
X5377381Y-17077381D01*
X5367857Y-17039286D01*
X5367857Y-16991667D01*
X5377381Y-16953571D01*
X5386905Y-16934524D01*
X5396429Y-16925000D01*
X5415476Y-16915476D01*
X5567857Y-17096429D02*
X5577381Y-17105952D01*
X5567857Y-17115476D01*
X5558333Y-17105952D01*
X5567857Y-17096429D01*
X5567857Y-17115476D01*
X5701190Y-16915476D02*
X5720238Y-16915476D01*
X5739286Y-16925000D01*
X5748809Y-16934524D01*
X5758333Y-16953571D01*
X5767857Y-16991667D01*
X5767857Y-17039286D01*
X5758333Y-17077381D01*
X5748809Y-17096429D01*
X5739286Y-17105952D01*
X5720238Y-17115476D01*
X5701190Y-17115476D01*
X5682143Y-17105952D01*
X5672619Y-17096429D01*
X5663095Y-17077381D01*
X5653571Y-17039286D01*
X5653571Y-16991667D01*
X5663095Y-16953571D01*
X5672619Y-16934524D01*
X5682143Y-16925000D01*
X5701190Y-16915476D01*
X5844048Y-16934524D02*
X5853571Y-16925000D01*
X5872619Y-16915476D01*
X5920238Y-16915476D01*
X5939286Y-16925000D01*
X5948809Y-16934524D01*
X5958333Y-16953571D01*
X5958333Y-16972619D01*
X5948809Y-17001190D01*
X5834524Y-17115476D01*
X5958333Y-17115476D01*
X6025000Y-16915476D02*
X6158333Y-16915476D01*
X6072619Y-17115476D01*
X6320238Y-16915476D02*
X6282143Y-16915476D01*
X6263095Y-16925000D01*
X6253571Y-16934524D01*
X6234524Y-16963095D01*
X6225000Y-17001190D01*
X6225000Y-17077381D01*
X6234524Y-17096429D01*
X6244048Y-17105952D01*
X6263095Y-17115476D01*
X6301190Y-17115476D01*
X6320238Y-17105952D01*
X6329762Y-17096429D01*
X6339286Y-17077381D01*
X6339286Y-17029762D01*
X6329762Y-17010714D01*
X6320238Y-17001190D01*
X6301190Y-16991667D01*
X6263095Y-16991667D01*
X6244048Y-17001190D01*
X6234524Y-17010714D01*
X6225000Y-17029762D01*
X6415476Y-16915476D02*
X6415476Y-16953571D01*
X6491667Y-16915476D02*
X6491667Y-16953571D01*
X6786905Y-17191667D02*
X6777381Y-17182143D01*
X6758333Y-17153571D01*
X6748809Y-17134524D01*
X6739286Y-17105952D01*
X6729762Y-17058333D01*
X6729762Y-17020238D01*
X6739286Y-16972619D01*
X6748809Y-16944048D01*
X6758333Y-16925000D01*
X6777381Y-16896429D01*
X6786905Y-16886905D01*
X6891667Y-17001190D02*
X6872619Y-16991667D01*
X6863095Y-16982143D01*
X6853571Y-16963095D01*
X6853571Y-16953571D01*
X6863095Y-16934524D01*
X6872619Y-16925000D01*
X6891667Y-16915476D01*
X6929762Y-16915476D01*
X6948809Y-16925000D01*
X6958333Y-16934524D01*
X6967857Y-16953571D01*
X6967857Y-16963095D01*
X6958333Y-16982143D01*
X6948809Y-16991667D01*
X6929762Y-17001190D01*
X6891667Y-17001190D01*
X6872619Y-17010714D01*
X6863095Y-17020238D01*
X6853571Y-17039286D01*
X6853571Y-17077381D01*
X6863095Y-17096429D01*
X6872619Y-17105952D01*
X6891667Y-17115476D01*
X6929762Y-17115476D01*
X6948809Y-17105952D01*
X6958333Y-17096429D01*
X6967857Y-17077381D01*
X6967857Y-17039286D01*
X6958333Y-17020238D01*
X6948809Y-17010714D01*
X6929762Y-17001190D01*
X7205952Y-17115476D02*
X7205952Y-16915476D01*
X7291667Y-17115476D02*
X7291667Y-17010714D01*
X7282143Y-16991667D01*
X7263095Y-16982143D01*
X7234524Y-16982143D01*
X7215476Y-16991667D01*
X7205952Y-17001190D01*
X7415476Y-17115476D02*
X7396428Y-17105952D01*
X7386905Y-17096429D01*
X7377381Y-17077381D01*
X7377381Y-17020238D01*
X7386905Y-17001190D01*
X7396428Y-16991667D01*
X7415476Y-16982143D01*
X7444048Y-16982143D01*
X7463095Y-16991667D01*
X7472619Y-17001190D01*
X7482143Y-17020238D01*
X7482143Y-17077381D01*
X7472619Y-17096429D01*
X7463095Y-17105952D01*
X7444048Y-17115476D01*
X7415476Y-17115476D01*
X7596428Y-17115476D02*
X7577381Y-17105952D01*
X7567857Y-17086905D01*
X7567857Y-16915476D01*
X7748809Y-17105952D02*
X7729762Y-17115476D01*
X7691667Y-17115476D01*
X7672619Y-17105952D01*
X7663095Y-17086905D01*
X7663095Y-17010714D01*
X7672619Y-16991667D01*
X7691667Y-16982143D01*
X7729762Y-16982143D01*
X7748809Y-16991667D01*
X7758333Y-17010714D01*
X7758333Y-17029762D01*
X7663095Y-17048810D01*
X7834524Y-17105952D02*
X7853571Y-17115476D01*
X7891667Y-17115476D01*
X7910714Y-17105952D01*
X7920238Y-17086905D01*
X7920238Y-17077381D01*
X7910714Y-17058333D01*
X7891667Y-17048810D01*
X7863095Y-17048810D01*
X7844048Y-17039286D01*
X7834524Y-17020238D01*
X7834524Y-17010714D01*
X7844048Y-16991667D01*
X7863095Y-16982143D01*
X7891667Y-16982143D01*
X7910714Y-16991667D01*
X7986905Y-17191667D02*
X7996428Y-17182143D01*
X8015476Y-17153571D01*
X8025000Y-17134524D01*
X8034524Y-17105952D01*
X8044048Y-17058333D01*
X8044048Y-17020238D01*
X8034524Y-16972619D01*
X8025000Y-16944048D01*
X8015476Y-16925000D01*
X7996428Y-16896429D01*
X7986905Y-16886905D01*
D13*
X3215000Y-17289000D02*
G75*
G03*
X3215000Y-17289000I-38100J0D01*
G01*
D10*
X3510714Y-17179476D02*
X3529762Y-17179476D01*
X3548809Y-17189000D01*
X3558333Y-17198524D01*
X3567857Y-17217571D01*
X3577381Y-17255667D01*
X3577381Y-17303286D01*
X3567857Y-17341381D01*
X3558333Y-17360429D01*
X3548809Y-17369952D01*
X3529762Y-17379476D01*
X3510714Y-17379476D01*
X3491667Y-17369952D01*
X3482143Y-17360429D01*
X3472619Y-17341381D01*
X3463095Y-17303286D01*
X3463095Y-17255667D01*
X3472619Y-17217571D01*
X3482143Y-17198524D01*
X3491667Y-17189000D01*
X3510714Y-17179476D01*
X3663095Y-17360429D02*
X3672619Y-17369952D01*
X3663095Y-17379476D01*
X3653571Y-17369952D01*
X3663095Y-17360429D01*
X3663095Y-17379476D01*
X3739286Y-17179476D02*
X3872619Y-17179476D01*
X3786905Y-17379476D01*
X4034524Y-17179476D02*
X3996428Y-17179476D01*
X3977381Y-17189000D01*
X3967857Y-17198524D01*
X3948809Y-17227095D01*
X3939286Y-17265190D01*
X3939286Y-17341381D01*
X3948809Y-17360429D01*
X3958333Y-17369952D01*
X3977381Y-17379476D01*
X4015476Y-17379476D01*
X4034524Y-17369952D01*
X4044048Y-17360429D01*
X4053571Y-17341381D01*
X4053571Y-17293762D01*
X4044048Y-17274714D01*
X4034524Y-17265190D01*
X4015476Y-17255667D01*
X3977381Y-17255667D01*
X3958333Y-17265190D01*
X3948809Y-17274714D01*
X3939286Y-17293762D01*
X4129762Y-17198524D02*
X4139286Y-17189000D01*
X4158333Y-17179476D01*
X4205952Y-17179476D01*
X4225000Y-17189000D01*
X4234524Y-17198524D01*
X4244048Y-17217571D01*
X4244048Y-17236619D01*
X4234524Y-17265190D01*
X4120238Y-17379476D01*
X4244048Y-17379476D01*
X4329762Y-17379476D02*
X4329762Y-17246143D01*
X4329762Y-17265190D02*
X4339286Y-17255667D01*
X4358333Y-17246143D01*
X4386905Y-17246143D01*
X4405952Y-17255667D01*
X4415476Y-17274714D01*
X4415476Y-17379476D01*
X4415476Y-17274714D02*
X4425000Y-17255667D01*
X4444048Y-17246143D01*
X4472619Y-17246143D01*
X4491667Y-17255667D01*
X4501190Y-17274714D01*
X4501190Y-17379476D01*
X4596429Y-17379476D02*
X4596429Y-17246143D01*
X4596429Y-17265190D02*
X4605952Y-17255667D01*
X4625000Y-17246143D01*
X4653571Y-17246143D01*
X4672619Y-17255667D01*
X4682143Y-17274714D01*
X4682143Y-17379476D01*
X4682143Y-17274714D02*
X4691667Y-17255667D01*
X4710714Y-17246143D01*
X4739286Y-17246143D01*
X4758333Y-17255667D01*
X4767857Y-17274714D01*
X4767857Y-17379476D01*
X5158333Y-17169952D02*
X4986905Y-17427095D01*
X5415476Y-17179476D02*
X5434524Y-17179476D01*
X5453571Y-17189000D01*
X5463095Y-17198524D01*
X5472619Y-17217571D01*
X5482143Y-17255667D01*
X5482143Y-17303286D01*
X5472619Y-17341381D01*
X5463095Y-17360429D01*
X5453571Y-17369952D01*
X5434524Y-17379476D01*
X5415476Y-17379476D01*
X5396429Y-17369952D01*
X5386905Y-17360429D01*
X5377381Y-17341381D01*
X5367857Y-17303286D01*
X5367857Y-17255667D01*
X5377381Y-17217571D01*
X5386905Y-17198524D01*
X5396429Y-17189000D01*
X5415476Y-17179476D01*
X5567857Y-17360429D02*
X5577381Y-17369952D01*
X5567857Y-17379476D01*
X5558333Y-17369952D01*
X5567857Y-17360429D01*
X5567857Y-17379476D01*
X5701190Y-17179476D02*
X5720238Y-17179476D01*
X5739286Y-17189000D01*
X5748809Y-17198524D01*
X5758333Y-17217571D01*
X5767857Y-17255667D01*
X5767857Y-17303286D01*
X5758333Y-17341381D01*
X5748809Y-17360429D01*
X5739286Y-17369952D01*
X5720238Y-17379476D01*
X5701190Y-17379476D01*
X5682143Y-17369952D01*
X5672619Y-17360429D01*
X5663095Y-17341381D01*
X5653571Y-17303286D01*
X5653571Y-17255667D01*
X5663095Y-17217571D01*
X5672619Y-17198524D01*
X5682143Y-17189000D01*
X5701190Y-17179476D01*
X5834524Y-17179476D02*
X5958333Y-17179476D01*
X5891667Y-17255667D01*
X5920238Y-17255667D01*
X5939286Y-17265190D01*
X5948809Y-17274714D01*
X5958333Y-17293762D01*
X5958333Y-17341381D01*
X5948809Y-17360429D01*
X5939286Y-17369952D01*
X5920238Y-17379476D01*
X5863095Y-17379476D01*
X5844048Y-17369952D01*
X5834524Y-17360429D01*
X6082143Y-17179476D02*
X6101190Y-17179476D01*
X6120238Y-17189000D01*
X6129762Y-17198524D01*
X6139286Y-17217571D01*
X6148809Y-17255667D01*
X6148809Y-17303286D01*
X6139286Y-17341381D01*
X6129762Y-17360429D01*
X6120238Y-17369952D01*
X6101190Y-17379476D01*
X6082143Y-17379476D01*
X6063095Y-17369952D01*
X6053571Y-17360429D01*
X6044048Y-17341381D01*
X6034524Y-17303286D01*
X6034524Y-17255667D01*
X6044048Y-17217571D01*
X6053571Y-17198524D01*
X6063095Y-17189000D01*
X6082143Y-17179476D01*
X6272619Y-17179476D02*
X6291667Y-17179476D01*
X6310714Y-17189000D01*
X6320238Y-17198524D01*
X6329762Y-17217571D01*
X6339286Y-17255667D01*
X6339286Y-17303286D01*
X6329762Y-17341381D01*
X6320238Y-17360429D01*
X6310714Y-17369952D01*
X6291667Y-17379476D01*
X6272619Y-17379476D01*
X6253571Y-17369952D01*
X6244048Y-17360429D01*
X6234524Y-17341381D01*
X6225000Y-17303286D01*
X6225000Y-17255667D01*
X6234524Y-17217571D01*
X6244048Y-17198524D01*
X6253571Y-17189000D01*
X6272619Y-17179476D01*
X6415476Y-17179476D02*
X6415476Y-17217571D01*
X6491667Y-17179476D02*
X6491667Y-17217571D01*
X6786905Y-17455667D02*
X6777381Y-17446143D01*
X6758333Y-17417571D01*
X6748809Y-17398524D01*
X6739286Y-17369952D01*
X6729762Y-17322333D01*
X6729762Y-17284238D01*
X6739286Y-17236619D01*
X6748809Y-17208048D01*
X6758333Y-17189000D01*
X6777381Y-17160429D01*
X6786905Y-17150905D01*
X6844048Y-17179476D02*
X6967857Y-17179476D01*
X6901190Y-17255667D01*
X6929762Y-17255667D01*
X6948809Y-17265190D01*
X6958333Y-17274714D01*
X6967857Y-17293762D01*
X6967857Y-17341381D01*
X6958333Y-17360429D01*
X6948809Y-17369952D01*
X6929762Y-17379476D01*
X6872619Y-17379476D01*
X6853571Y-17369952D01*
X6844048Y-17360429D01*
X7205952Y-17379476D02*
X7205952Y-17179476D01*
X7291667Y-17379476D02*
X7291667Y-17274714D01*
X7282143Y-17255667D01*
X7263095Y-17246143D01*
X7234524Y-17246143D01*
X7215476Y-17255667D01*
X7205952Y-17265190D01*
X7415476Y-17379476D02*
X7396428Y-17369952D01*
X7386905Y-17360429D01*
X7377381Y-17341381D01*
X7377381Y-17284238D01*
X7386905Y-17265190D01*
X7396428Y-17255667D01*
X7415476Y-17246143D01*
X7444048Y-17246143D01*
X7463095Y-17255667D01*
X7472619Y-17265190D01*
X7482143Y-17284238D01*
X7482143Y-17341381D01*
X7472619Y-17360429D01*
X7463095Y-17369952D01*
X7444048Y-17379476D01*
X7415476Y-17379476D01*
X7596428Y-17379476D02*
X7577381Y-17369952D01*
X7567857Y-17350905D01*
X7567857Y-17179476D01*
X7748809Y-17369952D02*
X7729762Y-17379476D01*
X7691667Y-17379476D01*
X7672619Y-17369952D01*
X7663095Y-17350905D01*
X7663095Y-17274714D01*
X7672619Y-17255667D01*
X7691667Y-17246143D01*
X7729762Y-17246143D01*
X7748809Y-17255667D01*
X7758333Y-17274714D01*
X7758333Y-17293762D01*
X7663095Y-17312810D01*
X7834524Y-17369952D02*
X7853571Y-17379476D01*
X7891667Y-17379476D01*
X7910714Y-17369952D01*
X7920238Y-17350905D01*
X7920238Y-17341381D01*
X7910714Y-17322333D01*
X7891667Y-17312810D01*
X7863095Y-17312810D01*
X7844048Y-17303286D01*
X7834524Y-17284238D01*
X7834524Y-17274714D01*
X7844048Y-17255667D01*
X7863095Y-17246143D01*
X7891667Y-17246143D01*
X7910714Y-17255667D01*
X7986905Y-17455667D02*
X7996428Y-17446143D01*
X8015476Y-17417571D01*
X8025000Y-17398524D01*
X8034524Y-17369952D01*
X8044048Y-17322333D01*
X8044048Y-17284238D01*
X8034524Y-17236619D01*
X8025000Y-17208048D01*
X8015476Y-17189000D01*
X7996428Y-17160429D01*
X7986905Y-17150905D01*
D14*
X3175000Y-17513000D02*
X3175000Y-17593000D01*
X3135000Y-17553000D02*
X3215000Y-17553000D01*
D10*
X3510714Y-17443476D02*
X3529762Y-17443476D01*
X3548809Y-17453000D01*
X3558333Y-17462524D01*
X3567857Y-17481571D01*
X3577381Y-17519667D01*
X3577381Y-17567286D01*
X3567857Y-17605381D01*
X3558333Y-17624429D01*
X3548809Y-17633952D01*
X3529762Y-17643476D01*
X3510714Y-17643476D01*
X3491667Y-17633952D01*
X3482143Y-17624429D01*
X3472619Y-17605381D01*
X3463095Y-17567286D01*
X3463095Y-17519667D01*
X3472619Y-17481571D01*
X3482143Y-17462524D01*
X3491667Y-17453000D01*
X3510714Y-17443476D01*
X3663095Y-17624429D02*
X3672619Y-17633952D01*
X3663095Y-17643476D01*
X3653571Y-17633952D01*
X3663095Y-17624429D01*
X3663095Y-17643476D01*
X3786905Y-17529190D02*
X3767857Y-17519667D01*
X3758333Y-17510143D01*
X3748809Y-17491095D01*
X3748809Y-17481571D01*
X3758333Y-17462524D01*
X3767857Y-17453000D01*
X3786905Y-17443476D01*
X3825000Y-17443476D01*
X3844048Y-17453000D01*
X3853571Y-17462524D01*
X3863095Y-17481571D01*
X3863095Y-17491095D01*
X3853571Y-17510143D01*
X3844048Y-17519667D01*
X3825000Y-17529190D01*
X3786905Y-17529190D01*
X3767857Y-17538714D01*
X3758333Y-17548238D01*
X3748809Y-17567286D01*
X3748809Y-17605381D01*
X3758333Y-17624429D01*
X3767857Y-17633952D01*
X3786905Y-17643476D01*
X3825000Y-17643476D01*
X3844048Y-17633952D01*
X3853571Y-17624429D01*
X3863095Y-17605381D01*
X3863095Y-17567286D01*
X3853571Y-17548238D01*
X3844048Y-17538714D01*
X3825000Y-17529190D01*
X3986905Y-17443476D02*
X4005952Y-17443476D01*
X4025000Y-17453000D01*
X4034524Y-17462524D01*
X4044048Y-17481571D01*
X4053571Y-17519667D01*
X4053571Y-17567286D01*
X4044048Y-17605381D01*
X4034524Y-17624429D01*
X4025000Y-17633952D01*
X4005952Y-17643476D01*
X3986905Y-17643476D01*
X3967857Y-17633952D01*
X3958333Y-17624429D01*
X3948809Y-17605381D01*
X3939286Y-17567286D01*
X3939286Y-17519667D01*
X3948809Y-17481571D01*
X3958333Y-17462524D01*
X3967857Y-17453000D01*
X3986905Y-17443476D01*
X4177381Y-17443476D02*
X4196429Y-17443476D01*
X4215476Y-17453000D01*
X4225000Y-17462524D01*
X4234524Y-17481571D01*
X4244048Y-17519667D01*
X4244048Y-17567286D01*
X4234524Y-17605381D01*
X4225000Y-17624429D01*
X4215476Y-17633952D01*
X4196429Y-17643476D01*
X4177381Y-17643476D01*
X4158333Y-17633952D01*
X4148809Y-17624429D01*
X4139286Y-17605381D01*
X4129762Y-17567286D01*
X4129762Y-17519667D01*
X4139286Y-17481571D01*
X4148809Y-17462524D01*
X4158333Y-17453000D01*
X4177381Y-17443476D01*
X4329762Y-17643476D02*
X4329762Y-17510143D01*
X4329762Y-17529190D02*
X4339286Y-17519667D01*
X4358333Y-17510143D01*
X4386905Y-17510143D01*
X4405952Y-17519667D01*
X4415476Y-17538714D01*
X4415476Y-17643476D01*
X4415476Y-17538714D02*
X4425000Y-17519667D01*
X4444048Y-17510143D01*
X4472619Y-17510143D01*
X4491667Y-17519667D01*
X4501190Y-17538714D01*
X4501190Y-17643476D01*
X4596429Y-17643476D02*
X4596429Y-17510143D01*
X4596429Y-17529190D02*
X4605952Y-17519667D01*
X4625000Y-17510143D01*
X4653571Y-17510143D01*
X4672619Y-17519667D01*
X4682143Y-17538714D01*
X4682143Y-17643476D01*
X4682143Y-17538714D02*
X4691667Y-17519667D01*
X4710714Y-17510143D01*
X4739286Y-17510143D01*
X4758333Y-17519667D01*
X4767857Y-17538714D01*
X4767857Y-17643476D01*
X5158333Y-17433952D02*
X4986905Y-17691095D01*
X5415476Y-17443476D02*
X5434524Y-17443476D01*
X5453571Y-17453000D01*
X5463095Y-17462524D01*
X5472619Y-17481571D01*
X5482143Y-17519667D01*
X5482143Y-17567286D01*
X5472619Y-17605381D01*
X5463095Y-17624429D01*
X5453571Y-17633952D01*
X5434524Y-17643476D01*
X5415476Y-17643476D01*
X5396429Y-17633952D01*
X5386905Y-17624429D01*
X5377381Y-17605381D01*
X5367857Y-17567286D01*
X5367857Y-17519667D01*
X5377381Y-17481571D01*
X5386905Y-17462524D01*
X5396429Y-17453000D01*
X5415476Y-17443476D01*
X5567857Y-17624429D02*
X5577381Y-17633952D01*
X5567857Y-17643476D01*
X5558333Y-17633952D01*
X5567857Y-17624429D01*
X5567857Y-17643476D01*
X5701190Y-17443476D02*
X5720238Y-17443476D01*
X5739286Y-17453000D01*
X5748809Y-17462524D01*
X5758333Y-17481571D01*
X5767857Y-17519667D01*
X5767857Y-17567286D01*
X5758333Y-17605381D01*
X5748809Y-17624429D01*
X5739286Y-17633952D01*
X5720238Y-17643476D01*
X5701190Y-17643476D01*
X5682143Y-17633952D01*
X5672619Y-17624429D01*
X5663095Y-17605381D01*
X5653571Y-17567286D01*
X5653571Y-17519667D01*
X5663095Y-17481571D01*
X5672619Y-17462524D01*
X5682143Y-17453000D01*
X5701190Y-17443476D01*
X5834524Y-17443476D02*
X5958333Y-17443476D01*
X5891667Y-17519667D01*
X5920238Y-17519667D01*
X5939286Y-17529190D01*
X5948809Y-17538714D01*
X5958333Y-17557762D01*
X5958333Y-17605381D01*
X5948809Y-17624429D01*
X5939286Y-17633952D01*
X5920238Y-17643476D01*
X5863095Y-17643476D01*
X5844048Y-17633952D01*
X5834524Y-17624429D01*
X6148809Y-17643476D02*
X6034524Y-17643476D01*
X6091667Y-17643476D02*
X6091667Y-17443476D01*
X6072619Y-17472048D01*
X6053571Y-17491095D01*
X6034524Y-17500619D01*
X6329762Y-17443476D02*
X6234524Y-17443476D01*
X6225000Y-17538714D01*
X6234524Y-17529190D01*
X6253571Y-17519667D01*
X6301190Y-17519667D01*
X6320238Y-17529190D01*
X6329762Y-17538714D01*
X6339286Y-17557762D01*
X6339286Y-17605381D01*
X6329762Y-17624429D01*
X6320238Y-17633952D01*
X6301190Y-17643476D01*
X6253571Y-17643476D01*
X6234524Y-17633952D01*
X6225000Y-17624429D01*
X6415476Y-17443476D02*
X6415476Y-17481571D01*
X6491667Y-17443476D02*
X6491667Y-17481571D01*
X6786905Y-17719667D02*
X6777381Y-17710143D01*
X6758333Y-17681571D01*
X6748809Y-17662524D01*
X6739286Y-17633952D01*
X6729762Y-17586333D01*
X6729762Y-17548238D01*
X6739286Y-17500619D01*
X6748809Y-17472048D01*
X6758333Y-17453000D01*
X6777381Y-17424429D01*
X6786905Y-17414905D01*
X6853571Y-17462524D02*
X6863095Y-17453000D01*
X6882143Y-17443476D01*
X6929762Y-17443476D01*
X6948809Y-17453000D01*
X6958333Y-17462524D01*
X6967857Y-17481571D01*
X6967857Y-17500619D01*
X6958333Y-17529190D01*
X6844048Y-17643476D01*
X6967857Y-17643476D01*
X7063095Y-17643476D02*
X7101190Y-17643476D01*
X7120238Y-17633952D01*
X7129762Y-17624429D01*
X7148809Y-17595857D01*
X7158333Y-17557762D01*
X7158333Y-17481571D01*
X7148809Y-17462524D01*
X7139286Y-17453000D01*
X7120238Y-17443476D01*
X7082143Y-17443476D01*
X7063095Y-17453000D01*
X7053571Y-17462524D01*
X7044048Y-17481571D01*
X7044048Y-17529190D01*
X7053571Y-17548238D01*
X7063095Y-17557762D01*
X7082143Y-17567286D01*
X7120238Y-17567286D01*
X7139286Y-17557762D01*
X7148809Y-17548238D01*
X7158333Y-17529190D01*
X7253571Y-17643476D02*
X7291667Y-17643476D01*
X7310714Y-17633952D01*
X7320238Y-17624429D01*
X7339286Y-17595857D01*
X7348809Y-17557762D01*
X7348809Y-17481571D01*
X7339286Y-17462524D01*
X7329762Y-17453000D01*
X7310714Y-17443476D01*
X7272619Y-17443476D01*
X7253571Y-17453000D01*
X7244048Y-17462524D01*
X7234524Y-17481571D01*
X7234524Y-17529190D01*
X7244048Y-17548238D01*
X7253571Y-17557762D01*
X7272619Y-17567286D01*
X7310714Y-17567286D01*
X7329762Y-17557762D01*
X7339286Y-17548238D01*
X7348809Y-17529190D01*
X7586905Y-17643476D02*
X7586905Y-17443476D01*
X7672619Y-17643476D02*
X7672619Y-17538714D01*
X7663095Y-17519667D01*
X7644048Y-17510143D01*
X7615476Y-17510143D01*
X7596428Y-17519667D01*
X7586905Y-17529190D01*
X7796428Y-17643476D02*
X7777381Y-17633952D01*
X7767857Y-17624429D01*
X7758333Y-17605381D01*
X7758333Y-17548238D01*
X7767857Y-17529190D01*
X7777381Y-17519667D01*
X7796428Y-17510143D01*
X7825000Y-17510143D01*
X7844048Y-17519667D01*
X7853571Y-17529190D01*
X7863095Y-17548238D01*
X7863095Y-17605381D01*
X7853571Y-17624429D01*
X7844048Y-17633952D01*
X7825000Y-17643476D01*
X7796428Y-17643476D01*
X7977381Y-17643476D02*
X7958333Y-17633952D01*
X7948809Y-17614905D01*
X7948809Y-17443476D01*
X8129762Y-17633952D02*
X8110714Y-17643476D01*
X8072619Y-17643476D01*
X8053571Y-17633952D01*
X8044048Y-17614905D01*
X8044048Y-17538714D01*
X8053571Y-17519667D01*
X8072619Y-17510143D01*
X8110714Y-17510143D01*
X8129762Y-17519667D01*
X8139286Y-17538714D01*
X8139286Y-17557762D01*
X8044048Y-17576810D01*
X8215476Y-17633952D02*
X8234524Y-17643476D01*
X8272619Y-17643476D01*
X8291667Y-17633952D01*
X8301190Y-17614905D01*
X8301190Y-17605381D01*
X8291667Y-17586333D01*
X8272619Y-17576810D01*
X8244048Y-17576810D01*
X8225000Y-17567286D01*
X8215476Y-17548238D01*
X8215476Y-17538714D01*
X8225000Y-17519667D01*
X8244048Y-17510143D01*
X8272619Y-17510143D01*
X8291667Y-17519667D01*
X8367857Y-17719667D02*
X8377381Y-17710143D01*
X8396429Y-17681571D01*
X8405952Y-17662524D01*
X8415476Y-17633952D01*
X8425000Y-17586333D01*
X8425000Y-17548238D01*
X8415476Y-17500619D01*
X8405952Y-17472048D01*
X8396429Y-17453000D01*
X8377381Y-17424429D01*
X8367857Y-17414905D01*
D15*
X3201820Y-17848820D02*
X3201820Y-17785180D01*
X3138180Y-17785180D01*
X3138180Y-17848820D01*
X3201820Y-17848820D01*
D10*
X3510714Y-17707476D02*
X3529762Y-17707476D01*
X3548809Y-17717000D01*
X3558333Y-17726524D01*
X3567857Y-17745571D01*
X3577381Y-17783667D01*
X3577381Y-17831286D01*
X3567857Y-17869381D01*
X3558333Y-17888429D01*
X3548809Y-17897952D01*
X3529762Y-17907476D01*
X3510714Y-17907476D01*
X3491667Y-17897952D01*
X3482143Y-17888429D01*
X3472619Y-17869381D01*
X3463095Y-17831286D01*
X3463095Y-17783667D01*
X3472619Y-17745571D01*
X3482143Y-17726524D01*
X3491667Y-17717000D01*
X3510714Y-17707476D01*
X3663095Y-17888429D02*
X3672619Y-17897952D01*
X3663095Y-17907476D01*
X3653571Y-17897952D01*
X3663095Y-17888429D01*
X3663095Y-17907476D01*
X3767857Y-17907476D02*
X3805952Y-17907476D01*
X3825000Y-17897952D01*
X3834524Y-17888429D01*
X3853571Y-17859857D01*
X3863095Y-17821762D01*
X3863095Y-17745571D01*
X3853571Y-17726524D01*
X3844048Y-17717000D01*
X3825000Y-17707476D01*
X3786905Y-17707476D01*
X3767857Y-17717000D01*
X3758333Y-17726524D01*
X3748809Y-17745571D01*
X3748809Y-17793190D01*
X3758333Y-17812238D01*
X3767857Y-17821762D01*
X3786905Y-17831286D01*
X3825000Y-17831286D01*
X3844048Y-17821762D01*
X3853571Y-17812238D01*
X3863095Y-17793190D01*
X3986905Y-17707476D02*
X4005952Y-17707476D01*
X4025000Y-17717000D01*
X4034524Y-17726524D01*
X4044048Y-17745571D01*
X4053571Y-17783667D01*
X4053571Y-17831286D01*
X4044048Y-17869381D01*
X4034524Y-17888429D01*
X4025000Y-17897952D01*
X4005952Y-17907476D01*
X3986905Y-17907476D01*
X3967857Y-17897952D01*
X3958333Y-17888429D01*
X3948809Y-17869381D01*
X3939286Y-17831286D01*
X3939286Y-17783667D01*
X3948809Y-17745571D01*
X3958333Y-17726524D01*
X3967857Y-17717000D01*
X3986905Y-17707476D01*
X4177381Y-17707476D02*
X4196429Y-17707476D01*
X4215476Y-17717000D01*
X4225000Y-17726524D01*
X4234524Y-17745571D01*
X4244048Y-17783667D01*
X4244048Y-17831286D01*
X4234524Y-17869381D01*
X4225000Y-17888429D01*
X4215476Y-17897952D01*
X4196429Y-17907476D01*
X4177381Y-17907476D01*
X4158333Y-17897952D01*
X4148809Y-17888429D01*
X4139286Y-17869381D01*
X4129762Y-17831286D01*
X4129762Y-17783667D01*
X4139286Y-17745571D01*
X4148809Y-17726524D01*
X4158333Y-17717000D01*
X4177381Y-17707476D01*
X4329762Y-17907476D02*
X4329762Y-17774143D01*
X4329762Y-17793190D02*
X4339286Y-17783667D01*
X4358333Y-17774143D01*
X4386905Y-17774143D01*
X4405952Y-17783667D01*
X4415476Y-17802714D01*
X4415476Y-17907476D01*
X4415476Y-17802714D02*
X4425000Y-17783667D01*
X4444048Y-17774143D01*
X4472619Y-17774143D01*
X4491667Y-17783667D01*
X4501190Y-17802714D01*
X4501190Y-17907476D01*
X4596429Y-17907476D02*
X4596429Y-17774143D01*
X4596429Y-17793190D02*
X4605952Y-17783667D01*
X4625000Y-17774143D01*
X4653571Y-17774143D01*
X4672619Y-17783667D01*
X4682143Y-17802714D01*
X4682143Y-17907476D01*
X4682143Y-17802714D02*
X4691667Y-17783667D01*
X4710714Y-17774143D01*
X4739286Y-17774143D01*
X4758333Y-17783667D01*
X4767857Y-17802714D01*
X4767857Y-17907476D01*
X5158333Y-17697952D02*
X4986905Y-17955095D01*
X5415476Y-17707476D02*
X5434524Y-17707476D01*
X5453571Y-17717000D01*
X5463095Y-17726524D01*
X5472619Y-17745571D01*
X5482143Y-17783667D01*
X5482143Y-17831286D01*
X5472619Y-17869381D01*
X5463095Y-17888429D01*
X5453571Y-17897952D01*
X5434524Y-17907476D01*
X5415476Y-17907476D01*
X5396429Y-17897952D01*
X5386905Y-17888429D01*
X5377381Y-17869381D01*
X5367857Y-17831286D01*
X5367857Y-17783667D01*
X5377381Y-17745571D01*
X5386905Y-17726524D01*
X5396429Y-17717000D01*
X5415476Y-17707476D01*
X5567857Y-17888429D02*
X5577381Y-17897952D01*
X5567857Y-17907476D01*
X5558333Y-17897952D01*
X5567857Y-17888429D01*
X5567857Y-17907476D01*
X5701190Y-17707476D02*
X5720238Y-17707476D01*
X5739286Y-17717000D01*
X5748809Y-17726524D01*
X5758333Y-17745571D01*
X5767857Y-17783667D01*
X5767857Y-17831286D01*
X5758333Y-17869381D01*
X5748809Y-17888429D01*
X5739286Y-17897952D01*
X5720238Y-17907476D01*
X5701190Y-17907476D01*
X5682143Y-17897952D01*
X5672619Y-17888429D01*
X5663095Y-17869381D01*
X5653571Y-17831286D01*
X5653571Y-17783667D01*
X5663095Y-17745571D01*
X5672619Y-17726524D01*
X5682143Y-17717000D01*
X5701190Y-17707476D01*
X5834524Y-17707476D02*
X5958333Y-17707476D01*
X5891667Y-17783667D01*
X5920238Y-17783667D01*
X5939286Y-17793190D01*
X5948809Y-17802714D01*
X5958333Y-17821762D01*
X5958333Y-17869381D01*
X5948809Y-17888429D01*
X5939286Y-17897952D01*
X5920238Y-17907476D01*
X5863095Y-17907476D01*
X5844048Y-17897952D01*
X5834524Y-17888429D01*
X6139286Y-17707476D02*
X6044048Y-17707476D01*
X6034524Y-17802714D01*
X6044048Y-17793190D01*
X6063095Y-17783667D01*
X6110714Y-17783667D01*
X6129762Y-17793190D01*
X6139286Y-17802714D01*
X6148809Y-17821762D01*
X6148809Y-17869381D01*
X6139286Y-17888429D01*
X6129762Y-17897952D01*
X6110714Y-17907476D01*
X6063095Y-17907476D01*
X6044048Y-17897952D01*
X6034524Y-17888429D01*
X6320238Y-17774143D02*
X6320238Y-17907476D01*
X6272619Y-17697952D02*
X6225000Y-17840810D01*
X6348809Y-17840810D01*
X6415476Y-17707476D02*
X6415476Y-17745571D01*
X6491667Y-17707476D02*
X6491667Y-17745571D01*
X6786905Y-17983667D02*
X6777381Y-17974143D01*
X6758333Y-17945571D01*
X6748809Y-17926524D01*
X6739286Y-17897952D01*
X6729762Y-17850333D01*
X6729762Y-17812238D01*
X6739286Y-17764619D01*
X6748809Y-17736048D01*
X6758333Y-17717000D01*
X6777381Y-17688429D01*
X6786905Y-17678905D01*
X6967857Y-17907476D02*
X6853571Y-17907476D01*
X6910714Y-17907476D02*
X6910714Y-17707476D01*
X6891667Y-17736048D01*
X6872619Y-17755095D01*
X6853571Y-17764619D01*
X7044048Y-17726524D02*
X7053571Y-17717000D01*
X7072619Y-17707476D01*
X7120238Y-17707476D01*
X7139286Y-17717000D01*
X7148809Y-17726524D01*
X7158333Y-17745571D01*
X7158333Y-17764619D01*
X7148809Y-17793190D01*
X7034524Y-17907476D01*
X7158333Y-17907476D01*
X7272619Y-17793190D02*
X7253571Y-17783667D01*
X7244048Y-17774143D01*
X7234524Y-17755095D01*
X7234524Y-17745571D01*
X7244048Y-17726524D01*
X7253571Y-17717000D01*
X7272619Y-17707476D01*
X7310714Y-17707476D01*
X7329762Y-17717000D01*
X7339286Y-17726524D01*
X7348809Y-17745571D01*
X7348809Y-17755095D01*
X7339286Y-17774143D01*
X7329762Y-17783667D01*
X7310714Y-17793190D01*
X7272619Y-17793190D01*
X7253571Y-17802714D01*
X7244048Y-17812238D01*
X7234524Y-17831286D01*
X7234524Y-17869381D01*
X7244048Y-17888429D01*
X7253571Y-17897952D01*
X7272619Y-17907476D01*
X7310714Y-17907476D01*
X7329762Y-17897952D01*
X7339286Y-17888429D01*
X7348809Y-17869381D01*
X7348809Y-17831286D01*
X7339286Y-17812238D01*
X7329762Y-17802714D01*
X7310714Y-17793190D01*
X7586905Y-17907476D02*
X7586905Y-17707476D01*
X7672619Y-17907476D02*
X7672619Y-17802714D01*
X7663095Y-17783667D01*
X7644048Y-17774143D01*
X7615476Y-17774143D01*
X7596428Y-17783667D01*
X7586905Y-17793190D01*
X7796428Y-17907476D02*
X7777381Y-17897952D01*
X7767857Y-17888429D01*
X7758333Y-17869381D01*
X7758333Y-17812238D01*
X7767857Y-17793190D01*
X7777381Y-17783667D01*
X7796428Y-17774143D01*
X7825000Y-17774143D01*
X7844048Y-17783667D01*
X7853571Y-17793190D01*
X7863095Y-17812238D01*
X7863095Y-17869381D01*
X7853571Y-17888429D01*
X7844048Y-17897952D01*
X7825000Y-17907476D01*
X7796428Y-17907476D01*
X7977381Y-17907476D02*
X7958333Y-17897952D01*
X7948809Y-17878905D01*
X7948809Y-17707476D01*
X8129762Y-17897952D02*
X8110714Y-17907476D01*
X8072619Y-17907476D01*
X8053571Y-17897952D01*
X8044048Y-17878905D01*
X8044048Y-17802714D01*
X8053571Y-17783667D01*
X8072619Y-17774143D01*
X8110714Y-17774143D01*
X8129762Y-17783667D01*
X8139286Y-17802714D01*
X8139286Y-17821762D01*
X8044048Y-17840810D01*
X8215476Y-17897952D02*
X8234524Y-17907476D01*
X8272619Y-17907476D01*
X8291667Y-17897952D01*
X8301190Y-17878905D01*
X8301190Y-17869381D01*
X8291667Y-17850333D01*
X8272619Y-17840810D01*
X8244048Y-17840810D01*
X8225000Y-17831286D01*
X8215476Y-17812238D01*
X8215476Y-17802714D01*
X8225000Y-17783667D01*
X8244048Y-17774143D01*
X8272619Y-17774143D01*
X8291667Y-17783667D01*
X8367857Y-17983667D02*
X8377381Y-17974143D01*
X8396429Y-17945571D01*
X8405952Y-17926524D01*
X8415476Y-17897952D01*
X8425000Y-17850333D01*
X8425000Y-17812238D01*
X8415476Y-17764619D01*
X8405952Y-17736048D01*
X8396429Y-17717000D01*
X8377381Y-17688429D01*
X8367857Y-17678905D01*
D16*
X3167500Y-18128500D02*
X3215000Y-18081000D01*
X3167500Y-18033500D01*
X3120000Y-18081000D01*
X3167500Y-18128500D01*
D10*
X3510714Y-17971476D02*
X3529762Y-17971476D01*
X3548809Y-17981000D01*
X3558333Y-17990524D01*
X3567857Y-18009571D01*
X3577381Y-18047667D01*
X3577381Y-18095286D01*
X3567857Y-18133381D01*
X3558333Y-18152429D01*
X3548809Y-18161952D01*
X3529762Y-18171476D01*
X3510714Y-18171476D01*
X3491667Y-18161952D01*
X3482143Y-18152429D01*
X3472619Y-18133381D01*
X3463095Y-18095286D01*
X3463095Y-18047667D01*
X3472619Y-18009571D01*
X3482143Y-17990524D01*
X3491667Y-17981000D01*
X3510714Y-17971476D01*
X3663095Y-18152429D02*
X3672619Y-18161952D01*
X3663095Y-18171476D01*
X3653571Y-18161952D01*
X3663095Y-18152429D01*
X3663095Y-18171476D01*
X3767857Y-18171476D02*
X3805952Y-18171476D01*
X3825000Y-18161952D01*
X3834524Y-18152429D01*
X3853571Y-18123857D01*
X3863095Y-18085762D01*
X3863095Y-18009571D01*
X3853571Y-17990524D01*
X3844048Y-17981000D01*
X3825000Y-17971476D01*
X3786905Y-17971476D01*
X3767857Y-17981000D01*
X3758333Y-17990524D01*
X3748809Y-18009571D01*
X3748809Y-18057190D01*
X3758333Y-18076238D01*
X3767857Y-18085762D01*
X3786905Y-18095286D01*
X3825000Y-18095286D01*
X3844048Y-18085762D01*
X3853571Y-18076238D01*
X3863095Y-18057190D01*
X4044048Y-17971476D02*
X3948809Y-17971476D01*
X3939286Y-18066714D01*
X3948809Y-18057190D01*
X3967857Y-18047667D01*
X4015476Y-18047667D01*
X4034524Y-18057190D01*
X4044048Y-18066714D01*
X4053571Y-18085762D01*
X4053571Y-18133381D01*
X4044048Y-18152429D01*
X4034524Y-18161952D01*
X4015476Y-18171476D01*
X3967857Y-18171476D01*
X3948809Y-18161952D01*
X3939286Y-18152429D01*
X4177381Y-17971476D02*
X4196429Y-17971476D01*
X4215476Y-17981000D01*
X4225000Y-17990524D01*
X4234524Y-18009571D01*
X4244048Y-18047667D01*
X4244048Y-18095286D01*
X4234524Y-18133381D01*
X4225000Y-18152429D01*
X4215476Y-18161952D01*
X4196429Y-18171476D01*
X4177381Y-18171476D01*
X4158333Y-18161952D01*
X4148809Y-18152429D01*
X4139286Y-18133381D01*
X4129762Y-18095286D01*
X4129762Y-18047667D01*
X4139286Y-18009571D01*
X4148809Y-17990524D01*
X4158333Y-17981000D01*
X4177381Y-17971476D01*
X4329762Y-18171476D02*
X4329762Y-18038143D01*
X4329762Y-18057190D02*
X4339286Y-18047667D01*
X4358333Y-18038143D01*
X4386905Y-18038143D01*
X4405952Y-18047667D01*
X4415476Y-18066714D01*
X4415476Y-18171476D01*
X4415476Y-18066714D02*
X4425000Y-18047667D01*
X4444048Y-18038143D01*
X4472619Y-18038143D01*
X4491667Y-18047667D01*
X4501190Y-18066714D01*
X4501190Y-18171476D01*
X4596429Y-18171476D02*
X4596429Y-18038143D01*
X4596429Y-18057190D02*
X4605952Y-18047667D01*
X4625000Y-18038143D01*
X4653571Y-18038143D01*
X4672619Y-18047667D01*
X4682143Y-18066714D01*
X4682143Y-18171476D01*
X4682143Y-18066714D02*
X4691667Y-18047667D01*
X4710714Y-18038143D01*
X4739286Y-18038143D01*
X4758333Y-18047667D01*
X4767857Y-18066714D01*
X4767857Y-18171476D01*
X5158333Y-17961952D02*
X4986905Y-18219095D01*
X5415476Y-17971476D02*
X5434524Y-17971476D01*
X5453571Y-17981000D01*
X5463095Y-17990524D01*
X5472619Y-18009571D01*
X5482143Y-18047667D01*
X5482143Y-18095286D01*
X5472619Y-18133381D01*
X5463095Y-18152429D01*
X5453571Y-18161952D01*
X5434524Y-18171476D01*
X5415476Y-18171476D01*
X5396429Y-18161952D01*
X5386905Y-18152429D01*
X5377381Y-18133381D01*
X5367857Y-18095286D01*
X5367857Y-18047667D01*
X5377381Y-18009571D01*
X5386905Y-17990524D01*
X5396429Y-17981000D01*
X5415476Y-17971476D01*
X5567857Y-18152429D02*
X5577381Y-18161952D01*
X5567857Y-18171476D01*
X5558333Y-18161952D01*
X5567857Y-18152429D01*
X5567857Y-18171476D01*
X5701190Y-17971476D02*
X5720238Y-17971476D01*
X5739286Y-17981000D01*
X5748809Y-17990524D01*
X5758333Y-18009571D01*
X5767857Y-18047667D01*
X5767857Y-18095286D01*
X5758333Y-18133381D01*
X5748809Y-18152429D01*
X5739286Y-18161952D01*
X5720238Y-18171476D01*
X5701190Y-18171476D01*
X5682143Y-18161952D01*
X5672619Y-18152429D01*
X5663095Y-18133381D01*
X5653571Y-18095286D01*
X5653571Y-18047667D01*
X5663095Y-18009571D01*
X5672619Y-17990524D01*
X5682143Y-17981000D01*
X5701190Y-17971476D01*
X5834524Y-17971476D02*
X5958333Y-17971476D01*
X5891667Y-18047667D01*
X5920238Y-18047667D01*
X5939286Y-18057190D01*
X5948809Y-18066714D01*
X5958333Y-18085762D01*
X5958333Y-18133381D01*
X5948809Y-18152429D01*
X5939286Y-18161952D01*
X5920238Y-18171476D01*
X5863095Y-18171476D01*
X5844048Y-18161952D01*
X5834524Y-18152429D01*
X6025000Y-17971476D02*
X6158333Y-17971476D01*
X6072619Y-18171476D01*
X6320238Y-18038143D02*
X6320238Y-18171476D01*
X6272619Y-17961952D02*
X6225000Y-18104810D01*
X6348809Y-18104810D01*
X6415476Y-17971476D02*
X6415476Y-18009571D01*
X6491667Y-17971476D02*
X6491667Y-18009571D01*
X6786905Y-18247667D02*
X6777381Y-18238143D01*
X6758333Y-18209571D01*
X6748809Y-18190524D01*
X6739286Y-18161952D01*
X6729762Y-18114333D01*
X6729762Y-18076238D01*
X6739286Y-18028619D01*
X6748809Y-18000048D01*
X6758333Y-17981000D01*
X6777381Y-17952429D01*
X6786905Y-17942905D01*
X6948809Y-17971476D02*
X6910714Y-17971476D01*
X6891667Y-17981000D01*
X6882143Y-17990524D01*
X6863095Y-18019095D01*
X6853571Y-18057190D01*
X6853571Y-18133381D01*
X6863095Y-18152429D01*
X6872619Y-18161952D01*
X6891667Y-18171476D01*
X6929762Y-18171476D01*
X6948809Y-18161952D01*
X6958333Y-18152429D01*
X6967857Y-18133381D01*
X6967857Y-18085762D01*
X6958333Y-18066714D01*
X6948809Y-18057190D01*
X6929762Y-18047667D01*
X6891667Y-18047667D01*
X6872619Y-18057190D01*
X6863095Y-18066714D01*
X6853571Y-18085762D01*
X7205952Y-18171476D02*
X7205952Y-17971476D01*
X7291667Y-18171476D02*
X7291667Y-18066714D01*
X7282143Y-18047667D01*
X7263095Y-18038143D01*
X7234524Y-18038143D01*
X7215476Y-18047667D01*
X7205952Y-18057190D01*
X7415476Y-18171476D02*
X7396428Y-18161952D01*
X7386905Y-18152429D01*
X7377381Y-18133381D01*
X7377381Y-18076238D01*
X7386905Y-18057190D01*
X7396428Y-18047667D01*
X7415476Y-18038143D01*
X7444048Y-18038143D01*
X7463095Y-18047667D01*
X7472619Y-18057190D01*
X7482143Y-18076238D01*
X7482143Y-18133381D01*
X7472619Y-18152429D01*
X7463095Y-18161952D01*
X7444048Y-18171476D01*
X7415476Y-18171476D01*
X7596428Y-18171476D02*
X7577381Y-18161952D01*
X7567857Y-18142905D01*
X7567857Y-17971476D01*
X7748809Y-18161952D02*
X7729762Y-18171476D01*
X7691667Y-18171476D01*
X7672619Y-18161952D01*
X7663095Y-18142905D01*
X7663095Y-18066714D01*
X7672619Y-18047667D01*
X7691667Y-18038143D01*
X7729762Y-18038143D01*
X7748809Y-18047667D01*
X7758333Y-18066714D01*
X7758333Y-18085762D01*
X7663095Y-18104810D01*
X7834524Y-18161952D02*
X7853571Y-18171476D01*
X7891667Y-18171476D01*
X7910714Y-18161952D01*
X7920238Y-18142905D01*
X7920238Y-18133381D01*
X7910714Y-18114333D01*
X7891667Y-18104810D01*
X7863095Y-18104810D01*
X7844048Y-18095286D01*
X7834524Y-18076238D01*
X7834524Y-18066714D01*
X7844048Y-18047667D01*
X7863095Y-18038143D01*
X7891667Y-18038143D01*
X7910714Y-18047667D01*
X7986905Y-18247667D02*
X7996428Y-18238143D01*
X8015476Y-18209571D01*
X8025000Y-18190524D01*
X8034524Y-18161952D01*
X8044048Y-18114333D01*
X8044048Y-18076238D01*
X8034524Y-18028619D01*
X8025000Y-18000048D01*
X8015476Y-17981000D01*
X7996428Y-17952429D01*
X7986905Y-17942905D01*
D11*
X3115000Y-18295000D02*
X3215000Y-18395000D01*
X3215000Y-18295000D02*
X3115000Y-18395000D01*
X3215000Y-18345000D02*
G75*
G03*
X3215000Y-18345000I-50000J0D01*
G01*
D10*
X3577381Y-18435476D02*
X3463095Y-18435476D01*
X3520238Y-18435476D02*
X3520238Y-18235476D01*
X3501190Y-18264048D01*
X3482143Y-18283095D01*
X3463095Y-18292619D01*
X3663095Y-18416429D02*
X3672619Y-18425952D01*
X3663095Y-18435476D01*
X3653571Y-18425952D01*
X3663095Y-18416429D01*
X3663095Y-18435476D01*
X3796428Y-18235476D02*
X3815476Y-18235476D01*
X3834524Y-18245000D01*
X3844048Y-18254524D01*
X3853571Y-18273571D01*
X3863095Y-18311667D01*
X3863095Y-18359286D01*
X3853571Y-18397381D01*
X3844048Y-18416429D01*
X3834524Y-18425952D01*
X3815476Y-18435476D01*
X3796428Y-18435476D01*
X3777381Y-18425952D01*
X3767857Y-18416429D01*
X3758333Y-18397381D01*
X3748809Y-18359286D01*
X3748809Y-18311667D01*
X3758333Y-18273571D01*
X3767857Y-18254524D01*
X3777381Y-18245000D01*
X3796428Y-18235476D01*
X3986905Y-18235476D02*
X4005952Y-18235476D01*
X4025000Y-18245000D01*
X4034524Y-18254524D01*
X4044048Y-18273571D01*
X4053571Y-18311667D01*
X4053571Y-18359286D01*
X4044048Y-18397381D01*
X4034524Y-18416429D01*
X4025000Y-18425952D01*
X4005952Y-18435476D01*
X3986905Y-18435476D01*
X3967857Y-18425952D01*
X3958333Y-18416429D01*
X3948809Y-18397381D01*
X3939286Y-18359286D01*
X3939286Y-18311667D01*
X3948809Y-18273571D01*
X3958333Y-18254524D01*
X3967857Y-18245000D01*
X3986905Y-18235476D01*
X4177381Y-18235476D02*
X4196429Y-18235476D01*
X4215476Y-18245000D01*
X4225000Y-18254524D01*
X4234524Y-18273571D01*
X4244048Y-18311667D01*
X4244048Y-18359286D01*
X4234524Y-18397381D01*
X4225000Y-18416429D01*
X4215476Y-18425952D01*
X4196429Y-18435476D01*
X4177381Y-18435476D01*
X4158333Y-18425952D01*
X4148809Y-18416429D01*
X4139286Y-18397381D01*
X4129762Y-18359286D01*
X4129762Y-18311667D01*
X4139286Y-18273571D01*
X4148809Y-18254524D01*
X4158333Y-18245000D01*
X4177381Y-18235476D01*
X4329762Y-18435476D02*
X4329762Y-18302143D01*
X4329762Y-18321190D02*
X4339286Y-18311667D01*
X4358333Y-18302143D01*
X4386905Y-18302143D01*
X4405952Y-18311667D01*
X4415476Y-18330714D01*
X4415476Y-18435476D01*
X4415476Y-18330714D02*
X4425000Y-18311667D01*
X4444048Y-18302143D01*
X4472619Y-18302143D01*
X4491667Y-18311667D01*
X4501190Y-18330714D01*
X4501190Y-18435476D01*
X4596429Y-18435476D02*
X4596429Y-18302143D01*
X4596429Y-18321190D02*
X4605952Y-18311667D01*
X4625000Y-18302143D01*
X4653571Y-18302143D01*
X4672619Y-18311667D01*
X4682143Y-18330714D01*
X4682143Y-18435476D01*
X4682143Y-18330714D02*
X4691667Y-18311667D01*
X4710714Y-18302143D01*
X4739286Y-18302143D01*
X4758333Y-18311667D01*
X4767857Y-18330714D01*
X4767857Y-18435476D01*
X5158333Y-18225952D02*
X4986905Y-18483095D01*
X5415476Y-18235476D02*
X5434524Y-18235476D01*
X5453571Y-18245000D01*
X5463095Y-18254524D01*
X5472619Y-18273571D01*
X5482143Y-18311667D01*
X5482143Y-18359286D01*
X5472619Y-18397381D01*
X5463095Y-18416429D01*
X5453571Y-18425952D01*
X5434524Y-18435476D01*
X5415476Y-18435476D01*
X5396429Y-18425952D01*
X5386905Y-18416429D01*
X5377381Y-18397381D01*
X5367857Y-18359286D01*
X5367857Y-18311667D01*
X5377381Y-18273571D01*
X5386905Y-18254524D01*
X5396429Y-18245000D01*
X5415476Y-18235476D01*
X5567857Y-18416429D02*
X5577381Y-18425952D01*
X5567857Y-18435476D01*
X5558333Y-18425952D01*
X5567857Y-18416429D01*
X5567857Y-18435476D01*
X5701190Y-18235476D02*
X5720238Y-18235476D01*
X5739286Y-18245000D01*
X5748809Y-18254524D01*
X5758333Y-18273571D01*
X5767857Y-18311667D01*
X5767857Y-18359286D01*
X5758333Y-18397381D01*
X5748809Y-18416429D01*
X5739286Y-18425952D01*
X5720238Y-18435476D01*
X5701190Y-18435476D01*
X5682143Y-18425952D01*
X5672619Y-18416429D01*
X5663095Y-18397381D01*
X5653571Y-18359286D01*
X5653571Y-18311667D01*
X5663095Y-18273571D01*
X5672619Y-18254524D01*
X5682143Y-18245000D01*
X5701190Y-18235476D01*
X5834524Y-18235476D02*
X5958333Y-18235476D01*
X5891667Y-18311667D01*
X5920238Y-18311667D01*
X5939286Y-18321190D01*
X5948809Y-18330714D01*
X5958333Y-18349762D01*
X5958333Y-18397381D01*
X5948809Y-18416429D01*
X5939286Y-18425952D01*
X5920238Y-18435476D01*
X5863095Y-18435476D01*
X5844048Y-18425952D01*
X5834524Y-18416429D01*
X6053571Y-18435476D02*
X6091667Y-18435476D01*
X6110714Y-18425952D01*
X6120238Y-18416429D01*
X6139286Y-18387857D01*
X6148809Y-18349762D01*
X6148809Y-18273571D01*
X6139286Y-18254524D01*
X6129762Y-18245000D01*
X6110714Y-18235476D01*
X6072619Y-18235476D01*
X6053571Y-18245000D01*
X6044048Y-18254524D01*
X6034524Y-18273571D01*
X6034524Y-18321190D01*
X6044048Y-18340238D01*
X6053571Y-18349762D01*
X6072619Y-18359286D01*
X6110714Y-18359286D01*
X6129762Y-18349762D01*
X6139286Y-18340238D01*
X6148809Y-18321190D01*
X6320238Y-18302143D02*
X6320238Y-18435476D01*
X6272619Y-18225952D02*
X6225000Y-18368810D01*
X6348809Y-18368810D01*
X6415476Y-18235476D02*
X6415476Y-18273571D01*
X6491667Y-18235476D02*
X6491667Y-18273571D01*
X6786905Y-18511667D02*
X6777381Y-18502143D01*
X6758333Y-18473571D01*
X6748809Y-18454524D01*
X6739286Y-18425952D01*
X6729762Y-18378333D01*
X6729762Y-18340238D01*
X6739286Y-18292619D01*
X6748809Y-18264048D01*
X6758333Y-18245000D01*
X6777381Y-18216429D01*
X6786905Y-18206905D01*
X6958333Y-18235476D02*
X6863095Y-18235476D01*
X6853571Y-18330714D01*
X6863095Y-18321190D01*
X6882143Y-18311667D01*
X6929762Y-18311667D01*
X6948809Y-18321190D01*
X6958333Y-18330714D01*
X6967857Y-18349762D01*
X6967857Y-18397381D01*
X6958333Y-18416429D01*
X6948809Y-18425952D01*
X6929762Y-18435476D01*
X6882143Y-18435476D01*
X6863095Y-18425952D01*
X6853571Y-18416429D01*
X7034524Y-18235476D02*
X7158333Y-18235476D01*
X7091667Y-18311667D01*
X7120238Y-18311667D01*
X7139286Y-18321190D01*
X7148809Y-18330714D01*
X7158333Y-18349762D01*
X7158333Y-18397381D01*
X7148809Y-18416429D01*
X7139286Y-18425952D01*
X7120238Y-18435476D01*
X7063095Y-18435476D01*
X7044048Y-18425952D01*
X7034524Y-18416429D01*
X7396428Y-18435476D02*
X7396428Y-18235476D01*
X7482143Y-18435476D02*
X7482143Y-18330714D01*
X7472619Y-18311667D01*
X7453571Y-18302143D01*
X7425000Y-18302143D01*
X7405952Y-18311667D01*
X7396428Y-18321190D01*
X7605952Y-18435476D02*
X7586905Y-18425952D01*
X7577381Y-18416429D01*
X7567857Y-18397381D01*
X7567857Y-18340238D01*
X7577381Y-18321190D01*
X7586905Y-18311667D01*
X7605952Y-18302143D01*
X7634524Y-18302143D01*
X7653571Y-18311667D01*
X7663095Y-18321190D01*
X7672619Y-18340238D01*
X7672619Y-18397381D01*
X7663095Y-18416429D01*
X7653571Y-18425952D01*
X7634524Y-18435476D01*
X7605952Y-18435476D01*
X7786905Y-18435476D02*
X7767857Y-18425952D01*
X7758333Y-18406905D01*
X7758333Y-18235476D01*
X7939286Y-18425952D02*
X7920238Y-18435476D01*
X7882143Y-18435476D01*
X7863095Y-18425952D01*
X7853571Y-18406905D01*
X7853571Y-18330714D01*
X7863095Y-18311667D01*
X7882143Y-18302143D01*
X7920238Y-18302143D01*
X7939286Y-18311667D01*
X7948809Y-18330714D01*
X7948809Y-18349762D01*
X7853571Y-18368810D01*
X8025000Y-18425952D02*
X8044048Y-18435476D01*
X8082143Y-18435476D01*
X8101190Y-18425952D01*
X8110714Y-18406905D01*
X8110714Y-18397381D01*
X8101190Y-18378333D01*
X8082143Y-18368810D01*
X8053571Y-18368810D01*
X8034524Y-18359286D01*
X8025000Y-18340238D01*
X8025000Y-18330714D01*
X8034524Y-18311667D01*
X8053571Y-18302143D01*
X8082143Y-18302143D01*
X8101190Y-18311667D01*
X8348809Y-18359286D02*
X8501190Y-18359286D01*
X8425000Y-18435476D02*
X8425000Y-18283095D01*
X8729762Y-18235476D02*
X8853571Y-18235476D01*
X8786905Y-18311667D01*
X8815476Y-18311667D01*
X8834524Y-18321190D01*
X8844048Y-18330714D01*
X8853571Y-18349762D01*
X8853571Y-18397381D01*
X8844048Y-18416429D01*
X8834524Y-18425952D01*
X8815476Y-18435476D01*
X8758333Y-18435476D01*
X8739286Y-18425952D01*
X8729762Y-18416429D01*
X9082143Y-18425952D02*
X9101190Y-18435476D01*
X9139286Y-18435476D01*
X9158333Y-18425952D01*
X9167857Y-18406905D01*
X9167857Y-18397381D01*
X9158333Y-18378333D01*
X9139286Y-18368810D01*
X9110714Y-18368810D01*
X9091667Y-18359286D01*
X9082143Y-18340238D01*
X9082143Y-18330714D01*
X9091667Y-18311667D01*
X9110714Y-18302143D01*
X9139286Y-18302143D01*
X9158333Y-18311667D01*
X9282143Y-18435476D02*
X9263095Y-18425952D01*
X9253571Y-18406905D01*
X9253571Y-18235476D01*
X9386905Y-18435476D02*
X9367857Y-18425952D01*
X9358333Y-18416429D01*
X9348810Y-18397381D01*
X9348810Y-18340238D01*
X9358333Y-18321190D01*
X9367857Y-18311667D01*
X9386905Y-18302143D01*
X9415476Y-18302143D01*
X9434524Y-18311667D01*
X9444048Y-18321190D01*
X9453571Y-18340238D01*
X9453571Y-18397381D01*
X9444048Y-18416429D01*
X9434524Y-18425952D01*
X9415476Y-18435476D01*
X9386905Y-18435476D01*
X9510714Y-18302143D02*
X9586905Y-18302143D01*
X9539286Y-18235476D02*
X9539286Y-18406905D01*
X9548810Y-18425952D01*
X9567857Y-18435476D01*
X9586905Y-18435476D01*
X9644048Y-18425952D02*
X9663095Y-18435476D01*
X9701190Y-18435476D01*
X9720238Y-18425952D01*
X9729762Y-18406905D01*
X9729762Y-18397381D01*
X9720238Y-18378333D01*
X9701190Y-18368810D01*
X9672619Y-18368810D01*
X9653571Y-18359286D01*
X9644048Y-18340238D01*
X9644048Y-18330714D01*
X9653571Y-18311667D01*
X9672619Y-18302143D01*
X9701190Y-18302143D01*
X9720238Y-18311667D01*
X9796429Y-18511667D02*
X9805952Y-18502143D01*
X9825000Y-18473571D01*
X9834524Y-18454524D01*
X9844048Y-18425952D01*
X9853571Y-18378333D01*
X9853571Y-18340238D01*
X9844048Y-18292619D01*
X9834524Y-18264048D01*
X9825000Y-18245000D01*
X9805952Y-18216429D01*
X9796429Y-18206905D01*
D17*
X3105000Y-18554000D02*
X3215000Y-18664000D01*
X3215000Y-18554000D02*
X3105000Y-18664000D01*
X3160000Y-18554000D02*
X3160000Y-18664000D01*
X3105000Y-18609000D02*
X3215000Y-18609000D01*
D10*
X3577381Y-18699476D02*
X3463095Y-18699476D01*
X3520238Y-18699476D02*
X3520238Y-18499476D01*
X3501190Y-18528048D01*
X3482143Y-18547095D01*
X3463095Y-18556619D01*
X3663095Y-18680429D02*
X3672619Y-18689952D01*
X3663095Y-18699476D01*
X3653571Y-18689952D01*
X3663095Y-18680429D01*
X3663095Y-18699476D01*
X3863095Y-18699476D02*
X3748809Y-18699476D01*
X3805952Y-18699476D02*
X3805952Y-18499476D01*
X3786905Y-18528048D01*
X3767857Y-18547095D01*
X3748809Y-18556619D01*
X3986905Y-18499476D02*
X4005952Y-18499476D01*
X4025000Y-18509000D01*
X4034524Y-18518524D01*
X4044048Y-18537571D01*
X4053571Y-18575667D01*
X4053571Y-18623286D01*
X4044048Y-18661381D01*
X4034524Y-18680429D01*
X4025000Y-18689952D01*
X4005952Y-18699476D01*
X3986905Y-18699476D01*
X3967857Y-18689952D01*
X3958333Y-18680429D01*
X3948809Y-18661381D01*
X3939286Y-18623286D01*
X3939286Y-18575667D01*
X3948809Y-18537571D01*
X3958333Y-18518524D01*
X3967857Y-18509000D01*
X3986905Y-18499476D01*
X4177381Y-18499476D02*
X4196429Y-18499476D01*
X4215476Y-18509000D01*
X4225000Y-18518524D01*
X4234524Y-18537571D01*
X4244048Y-18575667D01*
X4244048Y-18623286D01*
X4234524Y-18661381D01*
X4225000Y-18680429D01*
X4215476Y-18689952D01*
X4196429Y-18699476D01*
X4177381Y-18699476D01*
X4158333Y-18689952D01*
X4148809Y-18680429D01*
X4139286Y-18661381D01*
X4129762Y-18623286D01*
X4129762Y-18575667D01*
X4139286Y-18537571D01*
X4148809Y-18518524D01*
X4158333Y-18509000D01*
X4177381Y-18499476D01*
X4329762Y-18699476D02*
X4329762Y-18566143D01*
X4329762Y-18585190D02*
X4339286Y-18575667D01*
X4358333Y-18566143D01*
X4386905Y-18566143D01*
X4405952Y-18575667D01*
X4415476Y-18594714D01*
X4415476Y-18699476D01*
X4415476Y-18594714D02*
X4425000Y-18575667D01*
X4444048Y-18566143D01*
X4472619Y-18566143D01*
X4491667Y-18575667D01*
X4501190Y-18594714D01*
X4501190Y-18699476D01*
X4596429Y-18699476D02*
X4596429Y-18566143D01*
X4596429Y-18585190D02*
X4605952Y-18575667D01*
X4625000Y-18566143D01*
X4653571Y-18566143D01*
X4672619Y-18575667D01*
X4682143Y-18594714D01*
X4682143Y-18699476D01*
X4682143Y-18594714D02*
X4691667Y-18575667D01*
X4710714Y-18566143D01*
X4739286Y-18566143D01*
X4758333Y-18575667D01*
X4767857Y-18594714D01*
X4767857Y-18699476D01*
X5158333Y-18489952D02*
X4986905Y-18747095D01*
X5415476Y-18499476D02*
X5434524Y-18499476D01*
X5453571Y-18509000D01*
X5463095Y-18518524D01*
X5472619Y-18537571D01*
X5482143Y-18575667D01*
X5482143Y-18623286D01*
X5472619Y-18661381D01*
X5463095Y-18680429D01*
X5453571Y-18689952D01*
X5434524Y-18699476D01*
X5415476Y-18699476D01*
X5396429Y-18689952D01*
X5386905Y-18680429D01*
X5377381Y-18661381D01*
X5367857Y-18623286D01*
X5367857Y-18575667D01*
X5377381Y-18537571D01*
X5386905Y-18518524D01*
X5396429Y-18509000D01*
X5415476Y-18499476D01*
X5567857Y-18680429D02*
X5577381Y-18689952D01*
X5567857Y-18699476D01*
X5558333Y-18689952D01*
X5567857Y-18680429D01*
X5567857Y-18699476D01*
X5701190Y-18499476D02*
X5720238Y-18499476D01*
X5739286Y-18509000D01*
X5748809Y-18518524D01*
X5758333Y-18537571D01*
X5767857Y-18575667D01*
X5767857Y-18623286D01*
X5758333Y-18661381D01*
X5748809Y-18680429D01*
X5739286Y-18689952D01*
X5720238Y-18699476D01*
X5701190Y-18699476D01*
X5682143Y-18689952D01*
X5672619Y-18680429D01*
X5663095Y-18661381D01*
X5653571Y-18623286D01*
X5653571Y-18575667D01*
X5663095Y-18537571D01*
X5672619Y-18518524D01*
X5682143Y-18509000D01*
X5701190Y-18499476D01*
X5939286Y-18566143D02*
X5939286Y-18699476D01*
X5891667Y-18489952D02*
X5844048Y-18632810D01*
X5967857Y-18632810D01*
X6025000Y-18499476D02*
X6148809Y-18499476D01*
X6082143Y-18575667D01*
X6110714Y-18575667D01*
X6129762Y-18585190D01*
X6139286Y-18594714D01*
X6148809Y-18613762D01*
X6148809Y-18661381D01*
X6139286Y-18680429D01*
X6129762Y-18689952D01*
X6110714Y-18699476D01*
X6053571Y-18699476D01*
X6034524Y-18689952D01*
X6025000Y-18680429D01*
X6215476Y-18499476D02*
X6339286Y-18499476D01*
X6272619Y-18575667D01*
X6301190Y-18575667D01*
X6320238Y-18585190D01*
X6329762Y-18594714D01*
X6339286Y-18613762D01*
X6339286Y-18661381D01*
X6329762Y-18680429D01*
X6320238Y-18689952D01*
X6301190Y-18699476D01*
X6244048Y-18699476D01*
X6225000Y-18689952D01*
X6215476Y-18680429D01*
X6415476Y-18499476D02*
X6415476Y-18537571D01*
X6491667Y-18499476D02*
X6491667Y-18537571D01*
X6786905Y-18775667D02*
X6777381Y-18766143D01*
X6758333Y-18737571D01*
X6748809Y-18718524D01*
X6739286Y-18689952D01*
X6729762Y-18642333D01*
X6729762Y-18604238D01*
X6739286Y-18556619D01*
X6748809Y-18528048D01*
X6758333Y-18509000D01*
X6777381Y-18480429D01*
X6786905Y-18470905D01*
X6967857Y-18699476D02*
X6853571Y-18699476D01*
X6910714Y-18699476D02*
X6910714Y-18499476D01*
X6891667Y-18528048D01*
X6872619Y-18547095D01*
X6853571Y-18556619D01*
X7091667Y-18499476D02*
X7110714Y-18499476D01*
X7129762Y-18509000D01*
X7139286Y-18518524D01*
X7148809Y-18537571D01*
X7158333Y-18575667D01*
X7158333Y-18623286D01*
X7148809Y-18661381D01*
X7139286Y-18680429D01*
X7129762Y-18689952D01*
X7110714Y-18699476D01*
X7091667Y-18699476D01*
X7072619Y-18689952D01*
X7063095Y-18680429D01*
X7053571Y-18661381D01*
X7044048Y-18623286D01*
X7044048Y-18575667D01*
X7053571Y-18537571D01*
X7063095Y-18518524D01*
X7072619Y-18509000D01*
X7091667Y-18499476D01*
X7253571Y-18699476D02*
X7291667Y-18699476D01*
X7310714Y-18689952D01*
X7320238Y-18680429D01*
X7339286Y-18651857D01*
X7348809Y-18613762D01*
X7348809Y-18537571D01*
X7339286Y-18518524D01*
X7329762Y-18509000D01*
X7310714Y-18499476D01*
X7272619Y-18499476D01*
X7253571Y-18509000D01*
X7244048Y-18518524D01*
X7234524Y-18537571D01*
X7234524Y-18585190D01*
X7244048Y-18604238D01*
X7253571Y-18613762D01*
X7272619Y-18623286D01*
X7310714Y-18623286D01*
X7329762Y-18613762D01*
X7339286Y-18604238D01*
X7348809Y-18585190D01*
X7586905Y-18699476D02*
X7586905Y-18499476D01*
X7672619Y-18699476D02*
X7672619Y-18594714D01*
X7663095Y-18575667D01*
X7644048Y-18566143D01*
X7615476Y-18566143D01*
X7596428Y-18575667D01*
X7586905Y-18585190D01*
X7796428Y-18699476D02*
X7777381Y-18689952D01*
X7767857Y-18680429D01*
X7758333Y-18661381D01*
X7758333Y-18604238D01*
X7767857Y-18585190D01*
X7777381Y-18575667D01*
X7796428Y-18566143D01*
X7825000Y-18566143D01*
X7844048Y-18575667D01*
X7853571Y-18585190D01*
X7863095Y-18604238D01*
X7863095Y-18661381D01*
X7853571Y-18680429D01*
X7844048Y-18689952D01*
X7825000Y-18699476D01*
X7796428Y-18699476D01*
X7977381Y-18699476D02*
X7958333Y-18689952D01*
X7948809Y-18670905D01*
X7948809Y-18499476D01*
X8129762Y-18689952D02*
X8110714Y-18699476D01*
X8072619Y-18699476D01*
X8053571Y-18689952D01*
X8044048Y-18670905D01*
X8044048Y-18594714D01*
X8053571Y-18575667D01*
X8072619Y-18566143D01*
X8110714Y-18566143D01*
X8129762Y-18575667D01*
X8139286Y-18594714D01*
X8139286Y-18613762D01*
X8044048Y-18632810D01*
X8215476Y-18689952D02*
X8234524Y-18699476D01*
X8272619Y-18699476D01*
X8291667Y-18689952D01*
X8301190Y-18670905D01*
X8301190Y-18661381D01*
X8291667Y-18642333D01*
X8272619Y-18632810D01*
X8244048Y-18632810D01*
X8225000Y-18623286D01*
X8215476Y-18604238D01*
X8215476Y-18594714D01*
X8225000Y-18575667D01*
X8244048Y-18566143D01*
X8272619Y-18566143D01*
X8291667Y-18575667D01*
X8367857Y-18775667D02*
X8377381Y-18766143D01*
X8396429Y-18737571D01*
X8405952Y-18718524D01*
X8415476Y-18689952D01*
X8425000Y-18642333D01*
X8425000Y-18604238D01*
X8415476Y-18556619D01*
X8405952Y-18528048D01*
X8396429Y-18509000D01*
X8377381Y-18480429D01*
X8367857Y-18470905D01*
D18*
X3085000Y-18808000D02*
X3215000Y-18938000D01*
X3215000Y-18808000D02*
X3085000Y-18938000D01*
X3195962Y-18918962D02*
X3195962Y-18827038D01*
X3104038Y-18827038D01*
X3104038Y-18918962D01*
X3195962Y-18918962D01*
D10*
X3577381Y-18963476D02*
X3463095Y-18963476D01*
X3520238Y-18963476D02*
X3520238Y-18763476D01*
X3501190Y-18792048D01*
X3482143Y-18811095D01*
X3463095Y-18820619D01*
X3663095Y-18944429D02*
X3672619Y-18953952D01*
X3663095Y-18963476D01*
X3653571Y-18953952D01*
X3663095Y-18944429D01*
X3663095Y-18963476D01*
X3739286Y-18763476D02*
X3863095Y-18763476D01*
X3796428Y-18839667D01*
X3825000Y-18839667D01*
X3844048Y-18849190D01*
X3853571Y-18858714D01*
X3863095Y-18877762D01*
X3863095Y-18925381D01*
X3853571Y-18944429D01*
X3844048Y-18953952D01*
X3825000Y-18963476D01*
X3767857Y-18963476D01*
X3748809Y-18953952D01*
X3739286Y-18944429D01*
X3986905Y-18763476D02*
X4005952Y-18763476D01*
X4025000Y-18773000D01*
X4034524Y-18782524D01*
X4044048Y-18801571D01*
X4053571Y-18839667D01*
X4053571Y-18887286D01*
X4044048Y-18925381D01*
X4034524Y-18944429D01*
X4025000Y-18953952D01*
X4005952Y-18963476D01*
X3986905Y-18963476D01*
X3967857Y-18953952D01*
X3958333Y-18944429D01*
X3948809Y-18925381D01*
X3939286Y-18887286D01*
X3939286Y-18839667D01*
X3948809Y-18801571D01*
X3958333Y-18782524D01*
X3967857Y-18773000D01*
X3986905Y-18763476D01*
X4177381Y-18763476D02*
X4196429Y-18763476D01*
X4215476Y-18773000D01*
X4225000Y-18782524D01*
X4234524Y-18801571D01*
X4244048Y-18839667D01*
X4244048Y-18887286D01*
X4234524Y-18925381D01*
X4225000Y-18944429D01*
X4215476Y-18953952D01*
X4196429Y-18963476D01*
X4177381Y-18963476D01*
X4158333Y-18953952D01*
X4148809Y-18944429D01*
X4139286Y-18925381D01*
X4129762Y-18887286D01*
X4129762Y-18839667D01*
X4139286Y-18801571D01*
X4148809Y-18782524D01*
X4158333Y-18773000D01*
X4177381Y-18763476D01*
X4329762Y-18963476D02*
X4329762Y-18830143D01*
X4329762Y-18849190D02*
X4339286Y-18839667D01*
X4358333Y-18830143D01*
X4386905Y-18830143D01*
X4405952Y-18839667D01*
X4415476Y-18858714D01*
X4415476Y-18963476D01*
X4415476Y-18858714D02*
X4425000Y-18839667D01*
X4444048Y-18830143D01*
X4472619Y-18830143D01*
X4491667Y-18839667D01*
X4501190Y-18858714D01*
X4501190Y-18963476D01*
X4596429Y-18963476D02*
X4596429Y-18830143D01*
X4596429Y-18849190D02*
X4605952Y-18839667D01*
X4625000Y-18830143D01*
X4653571Y-18830143D01*
X4672619Y-18839667D01*
X4682143Y-18858714D01*
X4682143Y-18963476D01*
X4682143Y-18858714D02*
X4691667Y-18839667D01*
X4710714Y-18830143D01*
X4739286Y-18830143D01*
X4758333Y-18839667D01*
X4767857Y-18858714D01*
X4767857Y-18963476D01*
X5158333Y-18753952D02*
X4986905Y-19011095D01*
X5415476Y-18763476D02*
X5434524Y-18763476D01*
X5453571Y-18773000D01*
X5463095Y-18782524D01*
X5472619Y-18801571D01*
X5482143Y-18839667D01*
X5482143Y-18887286D01*
X5472619Y-18925381D01*
X5463095Y-18944429D01*
X5453571Y-18953952D01*
X5434524Y-18963476D01*
X5415476Y-18963476D01*
X5396429Y-18953952D01*
X5386905Y-18944429D01*
X5377381Y-18925381D01*
X5367857Y-18887286D01*
X5367857Y-18839667D01*
X5377381Y-18801571D01*
X5386905Y-18782524D01*
X5396429Y-18773000D01*
X5415476Y-18763476D01*
X5567857Y-18944429D02*
X5577381Y-18953952D01*
X5567857Y-18963476D01*
X5558333Y-18953952D01*
X5567857Y-18944429D01*
X5567857Y-18963476D01*
X5701190Y-18763476D02*
X5720238Y-18763476D01*
X5739286Y-18773000D01*
X5748809Y-18782524D01*
X5758333Y-18801571D01*
X5767857Y-18839667D01*
X5767857Y-18887286D01*
X5758333Y-18925381D01*
X5748809Y-18944429D01*
X5739286Y-18953952D01*
X5720238Y-18963476D01*
X5701190Y-18963476D01*
X5682143Y-18953952D01*
X5672619Y-18944429D01*
X5663095Y-18925381D01*
X5653571Y-18887286D01*
X5653571Y-18839667D01*
X5663095Y-18801571D01*
X5672619Y-18782524D01*
X5682143Y-18773000D01*
X5701190Y-18763476D01*
X5948809Y-18763476D02*
X5853571Y-18763476D01*
X5844048Y-18858714D01*
X5853571Y-18849190D01*
X5872619Y-18839667D01*
X5920238Y-18839667D01*
X5939286Y-18849190D01*
X5948809Y-18858714D01*
X5958333Y-18877762D01*
X5958333Y-18925381D01*
X5948809Y-18944429D01*
X5939286Y-18953952D01*
X5920238Y-18963476D01*
X5872619Y-18963476D01*
X5853571Y-18953952D01*
X5844048Y-18944429D01*
X6148809Y-18963476D02*
X6034524Y-18963476D01*
X6091667Y-18963476D02*
X6091667Y-18763476D01*
X6072619Y-18792048D01*
X6053571Y-18811095D01*
X6034524Y-18820619D01*
X6225000Y-18782524D02*
X6234524Y-18773000D01*
X6253571Y-18763476D01*
X6301190Y-18763476D01*
X6320238Y-18773000D01*
X6329762Y-18782524D01*
X6339286Y-18801571D01*
X6339286Y-18820619D01*
X6329762Y-18849190D01*
X6215476Y-18963476D01*
X6339286Y-18963476D01*
X6415476Y-18763476D02*
X6415476Y-18801571D01*
X6491667Y-18763476D02*
X6491667Y-18801571D01*
X6786905Y-19039667D02*
X6777381Y-19030143D01*
X6758333Y-19001571D01*
X6748809Y-18982524D01*
X6739286Y-18953952D01*
X6729762Y-18906333D01*
X6729762Y-18868238D01*
X6739286Y-18820619D01*
X6748809Y-18792048D01*
X6758333Y-18773000D01*
X6777381Y-18744429D01*
X6786905Y-18734905D01*
X6967857Y-18963476D02*
X6853571Y-18963476D01*
X6910714Y-18963476D02*
X6910714Y-18763476D01*
X6891667Y-18792048D01*
X6872619Y-18811095D01*
X6853571Y-18820619D01*
X7148809Y-18763476D02*
X7053571Y-18763476D01*
X7044048Y-18858714D01*
X7053571Y-18849190D01*
X7072619Y-18839667D01*
X7120238Y-18839667D01*
X7139286Y-18849190D01*
X7148809Y-18858714D01*
X7158333Y-18877762D01*
X7158333Y-18925381D01*
X7148809Y-18944429D01*
X7139286Y-18953952D01*
X7120238Y-18963476D01*
X7072619Y-18963476D01*
X7053571Y-18953952D01*
X7044048Y-18944429D01*
X7396428Y-18963476D02*
X7396428Y-18763476D01*
X7482143Y-18963476D02*
X7482143Y-18858714D01*
X7472619Y-18839667D01*
X7453571Y-18830143D01*
X7425000Y-18830143D01*
X7405952Y-18839667D01*
X7396428Y-18849190D01*
X7605952Y-18963476D02*
X7586905Y-18953952D01*
X7577381Y-18944429D01*
X7567857Y-18925381D01*
X7567857Y-18868238D01*
X7577381Y-18849190D01*
X7586905Y-18839667D01*
X7605952Y-18830143D01*
X7634524Y-18830143D01*
X7653571Y-18839667D01*
X7663095Y-18849190D01*
X7672619Y-18868238D01*
X7672619Y-18925381D01*
X7663095Y-18944429D01*
X7653571Y-18953952D01*
X7634524Y-18963476D01*
X7605952Y-18963476D01*
X7786905Y-18963476D02*
X7767857Y-18953952D01*
X7758333Y-18934905D01*
X7758333Y-18763476D01*
X7939286Y-18953952D02*
X7920238Y-18963476D01*
X7882143Y-18963476D01*
X7863095Y-18953952D01*
X7853571Y-18934905D01*
X7853571Y-18858714D01*
X7863095Y-18839667D01*
X7882143Y-18830143D01*
X7920238Y-18830143D01*
X7939286Y-18839667D01*
X7948809Y-18858714D01*
X7948809Y-18877762D01*
X7853571Y-18896810D01*
X8025000Y-18953952D02*
X8044048Y-18963476D01*
X8082143Y-18963476D01*
X8101190Y-18953952D01*
X8110714Y-18934905D01*
X8110714Y-18925381D01*
X8101190Y-18906333D01*
X8082143Y-18896810D01*
X8053571Y-18896810D01*
X8034524Y-18887286D01*
X8025000Y-18868238D01*
X8025000Y-18858714D01*
X8034524Y-18839667D01*
X8053571Y-18830143D01*
X8082143Y-18830143D01*
X8101190Y-18839667D01*
X8177381Y-19039667D02*
X8186905Y-19030143D01*
X8205952Y-19001571D01*
X8215476Y-18982524D01*
X8225000Y-18953952D01*
X8234524Y-18906333D01*
X8234524Y-18868238D01*
X8225000Y-18820619D01*
X8215476Y-18792048D01*
X8205952Y-18773000D01*
X8186905Y-18744429D01*
X8177381Y-18734905D01*
D19*
X3063000Y-19061000D02*
X3215000Y-19213000D01*
X3215000Y-19061000D02*
X3063000Y-19213000D01*
X3139000Y-19213000D02*
X3215000Y-19137000D01*
X3139000Y-19061000D01*
X3063000Y-19137000D01*
X3139000Y-19213000D01*
D10*
X3577381Y-19227476D02*
X3463095Y-19227476D01*
X3520238Y-19227476D02*
X3520238Y-19027476D01*
X3501190Y-19056048D01*
X3482143Y-19075095D01*
X3463095Y-19084619D01*
X3663095Y-19208429D02*
X3672619Y-19217952D01*
X3663095Y-19227476D01*
X3653571Y-19217952D01*
X3663095Y-19208429D01*
X3663095Y-19227476D01*
X3853571Y-19027476D02*
X3758333Y-19027476D01*
X3748809Y-19122714D01*
X3758333Y-19113190D01*
X3777381Y-19103667D01*
X3825000Y-19103667D01*
X3844048Y-19113190D01*
X3853571Y-19122714D01*
X3863095Y-19141762D01*
X3863095Y-19189381D01*
X3853571Y-19208429D01*
X3844048Y-19217952D01*
X3825000Y-19227476D01*
X3777381Y-19227476D01*
X3758333Y-19217952D01*
X3748809Y-19208429D01*
X3939286Y-19046524D02*
X3948809Y-19037000D01*
X3967857Y-19027476D01*
X4015476Y-19027476D01*
X4034524Y-19037000D01*
X4044048Y-19046524D01*
X4053571Y-19065571D01*
X4053571Y-19084619D01*
X4044048Y-19113190D01*
X3929762Y-19227476D01*
X4053571Y-19227476D01*
X4177381Y-19027476D02*
X4196429Y-19027476D01*
X4215476Y-19037000D01*
X4225000Y-19046524D01*
X4234524Y-19065571D01*
X4244048Y-19103667D01*
X4244048Y-19151286D01*
X4234524Y-19189381D01*
X4225000Y-19208429D01*
X4215476Y-19217952D01*
X4196429Y-19227476D01*
X4177381Y-19227476D01*
X4158333Y-19217952D01*
X4148809Y-19208429D01*
X4139286Y-19189381D01*
X4129762Y-19151286D01*
X4129762Y-19103667D01*
X4139286Y-19065571D01*
X4148809Y-19046524D01*
X4158333Y-19037000D01*
X4177381Y-19027476D01*
X4329762Y-19227476D02*
X4329762Y-19094143D01*
X4329762Y-19113190D02*
X4339286Y-19103667D01*
X4358333Y-19094143D01*
X4386905Y-19094143D01*
X4405952Y-19103667D01*
X4415476Y-19122714D01*
X4415476Y-19227476D01*
X4415476Y-19122714D02*
X4425000Y-19103667D01*
X4444048Y-19094143D01*
X4472619Y-19094143D01*
X4491667Y-19103667D01*
X4501190Y-19122714D01*
X4501190Y-19227476D01*
X4596429Y-19227476D02*
X4596429Y-19094143D01*
X4596429Y-19113190D02*
X4605952Y-19103667D01*
X4625000Y-19094143D01*
X4653571Y-19094143D01*
X4672619Y-19103667D01*
X4682143Y-19122714D01*
X4682143Y-19227476D01*
X4682143Y-19122714D02*
X4691667Y-19103667D01*
X4710714Y-19094143D01*
X4739286Y-19094143D01*
X4758333Y-19103667D01*
X4767857Y-19122714D01*
X4767857Y-19227476D01*
X5158333Y-19017952D02*
X4986905Y-19275095D01*
X5415476Y-19027476D02*
X5434524Y-19027476D01*
X5453571Y-19037000D01*
X5463095Y-19046524D01*
X5472619Y-19065571D01*
X5482143Y-19103667D01*
X5482143Y-19151286D01*
X5472619Y-19189381D01*
X5463095Y-19208429D01*
X5453571Y-19217952D01*
X5434524Y-19227476D01*
X5415476Y-19227476D01*
X5396429Y-19217952D01*
X5386905Y-19208429D01*
X5377381Y-19189381D01*
X5367857Y-19151286D01*
X5367857Y-19103667D01*
X5377381Y-19065571D01*
X5386905Y-19046524D01*
X5396429Y-19037000D01*
X5415476Y-19027476D01*
X5567857Y-19208429D02*
X5577381Y-19217952D01*
X5567857Y-19227476D01*
X5558333Y-19217952D01*
X5567857Y-19208429D01*
X5567857Y-19227476D01*
X5701190Y-19027476D02*
X5720238Y-19027476D01*
X5739286Y-19037000D01*
X5748809Y-19046524D01*
X5758333Y-19065571D01*
X5767857Y-19103667D01*
X5767857Y-19151286D01*
X5758333Y-19189381D01*
X5748809Y-19208429D01*
X5739286Y-19217952D01*
X5720238Y-19227476D01*
X5701190Y-19227476D01*
X5682143Y-19217952D01*
X5672619Y-19208429D01*
X5663095Y-19189381D01*
X5653571Y-19151286D01*
X5653571Y-19103667D01*
X5663095Y-19065571D01*
X5672619Y-19046524D01*
X5682143Y-19037000D01*
X5701190Y-19027476D01*
X5948809Y-19027476D02*
X5853571Y-19027476D01*
X5844048Y-19122714D01*
X5853571Y-19113190D01*
X5872619Y-19103667D01*
X5920238Y-19103667D01*
X5939286Y-19113190D01*
X5948809Y-19122714D01*
X5958333Y-19141762D01*
X5958333Y-19189381D01*
X5948809Y-19208429D01*
X5939286Y-19217952D01*
X5920238Y-19227476D01*
X5872619Y-19227476D01*
X5853571Y-19217952D01*
X5844048Y-19208429D01*
X6053571Y-19227476D02*
X6091667Y-19227476D01*
X6110714Y-19217952D01*
X6120238Y-19208429D01*
X6139286Y-19179857D01*
X6148809Y-19141762D01*
X6148809Y-19065571D01*
X6139286Y-19046524D01*
X6129762Y-19037000D01*
X6110714Y-19027476D01*
X6072619Y-19027476D01*
X6053571Y-19037000D01*
X6044048Y-19046524D01*
X6034524Y-19065571D01*
X6034524Y-19113190D01*
X6044048Y-19132238D01*
X6053571Y-19141762D01*
X6072619Y-19151286D01*
X6110714Y-19151286D01*
X6129762Y-19141762D01*
X6139286Y-19132238D01*
X6148809Y-19113190D01*
X6263095Y-19113190D02*
X6244048Y-19103667D01*
X6234524Y-19094143D01*
X6225000Y-19075095D01*
X6225000Y-19065571D01*
X6234524Y-19046524D01*
X6244048Y-19037000D01*
X6263095Y-19027476D01*
X6301190Y-19027476D01*
X6320238Y-19037000D01*
X6329762Y-19046524D01*
X6339286Y-19065571D01*
X6339286Y-19075095D01*
X6329762Y-19094143D01*
X6320238Y-19103667D01*
X6301190Y-19113190D01*
X6263095Y-19113190D01*
X6244048Y-19122714D01*
X6234524Y-19132238D01*
X6225000Y-19151286D01*
X6225000Y-19189381D01*
X6234524Y-19208429D01*
X6244048Y-19217952D01*
X6263095Y-19227476D01*
X6301190Y-19227476D01*
X6320238Y-19217952D01*
X6329762Y-19208429D01*
X6339286Y-19189381D01*
X6339286Y-19151286D01*
X6329762Y-19132238D01*
X6320238Y-19122714D01*
X6301190Y-19113190D01*
X6415476Y-19027476D02*
X6415476Y-19065571D01*
X6491667Y-19027476D02*
X6491667Y-19065571D01*
X6786905Y-19303667D02*
X6777381Y-19294143D01*
X6758333Y-19265571D01*
X6748809Y-19246524D01*
X6739286Y-19217952D01*
X6729762Y-19170333D01*
X6729762Y-19132238D01*
X6739286Y-19084619D01*
X6748809Y-19056048D01*
X6758333Y-19037000D01*
X6777381Y-19008429D01*
X6786905Y-18998905D01*
X6872619Y-19227476D02*
X6910714Y-19227476D01*
X6929762Y-19217952D01*
X6939286Y-19208429D01*
X6958333Y-19179857D01*
X6967857Y-19141762D01*
X6967857Y-19065571D01*
X6958333Y-19046524D01*
X6948809Y-19037000D01*
X6929762Y-19027476D01*
X6891667Y-19027476D01*
X6872619Y-19037000D01*
X6863095Y-19046524D01*
X6853571Y-19065571D01*
X6853571Y-19113190D01*
X6863095Y-19132238D01*
X6872619Y-19141762D01*
X6891667Y-19151286D01*
X6929762Y-19151286D01*
X6948809Y-19141762D01*
X6958333Y-19132238D01*
X6967857Y-19113190D01*
X7205952Y-19227476D02*
X7205952Y-19027476D01*
X7291667Y-19227476D02*
X7291667Y-19122714D01*
X7282143Y-19103667D01*
X7263095Y-19094143D01*
X7234524Y-19094143D01*
X7215476Y-19103667D01*
X7205952Y-19113190D01*
X7415476Y-19227476D02*
X7396428Y-19217952D01*
X7386905Y-19208429D01*
X7377381Y-19189381D01*
X7377381Y-19132238D01*
X7386905Y-19113190D01*
X7396428Y-19103667D01*
X7415476Y-19094143D01*
X7444048Y-19094143D01*
X7463095Y-19103667D01*
X7472619Y-19113190D01*
X7482143Y-19132238D01*
X7482143Y-19189381D01*
X7472619Y-19208429D01*
X7463095Y-19217952D01*
X7444048Y-19227476D01*
X7415476Y-19227476D01*
X7596428Y-19227476D02*
X7577381Y-19217952D01*
X7567857Y-19198905D01*
X7567857Y-19027476D01*
X7748809Y-19217952D02*
X7729762Y-19227476D01*
X7691667Y-19227476D01*
X7672619Y-19217952D01*
X7663095Y-19198905D01*
X7663095Y-19122714D01*
X7672619Y-19103667D01*
X7691667Y-19094143D01*
X7729762Y-19094143D01*
X7748809Y-19103667D01*
X7758333Y-19122714D01*
X7758333Y-19141762D01*
X7663095Y-19160810D01*
X7834524Y-19217952D02*
X7853571Y-19227476D01*
X7891667Y-19227476D01*
X7910714Y-19217952D01*
X7920238Y-19198905D01*
X7920238Y-19189381D01*
X7910714Y-19170333D01*
X7891667Y-19160810D01*
X7863095Y-19160810D01*
X7844048Y-19151286D01*
X7834524Y-19132238D01*
X7834524Y-19122714D01*
X7844048Y-19103667D01*
X7863095Y-19094143D01*
X7891667Y-19094143D01*
X7910714Y-19103667D01*
X7986905Y-19303667D02*
X7996428Y-19294143D01*
X8015476Y-19265571D01*
X8025000Y-19246524D01*
X8034524Y-19217952D01*
X8044048Y-19170333D01*
X8044048Y-19132238D01*
X8034524Y-19084619D01*
X8025000Y-19056048D01*
X8015476Y-19037000D01*
X7996428Y-19008429D01*
X7986905Y-18998905D01*
M02*
