%TF.GenerationSoftware,KiCad,Pcbnew,(6.0.8)*%
%TF.CreationDate,2023-03-21T03:17:03-04:00*%
%TF.ProjectId,pcb de prueba de dispositivos,70636220-6465-4207-9072-756562612064,rev?*%
%TF.SameCoordinates,Original*%
%TF.FileFunction,Soldermask,Top*%
%TF.FilePolarity,Negative*%
%FSLAX46Y46*%
G04 Gerber Fmt 4.6, Leading zero omitted, Abs format (unit mm)*
G04 Created by KiCad (PCBNEW (6.0.8)) date 2023-03-21 03:17:03*
%MOMM*%
%LPD*%
G01*
G04 APERTURE LIST*
G04 Aperture macros list*
%AMRoundRect*
0 Rectangle with rounded corners*
0 $1 Rounding radius*
0 $2 $3 $4 $5 $6 $7 $8 $9 X,Y pos of 4 corners*
0 Add a 4 corners polygon primitive as box body*
4,1,4,$2,$3,$4,$5,$6,$7,$8,$9,$2,$3,0*
0 Add four circle primitives for the rounded corners*
1,1,$1+$1,$2,$3*
1,1,$1+$1,$4,$5*
1,1,$1+$1,$6,$7*
1,1,$1+$1,$8,$9*
0 Add four rect primitives between the rounded corners*
20,1,$1+$1,$2,$3,$4,$5,0*
20,1,$1+$1,$4,$5,$6,$7,0*
20,1,$1+$1,$6,$7,$8,$9,0*
20,1,$1+$1,$8,$9,$2,$3,0*%
G04 Aperture macros list end*
%ADD10R,2.400000X1.600000*%
%ADD11O,2.400000X1.600000*%
%ADD12C,1.600000*%
%ADD13O,1.600000X1.600000*%
%ADD14C,2.000000*%
%ADD15R,1.800000X1.800000*%
%ADD16C,1.800000*%
%ADD17R,1.600000X1.600000*%
%ADD18R,3.000000X3.000000*%
%ADD19C,3.000000*%
%ADD20R,2.200000X2.200000*%
%ADD21O,2.200000X2.200000*%
%ADD22R,1.600000X2.400000*%
%ADD23O,1.600000X2.400000*%
%ADD24R,1.905000X2.000000*%
%ADD25O,1.905000X2.000000*%
%ADD26R,1.500000X1.500000*%
%ADD27C,1.500000*%
%ADD28O,1.800000X1.800000*%
%ADD29RoundRect,0.250000X-0.725000X0.600000X-0.725000X-0.600000X0.725000X-0.600000X0.725000X0.600000X0*%
%ADD30O,1.950000X1.700000*%
%ADD31R,1.700000X1.700000*%
%ADD32O,1.700000X1.700000*%
%ADD33C,1.524000*%
%ADD34R,1.400000X1.400000*%
%ADD35C,1.400000*%
%ADD36RoundRect,0.250000X-0.600000X-0.725000X0.600000X-0.725000X0.600000X0.725000X-0.600000X0.725000X0*%
%ADD37O,1.700000X1.950000*%
%ADD38R,4.600000X2.000000*%
%ADD39O,4.200000X2.000000*%
%ADD40O,2.000000X4.200000*%
G04 APERTURE END LIST*
D10*
%TO.C,U3*%
X118400000Y-33800000D03*
D11*
X118400000Y-36340000D03*
X118400000Y-38880000D03*
X118400000Y-41420000D03*
X118400000Y-43960000D03*
X118400000Y-46500000D03*
X118400000Y-49040000D03*
X126020000Y-49040000D03*
X126020000Y-46500000D03*
X126020000Y-43960000D03*
X126020000Y-41420000D03*
X126020000Y-38880000D03*
X126020000Y-36340000D03*
X126020000Y-33800000D03*
%TD*%
D12*
%TO.C,R24*%
X64250000Y-75275000D03*
D13*
X64250000Y-65115000D03*
%TD*%
D14*
%TO.C,SW5*%
X129825000Y-30200000D03*
X136325000Y-30200000D03*
X129825000Y-34700000D03*
X136325000Y-34700000D03*
%TD*%
%TO.C,SW7*%
X104000000Y-67840000D03*
X104000000Y-61340000D03*
X108500000Y-67840000D03*
X108500000Y-61340000D03*
%TD*%
D15*
%TO.C,D38*%
X59200000Y-138650000D03*
D16*
X59200000Y-141190000D03*
%TD*%
D14*
%TO.C,SW15*%
X150540000Y-56070000D03*
X144040000Y-56070000D03*
X144040000Y-60570000D03*
X150540000Y-60570000D03*
%TD*%
D12*
%TO.C,R5*%
X62375000Y-38770000D03*
D13*
X62375000Y-48930000D03*
%TD*%
D14*
%TO.C,SW21*%
X163040000Y-38550000D03*
X169540000Y-38550000D03*
X169540000Y-43050000D03*
X163040000Y-43050000D03*
%TD*%
D15*
%TO.C,D26*%
X128300000Y-65800000D03*
D16*
X128300000Y-63260000D03*
%TD*%
D12*
%TO.C,R58*%
X64725000Y-125230000D03*
D13*
X64725000Y-115070000D03*
%TD*%
D12*
%TO.C,C7*%
X119675000Y-30500000D03*
X124675000Y-30500000D03*
%TD*%
%TO.C,R49*%
X63325000Y-100995000D03*
D13*
X63325000Y-111155000D03*
%TD*%
D12*
%TO.C,R16*%
X113575000Y-39445000D03*
D13*
X113575000Y-49605000D03*
%TD*%
D15*
%TO.C,D45*%
X118340000Y-116590000D03*
D16*
X118340000Y-114050000D03*
%TD*%
D15*
%TO.C,D12*%
X125275000Y-55200000D03*
D16*
X125275000Y-52660000D03*
%TD*%
D15*
%TO.C,D1*%
X46925000Y-54600000D03*
D16*
X46925000Y-52060000D03*
%TD*%
D17*
%TO.C,U11*%
X144612500Y-80285000D03*
D13*
X144612500Y-82825000D03*
X144612500Y-85365000D03*
X152232500Y-85365000D03*
X152232500Y-82825000D03*
X152232500Y-80285000D03*
%TD*%
D15*
%TO.C,D55*%
X131340000Y-116590000D03*
D16*
X131340000Y-114050000D03*
%TD*%
D12*
%TO.C,R9*%
X73025000Y-39145000D03*
D13*
X73025000Y-49305000D03*
%TD*%
D12*
%TO.C,C12*%
X132355000Y-152775000D03*
X132355000Y-157775000D03*
%TD*%
D15*
%TO.C,D19*%
X42425000Y-87250000D03*
D16*
X42425000Y-84710000D03*
%TD*%
D12*
%TO.C,R47*%
X60225000Y-100995000D03*
D13*
X60225000Y-111155000D03*
%TD*%
D12*
%TO.C,R12*%
X96750000Y-39115000D03*
D13*
X96750000Y-49275000D03*
%TD*%
D18*
%TO.C,J7*%
X180625000Y-77855000D03*
D19*
X180625000Y-72775000D03*
X180625000Y-67695000D03*
%TD*%
D18*
%TO.C,RV2*%
X36600000Y-102755000D03*
D19*
X36600000Y-97675000D03*
X36600000Y-92595000D03*
%TD*%
D14*
%TO.C,SW10*%
X42050000Y-158550000D03*
X35550000Y-158550000D03*
X42050000Y-154050000D03*
X35550000Y-154050000D03*
%TD*%
D12*
%TO.C,R54*%
X36790000Y-110925000D03*
D13*
X46950000Y-110925000D03*
%TD*%
D12*
%TO.C,R51*%
X81620000Y-106475000D03*
D13*
X91780000Y-106475000D03*
%TD*%
D12*
%TO.C,R41*%
X121075000Y-83095000D03*
D13*
X121075000Y-93255000D03*
%TD*%
D15*
%TO.C,D37*%
X130650000Y-95525000D03*
D16*
X130650000Y-92985000D03*
%TD*%
D12*
%TO.C,R50*%
X79000000Y-105385000D03*
D13*
X79000000Y-95225000D03*
%TD*%
D12*
%TO.C,R2*%
X65550000Y-48925000D03*
D13*
X65550000Y-38765000D03*
%TD*%
D12*
%TO.C,R31*%
X43250000Y-75275000D03*
D13*
X43250000Y-65115000D03*
%TD*%
D12*
%TO.C,R21*%
X97825000Y-71552500D03*
D13*
X97825000Y-81712500D03*
%TD*%
D20*
%TO.C,D30*%
X70750000Y-154075000D03*
D21*
X70750000Y-143915000D03*
%TD*%
D14*
%TO.C,SW14*%
X144040000Y-47290000D03*
X150540000Y-47290000D03*
X144040000Y-51790000D03*
X150540000Y-51790000D03*
%TD*%
D12*
%TO.C,R52*%
X36790000Y-107825000D03*
D13*
X46950000Y-107825000D03*
%TD*%
D22*
%TO.C,U7*%
X40675000Y-124825000D03*
D23*
X43215000Y-124825000D03*
X45755000Y-124825000D03*
X48295000Y-124825000D03*
X50835000Y-124825000D03*
X53375000Y-124825000D03*
X55915000Y-124825000D03*
X58455000Y-124825000D03*
X58455000Y-117205000D03*
X55915000Y-117205000D03*
X53375000Y-117205000D03*
X50835000Y-117205000D03*
X48295000Y-117205000D03*
X45755000Y-117205000D03*
X43215000Y-117205000D03*
X40675000Y-117205000D03*
%TD*%
D12*
%TO.C,C4*%
X75600000Y-65600000D03*
X70600000Y-65600000D03*
%TD*%
%TO.C,R35*%
X132900000Y-79005000D03*
D13*
X132900000Y-68845000D03*
%TD*%
D18*
%TO.C,J9*%
X180625000Y-102480000D03*
D19*
X180625000Y-97400000D03*
X180625000Y-92320000D03*
%TD*%
D12*
%TO.C,C13*%
X84875000Y-114575000D03*
X84875000Y-119575000D03*
%TD*%
D24*
%TO.C,U9*%
X122765000Y-155120000D03*
D25*
X125305000Y-155120000D03*
X127845000Y-155120000D03*
%TD*%
D12*
%TO.C,R65*%
X157350000Y-110000000D03*
D13*
X167510000Y-110000000D03*
%TD*%
D26*
%TO.C,Q1*%
X119315000Y-78145000D03*
D27*
X116775000Y-80685000D03*
X114235000Y-78145000D03*
%TD*%
D15*
%TO.C,D66*%
X154982500Y-75580000D03*
D28*
X154982500Y-85740000D03*
%TD*%
D15*
%TO.C,D20*%
X35925000Y-87250000D03*
D16*
X35925000Y-84710000D03*
%TD*%
D15*
%TO.C,D32*%
X89175000Y-135850000D03*
D16*
X89175000Y-138390000D03*
%TD*%
D15*
%TO.C,D36*%
X65800000Y-158425000D03*
D16*
X65800000Y-155885000D03*
%TD*%
D12*
%TO.C,R44*%
X54830000Y-141650000D03*
D13*
X44670000Y-141650000D03*
%TD*%
D15*
%TO.C,D18*%
X48925000Y-87250000D03*
D16*
X48925000Y-84710000D03*
%TD*%
D15*
%TO.C,D44*%
X111840000Y-142390000D03*
D16*
X111840000Y-139850000D03*
%TD*%
D12*
%TO.C,R38*%
X39100000Y-151385000D03*
D13*
X39100000Y-141225000D03*
%TD*%
D14*
%TO.C,SW2*%
X59250000Y-31550000D03*
X65750000Y-31550000D03*
X59250000Y-36050000D03*
X65750000Y-36050000D03*
%TD*%
D17*
%TO.C,SW11*%
X79792500Y-123250000D03*
D13*
X79792500Y-120710000D03*
X79792500Y-118170000D03*
X72172500Y-118170000D03*
X72172500Y-120710000D03*
X72172500Y-123250000D03*
%TD*%
D15*
%TO.C,D8*%
X91450000Y-54920000D03*
D16*
X91450000Y-52380000D03*
%TD*%
D14*
%TO.C,SW23*%
X163040000Y-56070000D03*
X169540000Y-56070000D03*
X169540000Y-60570000D03*
X163040000Y-60570000D03*
%TD*%
D12*
%TO.C,R40*%
X117975000Y-104555000D03*
D13*
X117975000Y-94395000D03*
%TD*%
D15*
%TO.C,D11*%
X118750000Y-55200000D03*
D16*
X118750000Y-52660000D03*
%TD*%
D29*
%TO.C,J20*%
X147675000Y-128750000D03*
D30*
X147675000Y-131250000D03*
X147675000Y-133750000D03*
%TD*%
D12*
%TO.C,R57*%
X61600000Y-125230000D03*
D13*
X61600000Y-115070000D03*
%TD*%
D12*
%TO.C,R60*%
X75900000Y-95225000D03*
D13*
X75900000Y-105385000D03*
%TD*%
D15*
%TO.C,D61*%
X137840000Y-123040000D03*
D16*
X137840000Y-120500000D03*
%TD*%
D15*
%TO.C,D2*%
X40275000Y-54600000D03*
D16*
X40275000Y-52060000D03*
%TD*%
D12*
%TO.C,C11*%
X118180000Y-152775000D03*
X118180000Y-157775000D03*
%TD*%
D15*
%TO.C,D56*%
X131340000Y-123040000D03*
D16*
X131340000Y-120500000D03*
%TD*%
D31*
%TO.C,J11*%
X145500000Y-123180000D03*
D32*
X145500000Y-120640000D03*
X145500000Y-118100000D03*
%TD*%
D12*
%TO.C,R56*%
X135975000Y-79030000D03*
D13*
X135975000Y-68870000D03*
%TD*%
D12*
%TO.C,R27*%
X55250000Y-75275000D03*
D13*
X55250000Y-65115000D03*
%TD*%
D15*
%TO.C,D14*%
X138325000Y-55200000D03*
D16*
X138325000Y-52660000D03*
%TD*%
D12*
%TO.C,R63*%
X157727500Y-82290000D03*
D13*
X167887500Y-82290000D03*
%TD*%
D12*
%TO.C,C10*%
X83325000Y-92825000D03*
X88325000Y-92825000D03*
%TD*%
D15*
%TO.C,D4*%
X53600000Y-54625000D03*
D16*
X53600000Y-52085000D03*
%TD*%
D24*
%TO.C,Q3*%
X121055000Y-67970000D03*
D25*
X118515000Y-67970000D03*
X115975000Y-67970000D03*
%TD*%
D12*
%TO.C,R62*%
X143375000Y-77630000D03*
D13*
X143375000Y-67470000D03*
%TD*%
D20*
%TO.C,D29*%
X120200000Y-160500000D03*
D21*
X130360000Y-160500000D03*
%TD*%
D15*
%TO.C,D59*%
X131340000Y-142390000D03*
D16*
X131340000Y-139850000D03*
%TD*%
D17*
%TO.C,U12*%
X144150000Y-106175000D03*
D13*
X144150000Y-108715000D03*
X144150000Y-111255000D03*
X151770000Y-111255000D03*
X151770000Y-108715000D03*
X151770000Y-106175000D03*
%TD*%
D12*
%TO.C,R39*%
X84775000Y-158450000D03*
D13*
X74615000Y-158450000D03*
%TD*%
D12*
%TO.C,R13*%
X104400000Y-49555000D03*
D13*
X104400000Y-39395000D03*
%TD*%
D14*
%TO.C,SW8*%
X126550000Y-81675000D03*
X133050000Y-81675000D03*
X126550000Y-86175000D03*
X133050000Y-86175000D03*
%TD*%
%TO.C,SW17*%
X160040000Y-38550000D03*
X153540000Y-38550000D03*
X160040000Y-43050000D03*
X153540000Y-43050000D03*
%TD*%
D15*
%TO.C,D7*%
X98075000Y-54945000D03*
D16*
X98075000Y-52405000D03*
%TD*%
D15*
%TO.C,D5*%
X78300000Y-54975000D03*
D16*
X78300000Y-52435000D03*
%TD*%
D33*
%TO.C,D27*%
X129732000Y-72135000D03*
X129732000Y-74675000D03*
X129732000Y-77215000D03*
%TD*%
D10*
%TO.C,U2*%
X81075000Y-33495000D03*
D11*
X81075000Y-36035000D03*
X81075000Y-38575000D03*
X81075000Y-41115000D03*
X81075000Y-43655000D03*
X81075000Y-46195000D03*
X81075000Y-48735000D03*
X88695000Y-48735000D03*
X88695000Y-46195000D03*
X88695000Y-43655000D03*
X88695000Y-41115000D03*
X88695000Y-38575000D03*
X88695000Y-36035000D03*
X88695000Y-33495000D03*
%TD*%
D12*
%TO.C,R67*%
X157350000Y-106900000D03*
D13*
X167510000Y-106900000D03*
%TD*%
D15*
%TO.C,D51*%
X124840000Y-123040000D03*
D16*
X124840000Y-120500000D03*
%TD*%
D12*
%TO.C,R11*%
X99875000Y-39140000D03*
D13*
X99875000Y-49300000D03*
%TD*%
D15*
%TO.C,D16*%
X61925000Y-87250000D03*
D16*
X61925000Y-84710000D03*
%TD*%
D17*
%TO.C,C2*%
X80725000Y-74457612D03*
D12*
X80725000Y-71957612D03*
%TD*%
%TO.C,R48*%
X43400000Y-105155000D03*
D13*
X43400000Y-94995000D03*
%TD*%
D15*
%TO.C,D54*%
X124840000Y-142390000D03*
D16*
X124840000Y-139850000D03*
%TD*%
D24*
%TO.C,U10*%
X89350000Y-116975000D03*
D25*
X91890000Y-116975000D03*
X94430000Y-116975000D03*
%TD*%
D15*
%TO.C,D41*%
X111840000Y-123040000D03*
D16*
X111840000Y-120500000D03*
%TD*%
D15*
%TO.C,D58*%
X131340000Y-135940000D03*
D16*
X131340000Y-133400000D03*
%TD*%
D14*
%TO.C,SW22*%
X169540000Y-47290000D03*
X163040000Y-47290000D03*
X163040000Y-51790000D03*
X169540000Y-51790000D03*
%TD*%
D17*
%TO.C,U4*%
X84625000Y-72052500D03*
D13*
X84625000Y-74592500D03*
X84625000Y-77132500D03*
X84625000Y-79672500D03*
X92245000Y-79672500D03*
X92245000Y-77132500D03*
X92245000Y-74592500D03*
X92245000Y-72052500D03*
%TD*%
D31*
%TO.C,J4*%
X105915000Y-123280000D03*
D32*
X105915000Y-125820000D03*
X105915000Y-128360000D03*
X105915000Y-130900000D03*
X105915000Y-133440000D03*
%TD*%
D12*
%TO.C,R14*%
X107450000Y-39420000D03*
D13*
X107450000Y-49580000D03*
%TD*%
D34*
%TO.C,K2*%
X48100000Y-152350000D03*
D35*
X55720000Y-152350000D03*
X60800000Y-152350000D03*
X65880000Y-152350000D03*
X65880000Y-144730000D03*
X60800000Y-144730000D03*
X55720000Y-144730000D03*
X48100000Y-144730000D03*
%TD*%
D12*
%TO.C,R25*%
X61250000Y-75275000D03*
D13*
X61250000Y-65115000D03*
%TD*%
D24*
%TO.C,Q6*%
X113715000Y-91230000D03*
D25*
X111175000Y-91230000D03*
X108635000Y-91230000D03*
%TD*%
D10*
%TO.C,U8*%
X82025000Y-95725000D03*
D11*
X82025000Y-98265000D03*
X82025000Y-100805000D03*
X82025000Y-103345000D03*
X89645000Y-103345000D03*
X89645000Y-100805000D03*
X89645000Y-98265000D03*
X89645000Y-95725000D03*
%TD*%
D15*
%TO.C,D67*%
X149600000Y-100050000D03*
D16*
X149600000Y-102590000D03*
%TD*%
D15*
%TO.C,D9*%
X105700000Y-55200000D03*
D16*
X105700000Y-52660000D03*
%TD*%
D15*
%TO.C,D62*%
X137840000Y-129490000D03*
D16*
X137840000Y-126950000D03*
%TD*%
D12*
%TO.C,C6*%
X82325000Y-29595000D03*
X87325000Y-29595000D03*
%TD*%
D19*
%TO.C,K4*%
X174150000Y-97475000D03*
X159950000Y-103475000D03*
X159950000Y-91475000D03*
X172150000Y-91475000D03*
X172150000Y-103475000D03*
%TD*%
D14*
%TO.C,SW6*%
X133175000Y-66175000D03*
X139675000Y-66175000D03*
X139675000Y-61675000D03*
X133175000Y-61675000D03*
%TD*%
D31*
%TO.C,J10*%
X182050000Y-30050000D03*
D32*
X182050000Y-32590000D03*
X182050000Y-35130000D03*
X182050000Y-37670000D03*
X182050000Y-40210000D03*
X182050000Y-42750000D03*
X182050000Y-45290000D03*
X182050000Y-47830000D03*
X182050000Y-50370000D03*
X182050000Y-52910000D03*
X182050000Y-55450000D03*
X182050000Y-57990000D03*
X182050000Y-60530000D03*
%TD*%
D12*
%TO.C,R29*%
X49250000Y-75280000D03*
D13*
X49250000Y-65120000D03*
%TD*%
D15*
%TO.C,D35*%
X59225000Y-158425000D03*
D16*
X59225000Y-155885000D03*
%TD*%
D15*
%TO.C,D48*%
X118340000Y-135940000D03*
D16*
X118340000Y-133400000D03*
%TD*%
D15*
%TO.C,D53*%
X124840000Y-135940000D03*
D16*
X124840000Y-133400000D03*
%TD*%
D12*
%TO.C,R18*%
X134000000Y-39395000D03*
D13*
X134000000Y-49555000D03*
%TD*%
D12*
%TO.C,C1*%
X85925000Y-68927500D03*
X90925000Y-68927500D03*
%TD*%
%TO.C,C14*%
X98800000Y-114625000D03*
X98800000Y-119625000D03*
%TD*%
D15*
%TO.C,D46*%
X118340000Y-123040000D03*
D16*
X118340000Y-120500000D03*
%TD*%
D20*
%TO.C,D31*%
X84695000Y-123500000D03*
D21*
X94855000Y-123500000D03*
%TD*%
D15*
%TO.C,D49*%
X118340000Y-142390000D03*
D16*
X118340000Y-139850000D03*
%TD*%
D10*
%TO.C,U5*%
X67275000Y-69900000D03*
D11*
X67275000Y-72440000D03*
X67275000Y-74980000D03*
X67275000Y-77520000D03*
X67275000Y-80060000D03*
X67275000Y-82600000D03*
X67275000Y-85140000D03*
X67275000Y-87680000D03*
X74895000Y-87680000D03*
X74895000Y-85140000D03*
X74895000Y-82600000D03*
X74895000Y-80060000D03*
X74895000Y-77520000D03*
X74895000Y-74980000D03*
X74895000Y-72440000D03*
X74895000Y-69900000D03*
%TD*%
D26*
%TO.C,Q9*%
X172627500Y-86855000D03*
D27*
X170087500Y-84315000D03*
X172627500Y-81775000D03*
%TD*%
D12*
%TO.C,R19*%
X137025000Y-39395000D03*
D13*
X137025000Y-49555000D03*
%TD*%
D12*
%TO.C,C5*%
X47900000Y-29250000D03*
X52900000Y-29250000D03*
%TD*%
D14*
%TO.C,SW20*%
X163030000Y-29760000D03*
X169530000Y-29760000D03*
X163030000Y-34260000D03*
X169530000Y-34260000D03*
%TD*%
D15*
%TO.C,D23*%
X48925000Y-80800000D03*
D16*
X48925000Y-78260000D03*
%TD*%
D12*
%TO.C,R3*%
X41500000Y-38745000D03*
D13*
X41500000Y-48905000D03*
%TD*%
D12*
%TO.C,R28*%
X52250000Y-75280000D03*
D13*
X52250000Y-65120000D03*
%TD*%
D15*
%TO.C,D50*%
X124840000Y-116590000D03*
D16*
X124840000Y-114050000D03*
%TD*%
D15*
%TO.C,D13*%
X131800000Y-55200000D03*
D16*
X131800000Y-52660000D03*
%TD*%
D15*
%TO.C,D43*%
X111840000Y-135940000D03*
D16*
X111840000Y-133400000D03*
%TD*%
D10*
%TO.C,U6*%
X49550000Y-95525000D03*
D11*
X49550000Y-98065000D03*
X49550000Y-100605000D03*
X49550000Y-103145000D03*
X49550000Y-105685000D03*
X49550000Y-108225000D03*
X49550000Y-110765000D03*
X57170000Y-110765000D03*
X57170000Y-108225000D03*
X57170000Y-105685000D03*
X57170000Y-103145000D03*
X57170000Y-100605000D03*
X57170000Y-98065000D03*
X57170000Y-95525000D03*
%TD*%
D12*
%TO.C,R6*%
X59250000Y-38770000D03*
D13*
X59250000Y-48930000D03*
%TD*%
D12*
%TO.C,R22*%
X77995000Y-85727500D03*
D13*
X88155000Y-85727500D03*
%TD*%
D12*
%TO.C,R1*%
X35225000Y-48905000D03*
D13*
X35225000Y-38745000D03*
%TD*%
D12*
%TO.C,R32*%
X40250000Y-75275000D03*
D13*
X40250000Y-65115000D03*
%TD*%
D15*
%TO.C,D25*%
X35925000Y-80800000D03*
D16*
X35925000Y-78260000D03*
%TD*%
D12*
%TO.C,R34*%
X108500000Y-70515000D03*
D13*
X108500000Y-80675000D03*
%TD*%
D15*
%TO.C,D60*%
X137840000Y-116590000D03*
D16*
X137840000Y-114050000D03*
%TD*%
D14*
%TO.C,SW4*%
X99875000Y-31970000D03*
X93375000Y-31970000D03*
X93375000Y-36470000D03*
X99875000Y-36470000D03*
%TD*%
D12*
%TO.C,R46*%
X46500000Y-105180000D03*
D13*
X46500000Y-95020000D03*
%TD*%
D15*
%TO.C,D3*%
X60250000Y-54625000D03*
D16*
X60250000Y-52085000D03*
%TD*%
D12*
%TO.C,R36*%
X126550000Y-79005000D03*
D13*
X126550000Y-68845000D03*
%TD*%
D15*
%TO.C,D64*%
X137840000Y-142390000D03*
D16*
X137840000Y-139850000D03*
%TD*%
D26*
%TO.C,Q8*%
X44225000Y-149355000D03*
D27*
X41685000Y-146815000D03*
X44225000Y-144275000D03*
%TD*%
D14*
%TO.C,SW3*%
X76425000Y-31995000D03*
X69925000Y-31995000D03*
X76425000Y-36495000D03*
X69925000Y-36495000D03*
%TD*%
%TO.C,SW12*%
X150530000Y-29760000D03*
X144030000Y-29760000D03*
X150530000Y-34260000D03*
X144030000Y-34260000D03*
%TD*%
D12*
%TO.C,R61*%
X92750000Y-103825000D03*
D13*
X92750000Y-93665000D03*
%TD*%
D14*
%TO.C,SW19*%
X153540000Y-56070000D03*
X160040000Y-56070000D03*
X160040000Y-60570000D03*
X153540000Y-60570000D03*
%TD*%
%TO.C,SW13*%
X144040000Y-38550000D03*
X150540000Y-38550000D03*
X150540000Y-43050000D03*
X144040000Y-43050000D03*
%TD*%
D12*
%TO.C,R59*%
X67825000Y-125230000D03*
D13*
X67825000Y-115070000D03*
%TD*%
D12*
%TO.C,R8*%
X93625000Y-49275000D03*
D13*
X93625000Y-39115000D03*
%TD*%
D14*
%TO.C,SW9*%
X117175000Y-87975000D03*
X110675000Y-87975000D03*
X117175000Y-83475000D03*
X110675000Y-83475000D03*
%TD*%
D26*
%TO.C,Q10*%
X172195000Y-111490000D03*
D27*
X169655000Y-108950000D03*
X172195000Y-106410000D03*
%TD*%
D12*
%TO.C,R15*%
X110500000Y-39420000D03*
D13*
X110500000Y-49580000D03*
%TD*%
D36*
%TO.C,J1*%
X47250000Y-129400000D03*
D37*
X49750000Y-129400000D03*
X52250000Y-129400000D03*
%TD*%
D12*
%TO.C,R43*%
X54855000Y-155425000D03*
D13*
X44695000Y-155425000D03*
%TD*%
D15*
%TO.C,D28*%
X113375000Y-64340000D03*
D16*
X113375000Y-61800000D03*
%TD*%
D19*
%TO.C,K1*%
X74575000Y-148650000D03*
X88775000Y-142650000D03*
X88775000Y-154650000D03*
X76575000Y-154650000D03*
X76575000Y-142650000D03*
%TD*%
D15*
%TO.C,D47*%
X118340000Y-129490000D03*
D16*
X118340000Y-126950000D03*
%TD*%
D26*
%TO.C,Q4*%
X106960000Y-103520000D03*
D27*
X109500000Y-100980000D03*
X112040000Y-103520000D03*
%TD*%
D15*
%TO.C,D6*%
X71700000Y-54975000D03*
D16*
X71700000Y-52435000D03*
%TD*%
D15*
%TO.C,D65*%
X150057500Y-74125000D03*
D16*
X150057500Y-76665000D03*
%TD*%
D12*
%TO.C,R64*%
X143350000Y-103455000D03*
D13*
X143350000Y-93295000D03*
%TD*%
D12*
%TO.C,R7*%
X76175000Y-49300000D03*
D13*
X76175000Y-39140000D03*
%TD*%
D12*
%TO.C,R10*%
X69950000Y-39145000D03*
D13*
X69950000Y-49305000D03*
%TD*%
D38*
%TO.C,J2*%
X109000000Y-149225000D03*
D39*
X109000000Y-155525000D03*
D40*
X113800000Y-152125000D03*
%TD*%
D15*
%TO.C,D68*%
X154525000Y-101445000D03*
D28*
X154525000Y-111605000D03*
%TD*%
D12*
%TO.C,R26*%
X58250000Y-75275000D03*
D13*
X58250000Y-65115000D03*
%TD*%
D12*
%TO.C,R33*%
X37250000Y-75275000D03*
D13*
X37250000Y-65115000D03*
%TD*%
D15*
%TO.C,D33*%
X89175000Y-161450000D03*
D16*
X89175000Y-158910000D03*
%TD*%
D15*
%TO.C,D15*%
X80250000Y-81877500D03*
D16*
X80250000Y-79337500D03*
%TD*%
D12*
%TO.C,C3*%
X92275000Y-82702500D03*
X87275000Y-82702500D03*
%TD*%
D24*
%TO.C,Q7*%
X122765000Y-149645000D03*
D25*
X125305000Y-149645000D03*
X127845000Y-149645000D03*
%TD*%
D15*
%TO.C,D63*%
X137840000Y-135940000D03*
D16*
X137840000Y-133400000D03*
%TD*%
D15*
%TO.C,D40*%
X111840000Y-116590000D03*
D16*
X111840000Y-114050000D03*
%TD*%
D12*
%TO.C,R20*%
X94825000Y-71552500D03*
D13*
X94825000Y-81712500D03*
%TD*%
D14*
%TO.C,SW18*%
X153540000Y-47290000D03*
X160040000Y-47290000D03*
X153540000Y-51790000D03*
X160040000Y-51790000D03*
%TD*%
D31*
%TO.C,J6*%
X146807500Y-66240000D03*
D32*
X149347500Y-66240000D03*
X151887500Y-66240000D03*
X154427500Y-66240000D03*
%TD*%
D31*
%TO.C,J5*%
X172950000Y-30060000D03*
D32*
X172950000Y-32600000D03*
X172950000Y-35140000D03*
X172950000Y-37680000D03*
X172950000Y-40220000D03*
X172950000Y-42760000D03*
X172950000Y-45300000D03*
X172950000Y-47840000D03*
X172950000Y-50380000D03*
X172950000Y-52920000D03*
X172950000Y-55460000D03*
X172950000Y-58000000D03*
X172950000Y-60540000D03*
%TD*%
D12*
%TO.C,R4*%
X38400000Y-38740000D03*
D13*
X38400000Y-48900000D03*
%TD*%
D12*
%TO.C,R42*%
X104000000Y-100755000D03*
D13*
X104000000Y-90595000D03*
%TD*%
D10*
%TO.C,U1*%
X46600000Y-33100000D03*
D11*
X46600000Y-35640000D03*
X46600000Y-38180000D03*
X46600000Y-40720000D03*
X46600000Y-43260000D03*
X46600000Y-45800000D03*
X46600000Y-48340000D03*
X54220000Y-48340000D03*
X54220000Y-45800000D03*
X54220000Y-43260000D03*
X54220000Y-40720000D03*
X54220000Y-38180000D03*
X54220000Y-35640000D03*
X54220000Y-33100000D03*
%TD*%
D12*
%TO.C,R23*%
X34175000Y-75255000D03*
D13*
X34175000Y-65095000D03*
%TD*%
D15*
%TO.C,D24*%
X42425000Y-80800000D03*
D16*
X42425000Y-78260000D03*
%TD*%
D15*
%TO.C,D42*%
X111840000Y-129490000D03*
D16*
X111840000Y-126950000D03*
%TD*%
D12*
%TO.C,R55*%
X69935000Y-95300000D03*
D13*
X59775000Y-95300000D03*
%TD*%
D12*
%TO.C,R53*%
X69930000Y-98375000D03*
D13*
X59770000Y-98375000D03*
%TD*%
D12*
%TO.C,C8*%
X55875000Y-92375000D03*
X50875000Y-92375000D03*
%TD*%
D19*
%TO.C,K3*%
X174632500Y-72815000D03*
X160432500Y-78815000D03*
X160432500Y-66815000D03*
X172632500Y-66815000D03*
X172632500Y-78815000D03*
%TD*%
D31*
%TO.C,J8*%
X146800000Y-91425000D03*
D32*
X149340000Y-91425000D03*
X151880000Y-91425000D03*
X154420000Y-91425000D03*
%TD*%
D12*
%TO.C,R37*%
X111625000Y-77570000D03*
D13*
X111625000Y-67410000D03*
%TD*%
D12*
%TO.C,R30*%
X46250000Y-75280000D03*
D13*
X46250000Y-65120000D03*
%TD*%
D12*
%TO.C,R66*%
X157702500Y-85390000D03*
D13*
X167862500Y-85390000D03*
%TD*%
D15*
%TO.C,D10*%
X112225000Y-55200000D03*
D16*
X112225000Y-52660000D03*
%TD*%
D15*
%TO.C,Q5*%
X107635000Y-98225000D03*
D28*
X110175000Y-98225000D03*
X112715000Y-98225000D03*
%TD*%
D12*
%TO.C,C9*%
X37500000Y-118550000D03*
X37500000Y-123550000D03*
%TD*%
D15*
%TO.C,D39*%
X65800000Y-141200000D03*
D16*
X65800000Y-138660000D03*
%TD*%
D31*
%TO.C,J3*%
X119740000Y-109335000D03*
D32*
X122280000Y-109335000D03*
X124820000Y-109335000D03*
X127360000Y-109335000D03*
X129900000Y-109335000D03*
%TD*%
D15*
%TO.C,D17*%
X55425000Y-87250000D03*
D16*
X55425000Y-84710000D03*
%TD*%
D15*
%TO.C,D22*%
X55425000Y-80800000D03*
D16*
X55425000Y-78260000D03*
%TD*%
D15*
%TO.C,D21*%
X61925000Y-80800000D03*
D16*
X61925000Y-78260000D03*
%TD*%
D12*
%TO.C,R17*%
X130950000Y-39395000D03*
D13*
X130950000Y-49555000D03*
%TD*%
D15*
%TO.C,D57*%
X131340000Y-129490000D03*
D16*
X131340000Y-126950000D03*
%TD*%
D15*
%TO.C,Q2*%
X116950000Y-73890000D03*
D28*
X119490000Y-73890000D03*
X122030000Y-73890000D03*
%TD*%
D15*
%TO.C,D34*%
X105775000Y-87525000D03*
D16*
X105775000Y-84985000D03*
%TD*%
D12*
%TO.C,R45*%
X137000000Y-102105000D03*
D13*
X137000000Y-91945000D03*
%TD*%
D15*
%TO.C,D52*%
X124840000Y-129490000D03*
D16*
X124840000Y-126950000D03*
%TD*%
D14*
%TO.C,SW16*%
X160030000Y-29760000D03*
X153530000Y-29760000D03*
X153530000Y-34260000D03*
X160030000Y-34260000D03*
%TD*%
%TO.C,SW1*%
X41500000Y-31450000D03*
X35000000Y-31450000D03*
X41500000Y-35950000D03*
X35000000Y-35950000D03*
%TD*%
M02*
