G04 #@! TF.GenerationSoftware,KiCad,Pcbnew,(6.0.8)*
G04 #@! TF.CreationDate,2023-06-29T00:22:17-04:00*
G04 #@! TF.ProjectId,proyecto final,70726f79-6563-4746-9f20-66696e616c2e,rev?*
G04 #@! TF.SameCoordinates,Original*
G04 #@! TF.FileFunction,Paste,Top*
G04 #@! TF.FilePolarity,Positive*
%FSLAX46Y46*%
G04 Gerber Fmt 4.6, Leading zero omitted, Abs format (unit mm)*
G04 Created by KiCad (PCBNEW (6.0.8)) date 2023-06-29 00:22:17*
%MOMM*%
%LPD*%
G01*
G04 APERTURE LIST*
G04 Aperture macros list*
%AMRoundRect*
0 Rectangle with rounded corners*
0 $1 Rounding radius*
0 $2 $3 $4 $5 $6 $7 $8 $9 X,Y pos of 4 corners*
0 Add a 4 corners polygon primitive as box body*
4,1,4,$2,$3,$4,$5,$6,$7,$8,$9,$2,$3,0*
0 Add four circle primitives for the rounded corners*
1,1,$1+$1,$2,$3*
1,1,$1+$1,$4,$5*
1,1,$1+$1,$6,$7*
1,1,$1+$1,$8,$9*
0 Add four rect primitives between the rounded corners*
20,1,$1+$1,$2,$3,$4,$5,0*
20,1,$1+$1,$4,$5,$6,$7,0*
20,1,$1+$1,$6,$7,$8,$9,0*
20,1,$1+$1,$8,$9,$2,$3,0*%
G04 Aperture macros list end*
%ADD10R,2.750000X3.050000*%
%ADD11R,1.200000X2.200000*%
%ADD12RoundRect,0.243750X0.456250X-0.243750X0.456250X0.243750X-0.456250X0.243750X-0.456250X-0.243750X0*%
%ADD13RoundRect,0.250000X0.250000X0.475000X-0.250000X0.475000X-0.250000X-0.475000X0.250000X-0.475000X0*%
%ADD14RoundRect,0.250000X-0.250000X-0.475000X0.250000X-0.475000X0.250000X0.475000X-0.250000X0.475000X0*%
%ADD15RoundRect,0.250000X-0.450000X0.262500X-0.450000X-0.262500X0.450000X-0.262500X0.450000X0.262500X0*%
%ADD16RoundRect,0.380000X-0.635000X0.380000X-0.635000X-0.380000X0.635000X-0.380000X0.635000X0.380000X0*%
%ADD17RoundRect,0.380000X0.380000X0.635000X-0.380000X0.635000X-0.380000X-0.635000X0.380000X-0.635000X0*%
%ADD18RoundRect,0.250000X0.450000X-0.262500X0.450000X0.262500X-0.450000X0.262500X-0.450000X-0.262500X0*%
%ADD19RoundRect,0.150000X-0.675000X-0.150000X0.675000X-0.150000X0.675000X0.150000X-0.675000X0.150000X0*%
G04 APERTURE END LIST*
D10*
X162460000Y-65050000D03*
X159410000Y-61700000D03*
X162460000Y-61700000D03*
X159410000Y-65050000D03*
D11*
X158655000Y-69675000D03*
X163215000Y-69675000D03*
D12*
X161615000Y-78692500D03*
X161615000Y-76817500D03*
D13*
X163535000Y-72075000D03*
X161635000Y-72075000D03*
D14*
X158175000Y-72075000D03*
X160075000Y-72075000D03*
D15*
X123995000Y-83332500D03*
X123995000Y-85157500D03*
X161585000Y-80322500D03*
X161585000Y-82147500D03*
X119485000Y-94302500D03*
X119485000Y-96127500D03*
D16*
X165765000Y-69195000D03*
X165765000Y-72235000D03*
D13*
X154635000Y-53665000D03*
X152735000Y-53665000D03*
D14*
X145655000Y-53675000D03*
X147555000Y-53675000D03*
D16*
X156815000Y-53800000D03*
X156815000Y-56840000D03*
D17*
X156150000Y-81755000D03*
X153110000Y-81755000D03*
D18*
X119485000Y-99547500D03*
X119485000Y-97722500D03*
D19*
X121590000Y-94330000D03*
X121590000Y-95600000D03*
X121590000Y-96870000D03*
X121590000Y-98140000D03*
X126840000Y-98140000D03*
X126840000Y-96870000D03*
X126840000Y-95600000D03*
X126840000Y-94330000D03*
D15*
X158365000Y-80322500D03*
X158365000Y-82147500D03*
D12*
X164755000Y-78692500D03*
X164755000Y-76817500D03*
D13*
X125035000Y-99995000D03*
X123135000Y-99995000D03*
D15*
X164755000Y-80322500D03*
X164755000Y-82147500D03*
D12*
X158385000Y-78692500D03*
X158385000Y-76817500D03*
M02*
