M48
; DRILL file {KiCad (6.0.8)} date Thu Jun 29 00:22:23 2023
; FORMAT={-:-/ absolute / metric / decimal}
; #@! TF.CreationDate,2023-06-29T00:22:23-04:00
; #@! TF.GenerationSoftware,Kicad,Pcbnew,(6.0.8)
; #@! TF.FileFunction,Plated,1,2,PTH
FMAT,2
METRIC
; #@! TA.AperFunction,Plated,PTH,ViaDrill
T1C0.500
; #@! TA.AperFunction,Plated,PTH,ComponentDrill
T2C0.800
; #@! TA.AperFunction,Plated,PTH,ComponentDrill
T3C1.000
; #@! TA.AperFunction,Plated,PTH,ComponentDrill
T4C1.050
; #@! TA.AperFunction,Plated,PTH,ComponentDrill
T5C1.100
; #@! TA.AperFunction,Plated,PTH,ComponentDrill
T6C1.520
; #@! TA.AperFunction,Plated,PTH,ComponentDrill
T7C1.700
%
G90
G05
T1
X119.48Y-100.85
X121.58Y-100.96
X123.13Y-101.44
X126.15Y-85.5
X144.5Y-81.75
X147.65Y-74.6
X148.79Y-52.35
X151.4Y-52.35
X158.36Y-83.48
X159.825Y-58.885
X160.07Y-73.54
X161.59Y-83.45
X161.615Y-74.625
X165.41Y-63.38
X165.765Y-75.807
X166.82Y-83.45
T2
X124.977Y-89.945
X127.477Y-89.945
X129.068Y-84.0
X131.568Y-84.0
X161.068Y-54.5
X163.568Y-54.5
T3
X111.835Y-109.48
X111.835Y-112.02
X111.835Y-114.56
X111.835Y-117.1
X111.835Y-119.64
X111.835Y-122.18
X111.835Y-124.72
X111.835Y-127.26
X111.835Y-129.8
X111.835Y-132.34
X111.835Y-134.88
X111.835Y-137.42
X112.687Y-101.465
X112.687Y-104.005
X113.637Y-94.125
X113.637Y-96.625
X115.505Y-109.53
X115.505Y-112.07
X115.505Y-114.61
X115.505Y-117.15
X115.505Y-119.69
X115.505Y-122.23
X115.505Y-124.77
X115.505Y-127.31
X115.505Y-129.85
X115.505Y-132.39
X115.505Y-134.93
X115.505Y-137.47
X125.302Y-67.675
X125.302Y-72.675
X130.0Y-96.78
X130.0Y-99.32
X130.0Y-101.86
X130.0Y-104.4
X130.0Y-106.94
X130.0Y-109.48
X130.0Y-112.02
X130.0Y-114.56
X130.0Y-117.1
X130.0Y-119.64
X130.0Y-122.18
X130.0Y-124.72
X130.0Y-127.26
X130.0Y-129.8
X130.0Y-132.34
X130.0Y-134.88
X130.0Y-137.42
X150.86Y-96.78
X150.86Y-99.32
X150.86Y-101.86
X150.86Y-104.4
X150.86Y-106.94
X150.86Y-109.48
X150.86Y-112.02
X150.86Y-114.56
X150.86Y-117.1
X150.86Y-119.64
X150.86Y-122.18
X150.86Y-124.72
X150.86Y-127.26
X150.86Y-129.8
X150.86Y-132.34
X150.86Y-134.88
X150.86Y-137.42
X154.702Y-62.475
X154.702Y-77.875
X159.735Y-91.99
X159.745Y-88.31
X162.275Y-91.99
X162.285Y-88.31
X168.86Y-99.33
X168.86Y-101.87
X168.86Y-104.41
X168.86Y-106.95
X168.86Y-109.49
X168.86Y-112.03
X168.86Y-114.57
X168.86Y-117.11
X168.86Y-119.65
X168.86Y-122.19
X168.86Y-124.73
X168.86Y-127.27
X168.86Y-129.81
X168.86Y-132.35
X168.86Y-134.89
X168.86Y-137.43
X168.955Y-71.045
X168.955Y-73.585
X168.955Y-76.125
X168.955Y-78.665
X168.955Y-81.205
X168.995Y-55.28
X168.995Y-57.82
X168.995Y-60.36
X168.995Y-62.9
X168.995Y-65.44
X170.515Y-85.47
X170.515Y-88.01
X170.515Y-90.55
X170.515Y-93.09
X170.515Y-95.63
X172.555Y-99.33
X172.555Y-101.87
X172.555Y-104.41
X172.555Y-106.95
X172.555Y-109.49
X172.555Y-112.03
X172.555Y-114.57
X172.555Y-117.11
X172.555Y-119.65
X172.555Y-122.19
X172.555Y-124.73
X172.555Y-127.27
X172.555Y-129.81
X172.555Y-132.35
X172.555Y-134.89
X172.555Y-137.43
X172.605Y-71.045
X172.605Y-73.585
X172.605Y-76.125
X172.605Y-78.665
X172.605Y-81.205
X172.65Y-55.28
X172.65Y-57.82
X172.65Y-60.36
X172.65Y-62.9
X172.65Y-65.44
X174.175Y-85.52
X174.175Y-88.06
X174.175Y-90.6
X174.175Y-93.14
X174.175Y-95.68
T4
X119.615Y-73.955
X121.115Y-66.455
T5
X121.055Y-81.885
X121.055Y-92.045
X147.605Y-58.14
X150.145Y-58.14
X152.685Y-58.14
T6
X114.035Y-68.675
X114.035Y-73.755
X114.937Y-83.225
X114.937Y-88.305
T7
X111.695Y-54.64
X118.455Y-54.64
X128.045Y-54.64
X134.805Y-54.64
T0
M30
