G04 #@! TF.GenerationSoftware,KiCad,Pcbnew,(6.0.8)*
G04 #@! TF.CreationDate,2023-06-29T00:22:17-04:00*
G04 #@! TF.ProjectId,proyecto final,70726f79-6563-4746-9f20-66696e616c2e,rev?*
G04 #@! TF.SameCoordinates,Original*
G04 #@! TF.FileFunction,Soldermask,Bot*
G04 #@! TF.FilePolarity,Negative*
%FSLAX46Y46*%
G04 Gerber Fmt 4.6, Leading zero omitted, Abs format (unit mm)*
G04 Created by KiCad (PCBNEW (6.0.8)) date 2023-06-29 00:22:17*
%MOMM*%
%LPD*%
G01*
G04 APERTURE LIST*
G04 Aperture macros list*
%AMRoundRect*
0 Rectangle with rounded corners*
0 $1 Rounding radius*
0 $2 $3 $4 $5 $6 $7 $8 $9 X,Y pos of 4 corners*
0 Add a 4 corners polygon primitive as box body*
4,1,4,$2,$3,$4,$5,$6,$7,$8,$9,$2,$3,0*
0 Add four circle primitives for the rounded corners*
1,1,$1+$1,$2,$3*
1,1,$1+$1,$4,$5*
1,1,$1+$1,$6,$7*
1,1,$1+$1,$8,$9*
0 Add four rect primitives between the rounded corners*
20,1,$1+$1,$2,$3,$4,$5,0*
20,1,$1+$1,$4,$5,$6,$7,0*
20,1,$1+$1,$6,$7,$8,$9,0*
20,1,$1+$1,$8,$9,$2,$3,0*%
G04 Aperture macros list end*
%ADD10C,1.400000*%
%ADD11R,1.700000X1.700000*%
%ADD12O,1.700000X1.700000*%
%ADD13R,2.300000X2.000000*%
%ADD14C,2.300000*%
%ADD15R,1.905000X2.000000*%
%ADD16O,1.905000X2.000000*%
%ADD17R,3.000000X3.000000*%
%ADD18C,3.000000*%
%ADD19RoundRect,0.675000X0.675000X0.675000X-0.675000X0.675000X-0.675000X-0.675000X0.675000X-0.675000X0*%
%ADD20C,2.700000*%
%ADD21R,1.600000X1.600000*%
%ADD22C,1.600000*%
%ADD23R,2.200000X2.200000*%
%ADD24O,2.200000X2.200000*%
%ADD25RoundRect,0.250000X-0.750000X0.600000X-0.750000X-0.600000X0.750000X-0.600000X0.750000X0.600000X0*%
%ADD26O,2.000000X1.700000*%
G04 APERTURE END LIST*
D10*
X121115000Y-66455000D03*
X119615000Y-73955000D03*
D11*
X174175000Y-85520000D03*
D12*
X174175000Y-88060000D03*
X174175000Y-90600000D03*
X174175000Y-93140000D03*
X174175000Y-95680000D03*
D11*
X168955000Y-71045000D03*
D12*
X168955000Y-73585000D03*
X168955000Y-76125000D03*
X168955000Y-78665000D03*
X168955000Y-81205000D03*
D11*
X112687379Y-104005000D03*
D12*
X112687379Y-101465000D03*
D11*
X111835000Y-109480000D03*
D12*
X111835000Y-112020000D03*
X111835000Y-114560000D03*
X111835000Y-117100000D03*
X111835000Y-119640000D03*
X111835000Y-122180000D03*
X111835000Y-124720000D03*
X111835000Y-127260000D03*
X111835000Y-129800000D03*
X111835000Y-132340000D03*
X111835000Y-134880000D03*
X111835000Y-137420000D03*
D11*
X115505000Y-109530000D03*
D12*
X115505000Y-112070000D03*
X115505000Y-114610000D03*
X115505000Y-117150000D03*
X115505000Y-119690000D03*
X115505000Y-122230000D03*
X115505000Y-124770000D03*
X115505000Y-127310000D03*
X115505000Y-129850000D03*
X115505000Y-132390000D03*
X115505000Y-134930000D03*
X115505000Y-137470000D03*
D11*
X172555000Y-99330000D03*
D12*
X172555000Y-101870000D03*
X172555000Y-104410000D03*
X172555000Y-106950000D03*
X172555000Y-109490000D03*
X172555000Y-112030000D03*
X172555000Y-114570000D03*
X172555000Y-117110000D03*
X172555000Y-119650000D03*
X172555000Y-122190000D03*
X172555000Y-124730000D03*
X172555000Y-127270000D03*
X172555000Y-129810000D03*
X172555000Y-132350000D03*
X172555000Y-134890000D03*
X172555000Y-137430000D03*
D13*
X125302500Y-67675000D03*
D14*
X125302500Y-72675000D03*
X154702500Y-62475000D03*
X154702500Y-77875000D03*
D11*
X130000000Y-96780000D03*
D12*
X130000000Y-99320000D03*
X130000000Y-101860000D03*
X130000000Y-104400000D03*
X130000000Y-106940000D03*
X130000000Y-109480000D03*
X130000000Y-112020000D03*
X130000000Y-114560000D03*
X130000000Y-117100000D03*
X130000000Y-119640000D03*
X130000000Y-122180000D03*
X130000000Y-124720000D03*
X130000000Y-127260000D03*
X130000000Y-129800000D03*
X130000000Y-132340000D03*
X130000000Y-134880000D03*
X130000000Y-137420000D03*
D15*
X147605000Y-58140000D03*
D16*
X150145000Y-58140000D03*
X152685000Y-58140000D03*
D17*
X114035000Y-73755000D03*
D18*
X114035000Y-68675000D03*
D19*
X134805000Y-54640000D03*
X128045000Y-54640000D03*
D20*
X111695000Y-54640000D03*
X118455000Y-54640000D03*
D17*
X114937379Y-88305000D03*
D18*
X114937379Y-83225000D03*
D11*
X168860000Y-99330000D03*
D12*
X168860000Y-101870000D03*
X168860000Y-104410000D03*
X168860000Y-106950000D03*
X168860000Y-109490000D03*
X168860000Y-112030000D03*
X168860000Y-114570000D03*
X168860000Y-117110000D03*
X168860000Y-119650000D03*
X168860000Y-122190000D03*
X168860000Y-124730000D03*
X168860000Y-127270000D03*
X168860000Y-129810000D03*
X168860000Y-132350000D03*
X168860000Y-134890000D03*
X168860000Y-137430000D03*
D21*
X127477379Y-89945000D03*
D22*
X124977379Y-89945000D03*
D11*
X172650000Y-55280000D03*
D12*
X172650000Y-57820000D03*
X172650000Y-60360000D03*
X172650000Y-62900000D03*
X172650000Y-65440000D03*
D21*
X161067621Y-54500000D03*
D22*
X163567621Y-54500000D03*
D11*
X168995000Y-55280000D03*
D12*
X168995000Y-57820000D03*
X168995000Y-60360000D03*
X168995000Y-62900000D03*
X168995000Y-65440000D03*
D23*
X121055000Y-92045000D03*
D24*
X121055000Y-81885000D03*
D21*
X129067621Y-84000000D03*
D22*
X131567621Y-84000000D03*
D11*
X170515000Y-85470000D03*
D12*
X170515000Y-88010000D03*
X170515000Y-90550000D03*
X170515000Y-93090000D03*
X170515000Y-95630000D03*
D11*
X150860000Y-96780000D03*
D12*
X150860000Y-99320000D03*
X150860000Y-101860000D03*
X150860000Y-104400000D03*
X150860000Y-106940000D03*
X150860000Y-109480000D03*
X150860000Y-112020000D03*
X150860000Y-114560000D03*
X150860000Y-117100000D03*
X150860000Y-119640000D03*
X150860000Y-122180000D03*
X150860000Y-124720000D03*
X150860000Y-127260000D03*
X150860000Y-129800000D03*
X150860000Y-132340000D03*
X150860000Y-134880000D03*
X150860000Y-137420000D03*
D25*
X113637379Y-94125000D03*
D26*
X113637379Y-96625000D03*
D11*
X162285000Y-88310000D03*
D12*
X159745000Y-88310000D03*
D11*
X172605000Y-71045000D03*
D12*
X172605000Y-73585000D03*
X172605000Y-76125000D03*
X172605000Y-78665000D03*
X172605000Y-81205000D03*
D11*
X159735000Y-91990000D03*
D12*
X162275000Y-91990000D03*
M02*
